%TF.GenerationSoftware,KiCad,Pcbnew,10.0.1*%
%TF.CreationDate,2026-05-26T21:43:27-05:00*%
%TF.ProjectId,Meshtastic_LoRa,4d657368-7461-4737-9469-635f4c6f5261,rev?*%
%TF.SameCoordinates,Original*%
%TF.FileFunction,Legend,Bot*%
%TF.FilePolarity,Positive*%
%FSLAX46Y46*%
G04 Gerber Fmt 4.6, Leading zero omitted, Abs format (unit mm)*
G04 Created by KiCad (PCBNEW 10.0.1) date 2026-05-26 21:43:27*
%MOMM*%
%LPD*%
G01*
G04 APERTURE LIST*
%ADD10C,0.100000*%
%ADD11C,0.375000*%
%ADD12C,0.300000*%
%ADD13C,0.150000*%
%ADD14C,2.000000*%
%ADD15R,1.700000X1.700000*%
%ADD16C,1.700000*%
%ADD17C,0.650000*%
%ADD18O,1.204000X2.304000*%
%ADD19O,1.204000X2.004000*%
G04 APERTURE END LIST*
D10*
X143500000Y-100500000D02*
G75*
G02*
X143839471Y-106875431I-1000000J-3250000D01*
G01*
X136750000Y-101250000D02*
X142250000Y-101250000D01*
X136750000Y-106250000D02*
X142250000Y-106250000D01*
D11*
G36*
X141995000Y-71106188D02*
G01*
X141995000Y-70911283D01*
X141295702Y-70911283D01*
X141295702Y-70148604D01*
X141995000Y-70148604D01*
X141995000Y-69953698D01*
X140489700Y-69953698D01*
X140489700Y-70148604D01*
X141123968Y-70148604D01*
X141123968Y-70911283D01*
X140489700Y-70911283D01*
X140489700Y-71106188D01*
X141995000Y-71106188D01*
G37*
G36*
X140441432Y-71580813D02*
G01*
X140448659Y-71621313D01*
X140470558Y-71657292D01*
X140505922Y-71681658D01*
X140561966Y-71690814D01*
X140616287Y-71681786D01*
X140652274Y-71657292D01*
X140675032Y-71621233D01*
X140682500Y-71580813D01*
X140674811Y-71536777D01*
X140652274Y-71500946D01*
X140616402Y-71477365D01*
X140561966Y-71468614D01*
X140505891Y-71477508D01*
X140470649Y-71501038D01*
X140448889Y-71536778D01*
X140441432Y-71580813D01*
G37*
G36*
X140863575Y-71674053D02*
G01*
X141995000Y-71674053D01*
X141995000Y-71483360D01*
X140863575Y-71483360D01*
X140863575Y-71674053D01*
G37*
G36*
X141995000Y-73170010D02*
G01*
X141995000Y-72326273D01*
X140489700Y-72326273D01*
X140489700Y-73170010D01*
X140661525Y-73170010D01*
X140661525Y-72521179D01*
X141123968Y-72521179D01*
X141123968Y-73132274D01*
X141293595Y-73132274D01*
X141293595Y-72521179D01*
X141823266Y-72521179D01*
X141823266Y-73170010D01*
X141995000Y-73170010D01*
G37*
G36*
X141995000Y-73716259D02*
G01*
X140863575Y-73287796D01*
X140863575Y-73491403D01*
X141529076Y-73731555D01*
X141632024Y-73767275D01*
X141740376Y-73800889D01*
X141825373Y-73821589D01*
X141825373Y-73825252D01*
X141739277Y-73848791D01*
X141629918Y-73884603D01*
X141529167Y-73919225D01*
X140863575Y-74159377D01*
X140863575Y-74362984D01*
X141995000Y-73932414D01*
X141995000Y-73716259D01*
G37*
G36*
X141561273Y-74478268D02*
G01*
X141666107Y-74501662D01*
X141755214Y-74538564D01*
X141835467Y-74591066D01*
X141900049Y-74654801D01*
X141950578Y-74730722D01*
X141986314Y-74815382D01*
X142008344Y-74909429D01*
X142015974Y-75014654D01*
X142011151Y-75126534D01*
X141998114Y-75214781D01*
X141975421Y-75298889D01*
X141941510Y-75387247D01*
X141773349Y-75387247D01*
X141808626Y-75295667D01*
X141832792Y-75212491D01*
X141847396Y-75126658D01*
X141852667Y-75023080D01*
X141845842Y-74940578D01*
X141826598Y-74871373D01*
X141795968Y-74813014D01*
X141753840Y-74763695D01*
X141702145Y-74724857D01*
X141638903Y-74695301D01*
X141561791Y-74675535D01*
X141467893Y-74666974D01*
X141467893Y-75437622D01*
X141353679Y-75437622D01*
X141252271Y-75430989D01*
X141163186Y-75412025D01*
X141084584Y-75381659D01*
X141012895Y-75338438D01*
X140953801Y-75285128D01*
X140905982Y-75221009D01*
X140871469Y-75148737D01*
X140850019Y-75065995D01*
X140842509Y-74970599D01*
X140842689Y-74968492D01*
X140999588Y-74968492D01*
X141005822Y-75037197D01*
X141023127Y-75092310D01*
X141050388Y-75136639D01*
X141087882Y-75172099D01*
X141149760Y-75207012D01*
X141224475Y-75229579D01*
X141315027Y-75238594D01*
X141315027Y-74671371D01*
X141219878Y-74688949D01*
X141144046Y-74719404D01*
X141083852Y-74761588D01*
X141037731Y-74817168D01*
X141009553Y-74884919D01*
X140999588Y-74968492D01*
X140842689Y-74968492D01*
X140850846Y-74872755D01*
X140874968Y-74785740D01*
X140914408Y-74707549D01*
X140968319Y-74638631D01*
X141035977Y-74580368D01*
X141119206Y-74532244D01*
X141209923Y-74498696D01*
X141315222Y-74477467D01*
X141437668Y-74469962D01*
X141561273Y-74478268D01*
G37*
G36*
X140842509Y-76244997D02*
G01*
X140845715Y-76313507D01*
X140855790Y-76380552D01*
X141031736Y-76356646D01*
X141020654Y-76293907D01*
X141016441Y-76232357D01*
X141021610Y-76176824D01*
X141037062Y-76123714D01*
X141063244Y-76072165D01*
X141098209Y-76026013D01*
X141141604Y-75986224D01*
X141194402Y-75952455D01*
X141252200Y-75928134D01*
X141317436Y-75913027D01*
X141391506Y-75907759D01*
X141995000Y-75907759D01*
X141995000Y-75717066D01*
X140863575Y-75717066D01*
X140863575Y-75873870D01*
X141069380Y-75894844D01*
X141069380Y-75898966D01*
X140984238Y-75960860D01*
X140910286Y-76039650D01*
X140872889Y-76100465D01*
X140850292Y-76168272D01*
X140842509Y-76244997D01*
G37*
G36*
X140863575Y-76405373D02*
G01*
X140863575Y-76609071D01*
X141505995Y-76853436D01*
X141666737Y-76910131D01*
X141810627Y-76947684D01*
X141810627Y-76951256D01*
X141675163Y-76990640D01*
X141503888Y-77047426D01*
X140863575Y-77276953D01*
X140863575Y-77482759D01*
X142148506Y-76996227D01*
X142252043Y-76950957D01*
X142336263Y-76899770D01*
X142403862Y-76843087D01*
X142444398Y-76793292D01*
X142473919Y-76734750D01*
X142492460Y-76665742D01*
X142499025Y-76583975D01*
X142493713Y-76495407D01*
X142481531Y-76427721D01*
X142328757Y-76427721D01*
X142337733Y-76486614D01*
X142341946Y-76554575D01*
X142335520Y-76616185D01*
X142317363Y-76666979D01*
X142287999Y-76709272D01*
X142226717Y-76760927D01*
X142144385Y-76801687D01*
X141996282Y-76860122D01*
X140863575Y-76405373D01*
G37*
G36*
X141550796Y-77598065D02*
G01*
X141656395Y-77621066D01*
X141746788Y-77657423D01*
X141828971Y-77708975D01*
X141895239Y-77770381D01*
X141947372Y-77842254D01*
X141985063Y-77922870D01*
X142008061Y-78011353D01*
X142015974Y-78109425D01*
X142005571Y-78228810D01*
X141975957Y-78330815D01*
X141928251Y-78418687D01*
X141861826Y-78494748D01*
X141781242Y-78554581D01*
X141684272Y-78598950D01*
X141567627Y-78627237D01*
X141427135Y-78637356D01*
X141303469Y-78629287D01*
X141198689Y-78606589D01*
X141109772Y-78570860D01*
X141028913Y-78520073D01*
X140963271Y-78459056D01*
X140911202Y-78387129D01*
X140873602Y-78306452D01*
X140850505Y-78216629D01*
X140842509Y-78115744D01*
X140842872Y-78111531D01*
X141003801Y-78111531D01*
X141011668Y-78195419D01*
X141033564Y-78262923D01*
X141068222Y-78317462D01*
X141116183Y-78361300D01*
X141195041Y-78403110D01*
X141296705Y-78430410D01*
X141427135Y-78440435D01*
X141557619Y-78430478D01*
X141660516Y-78403228D01*
X141741384Y-78361300D01*
X141790960Y-78317256D01*
X141826538Y-78262912D01*
X141848883Y-78196141D01*
X141856880Y-78113638D01*
X141848828Y-78029977D01*
X141826402Y-77962740D01*
X141790821Y-77908454D01*
X141741384Y-77864877D01*
X141660598Y-77823562D01*
X141557701Y-77796673D01*
X141427135Y-77786841D01*
X141296542Y-77796625D01*
X141194880Y-77823233D01*
X141116183Y-77863869D01*
X141068285Y-77906734D01*
X141033639Y-77960539D01*
X141011703Y-78027621D01*
X141003801Y-78111531D01*
X140842872Y-78111531D01*
X140852815Y-77996216D01*
X140882108Y-77894356D01*
X140929205Y-77806882D01*
X140994642Y-77731428D01*
X141074147Y-77672169D01*
X141170323Y-77628137D01*
X141286556Y-77600004D01*
X141427135Y-77589920D01*
X141550796Y-77598065D01*
G37*
G36*
X140842509Y-79466713D02*
G01*
X140849667Y-79568821D01*
X140869467Y-79651743D01*
X140900150Y-79718970D01*
X140941061Y-79773268D01*
X140993102Y-79815728D01*
X141060772Y-79848029D01*
X141147853Y-79869244D01*
X141259157Y-79877041D01*
X141995000Y-79877041D01*
X141995000Y-79688546D01*
X141271796Y-79688546D01*
X141183575Y-79680387D01*
X141117817Y-79658421D01*
X141069204Y-79624763D01*
X141034283Y-79579121D01*
X141011979Y-79518854D01*
X141003801Y-79439419D01*
X141011591Y-79346597D01*
X141032652Y-79276052D01*
X141064817Y-79222830D01*
X141107848Y-79183422D01*
X141180753Y-79146539D01*
X141278575Y-79121913D01*
X141408267Y-79112713D01*
X141995000Y-79112713D01*
X141995000Y-78922021D01*
X140863575Y-78922021D01*
X140863575Y-79076535D01*
X141016807Y-79103829D01*
X141016807Y-79110149D01*
X140963456Y-79151029D01*
X140920057Y-79201178D01*
X140885923Y-79261732D01*
X140853392Y-79361473D01*
X140842509Y-79466713D01*
G37*
G36*
X141561273Y-80164241D02*
G01*
X141666107Y-80187636D01*
X141755214Y-80224537D01*
X141835467Y-80277039D01*
X141900049Y-80340775D01*
X141950578Y-80416695D01*
X141986314Y-80501355D01*
X142008344Y-80595403D01*
X142015974Y-80700628D01*
X142011151Y-80812507D01*
X141998114Y-80900754D01*
X141975421Y-80984862D01*
X141941510Y-81073220D01*
X141773349Y-81073220D01*
X141808626Y-80981640D01*
X141832792Y-80898464D01*
X141847396Y-80812631D01*
X141852667Y-80709054D01*
X141845842Y-80626551D01*
X141826598Y-80557347D01*
X141795968Y-80498987D01*
X141753840Y-80449668D01*
X141702145Y-80410830D01*
X141638903Y-80381274D01*
X141561791Y-80361508D01*
X141467893Y-80352948D01*
X141467893Y-81123595D01*
X141353679Y-81123595D01*
X141252271Y-81116962D01*
X141163186Y-81097998D01*
X141084584Y-81067633D01*
X141012895Y-81024412D01*
X140953801Y-80971102D01*
X140905982Y-80906982D01*
X140871469Y-80834710D01*
X140850019Y-80751968D01*
X140842509Y-80656572D01*
X140842688Y-80654466D01*
X140999588Y-80654466D01*
X141005822Y-80723171D01*
X141023127Y-80778283D01*
X141050388Y-80822613D01*
X141087882Y-80858073D01*
X141149760Y-80892986D01*
X141224475Y-80915552D01*
X141315027Y-80924568D01*
X141315027Y-80357344D01*
X141219878Y-80374922D01*
X141144046Y-80405378D01*
X141083852Y-80447561D01*
X141037731Y-80503141D01*
X141009553Y-80570892D01*
X140999588Y-80654466D01*
X140842688Y-80654466D01*
X140850846Y-80558729D01*
X140874968Y-80471713D01*
X140914408Y-80393523D01*
X140968319Y-80324605D01*
X141035977Y-80266341D01*
X141119206Y-80218217D01*
X141209923Y-80184670D01*
X141315222Y-80163441D01*
X141437668Y-80155935D01*
X141561273Y-80164241D01*
G37*
G36*
X141995000Y-82548935D02*
G01*
X141995000Y-81705198D01*
X140489700Y-81705198D01*
X140489700Y-82548935D01*
X140661525Y-82548935D01*
X140661525Y-81900104D01*
X141123968Y-81900104D01*
X141123968Y-82511200D01*
X141293595Y-82511200D01*
X141293595Y-81900104D01*
X141823266Y-81900104D01*
X141823266Y-82548935D01*
X141995000Y-82548935D01*
G37*
G36*
X141995000Y-83037207D02*
G01*
X141995000Y-82846515D01*
X140393163Y-82846515D01*
X140393163Y-83037207D01*
X141995000Y-83037207D01*
G37*
G36*
X141681300Y-84126042D02*
G01*
X141761504Y-84117808D01*
X141828197Y-84094481D01*
X141884228Y-84056705D01*
X141931344Y-84003218D01*
X141966533Y-83940666D01*
X141992985Y-83866367D01*
X142009926Y-83778201D01*
X142015974Y-83673674D01*
X142010851Y-83559837D01*
X141997015Y-83470341D01*
X141973641Y-83388144D01*
X141943434Y-83317934D01*
X141768861Y-83317934D01*
X141801727Y-83392752D01*
X141832792Y-83484355D01*
X141853968Y-83580491D01*
X141861002Y-83677887D01*
X141854901Y-83770804D01*
X141839150Y-83835692D01*
X141816580Y-83879662D01*
X141783169Y-83914489D01*
X141744310Y-83934732D01*
X141698061Y-83941669D01*
X141658930Y-83935956D01*
X141624056Y-83918954D01*
X141593343Y-83889992D01*
X141557744Y-83836889D01*
X141524807Y-83770383D01*
X141482456Y-83666346D01*
X141438799Y-83561411D01*
X141398192Y-83478859D01*
X141350413Y-83408164D01*
X141296526Y-83358234D01*
X141254871Y-83335398D01*
X141204599Y-83320976D01*
X141143661Y-83315827D01*
X141074335Y-83323468D01*
X141015475Y-83345377D01*
X140964770Y-83381431D01*
X140920911Y-83433339D01*
X140879027Y-83515317D01*
X140852189Y-83616339D01*
X140842509Y-83740901D01*
X140847673Y-83842116D01*
X140862568Y-83933609D01*
X140886977Y-84021306D01*
X140919629Y-84103877D01*
X141071945Y-84038572D01*
X141020562Y-83887172D01*
X141004852Y-83808904D01*
X140999588Y-83728262D01*
X141004359Y-83653596D01*
X141017034Y-83597851D01*
X141035766Y-83556895D01*
X141063564Y-83523407D01*
X141095479Y-83504479D01*
X141133128Y-83498094D01*
X141175377Y-83504916D01*
X141210247Y-83524838D01*
X141239544Y-83557698D01*
X141272438Y-83615330D01*
X141344611Y-83785964D01*
X141386684Y-83888780D01*
X141426860Y-83969238D01*
X141474812Y-84037646D01*
X141529625Y-84085650D01*
X141571689Y-84107452D01*
X141621653Y-84121171D01*
X141681300Y-84126042D01*
G37*
G36*
X141561273Y-84337863D02*
G01*
X141666107Y-84361257D01*
X141755214Y-84398159D01*
X141835467Y-84450661D01*
X141900049Y-84514396D01*
X141950578Y-84590317D01*
X141986314Y-84674977D01*
X142008344Y-84769025D01*
X142015974Y-84874249D01*
X142011151Y-84986129D01*
X141998114Y-85074376D01*
X141975421Y-85158484D01*
X141941510Y-85246842D01*
X141773349Y-85246842D01*
X141808626Y-85155262D01*
X141832792Y-85072086D01*
X141847396Y-84986253D01*
X141852667Y-84882676D01*
X141845842Y-84800173D01*
X141826598Y-84730968D01*
X141795968Y-84672609D01*
X141753840Y-84623290D01*
X141702145Y-84584452D01*
X141638903Y-84554896D01*
X141561791Y-84535130D01*
X141467893Y-84526570D01*
X141467893Y-85297217D01*
X141353679Y-85297217D01*
X141252271Y-85290584D01*
X141163186Y-85271620D01*
X141084584Y-85241255D01*
X141012895Y-85198034D01*
X140953801Y-85144724D01*
X140905982Y-85080604D01*
X140871469Y-85008332D01*
X140850019Y-84925590D01*
X140842509Y-84830194D01*
X140842689Y-84828087D01*
X140999588Y-84828087D01*
X141005822Y-84896792D01*
X141023127Y-84951905D01*
X141050388Y-84996234D01*
X141087882Y-85031694D01*
X141149760Y-85066608D01*
X141224475Y-85089174D01*
X141315027Y-85098189D01*
X141315027Y-84530966D01*
X141219878Y-84548544D01*
X141144046Y-84579000D01*
X141083852Y-84621183D01*
X141037731Y-84676763D01*
X141009553Y-84744514D01*
X140999588Y-84828087D01*
X140842689Y-84828087D01*
X140850846Y-84732351D01*
X140874968Y-84645335D01*
X140914408Y-84567144D01*
X140968319Y-84498227D01*
X141035977Y-84439963D01*
X141119206Y-84391839D01*
X141209923Y-84358292D01*
X141315222Y-84337063D01*
X141437668Y-84329557D01*
X141561273Y-84337863D01*
G37*
G36*
X141572856Y-85746105D02*
G01*
X141572856Y-85620900D01*
X140489700Y-85568052D01*
X140489700Y-85798953D01*
X141572856Y-85746105D01*
G37*
G36*
X141878679Y-85549367D02*
G01*
X141827471Y-85554458D01*
X141791767Y-85567835D01*
X141767396Y-85588019D01*
X141743351Y-85630407D01*
X141735064Y-85682449D01*
X141743239Y-85732836D01*
X141767396Y-85775780D01*
X141791875Y-85796649D01*
X141827593Y-85810403D01*
X141878679Y-85815622D01*
X141928361Y-85810518D01*
X141964322Y-85796867D01*
X141990054Y-85775872D01*
X142015767Y-85732768D01*
X142024400Y-85682449D01*
X142015632Y-85630566D01*
X141989962Y-85588019D01*
X141964328Y-85567653D01*
X141928403Y-85554352D01*
X141878679Y-85549367D01*
G37*
G36*
X138995000Y-71106188D02*
G01*
X138995000Y-70911283D01*
X138295702Y-70911283D01*
X138295702Y-70148604D01*
X138995000Y-70148604D01*
X138995000Y-69953698D01*
X137489700Y-69953698D01*
X137489700Y-70148604D01*
X138123968Y-70148604D01*
X138123968Y-70911283D01*
X137489700Y-70911283D01*
X137489700Y-71106188D01*
X138995000Y-71106188D01*
G37*
G36*
X137441432Y-71580813D02*
G01*
X137448659Y-71621313D01*
X137470558Y-71657292D01*
X137505922Y-71681658D01*
X137561966Y-71690814D01*
X137616287Y-71681786D01*
X137652274Y-71657292D01*
X137675032Y-71621233D01*
X137682500Y-71580813D01*
X137674811Y-71536777D01*
X137652274Y-71500946D01*
X137616402Y-71477365D01*
X137561966Y-71468614D01*
X137505891Y-71477508D01*
X137470649Y-71501038D01*
X137448889Y-71536778D01*
X137441432Y-71580813D01*
G37*
G36*
X137863575Y-71674053D02*
G01*
X138995000Y-71674053D01*
X138995000Y-71483360D01*
X137863575Y-71483360D01*
X137863575Y-71674053D01*
G37*
G36*
X138995000Y-72747134D02*
G01*
X138986210Y-72897957D01*
X138961289Y-73028573D01*
X138921859Y-73141848D01*
X138868762Y-73240223D01*
X138802017Y-73325623D01*
X138721707Y-73397190D01*
X138626776Y-73454165D01*
X138514920Y-73496668D01*
X138383093Y-73523729D01*
X138227650Y-73533352D01*
X138105478Y-73527052D01*
X137998401Y-73509130D01*
X137904475Y-73480739D01*
X137821993Y-73442585D01*
X137744789Y-73392193D01*
X137678269Y-73332910D01*
X137621543Y-73264248D01*
X137574147Y-73185306D01*
X137528405Y-73071325D01*
X137499755Y-72940948D01*
X137489700Y-72791189D01*
X137489700Y-72763895D01*
X137657312Y-72763895D01*
X137667162Y-72898885D01*
X137694689Y-73010800D01*
X137737875Y-73103714D01*
X137796164Y-73180818D01*
X137853420Y-73230545D01*
X137923316Y-73270760D01*
X138008067Y-73301238D01*
X138110506Y-73320925D01*
X138233969Y-73328005D01*
X138367484Y-73319330D01*
X138478125Y-73295164D01*
X138569728Y-73257532D01*
X138645437Y-73207355D01*
X138707528Y-73144379D01*
X138757244Y-73067200D01*
X138794686Y-72973381D01*
X138818805Y-72859625D01*
X138827479Y-72721946D01*
X138827479Y-72521179D01*
X137657312Y-72521179D01*
X137657312Y-72763895D01*
X137489700Y-72763895D01*
X137489700Y-72326273D01*
X138995000Y-72326273D01*
X138995000Y-72747134D01*
G37*
G36*
X138765467Y-73759352D02*
G01*
X138834622Y-73779497D01*
X138890098Y-73810996D01*
X138934366Y-73853829D01*
X138978818Y-73925582D01*
X139006301Y-74009885D01*
X139015974Y-74109918D01*
X139010224Y-74205149D01*
X138994738Y-74278698D01*
X138971552Y-74334865D01*
X138917319Y-74411872D01*
X138835356Y-74489288D01*
X138835356Y-74493867D01*
X138995000Y-74529588D01*
X138995000Y-74669264D01*
X138225543Y-74669264D01*
X138125410Y-74661889D01*
X138046349Y-74641711D01*
X137984199Y-74610735D01*
X137935749Y-74569613D01*
X137898492Y-74517859D01*
X137870061Y-74451837D01*
X137851430Y-74368275D01*
X137844616Y-74263149D01*
X137851807Y-74155170D01*
X137873101Y-74052398D01*
X137905618Y-73955325D01*
X137942893Y-73875170D01*
X138086782Y-73933971D01*
X138025783Y-74085463D01*
X138006211Y-74166549D01*
X137999588Y-74252708D01*
X138006296Y-74324286D01*
X138024678Y-74379825D01*
X138053352Y-74422884D01*
X138093745Y-74453701D01*
X138155404Y-74474722D01*
X138246609Y-74482876D01*
X138310906Y-74482876D01*
X138310976Y-74480770D01*
X138444904Y-74480770D01*
X138542631Y-74480770D01*
X138623491Y-74474075D01*
X138688576Y-74455532D01*
X138741008Y-74426534D01*
X138783058Y-74387164D01*
X138825622Y-74320963D01*
X138851811Y-74243508D01*
X138861002Y-74151866D01*
X138855774Y-74093749D01*
X138841086Y-74045717D01*
X138817679Y-74005778D01*
X138784771Y-73975218D01*
X138740561Y-73956016D01*
X138681300Y-73948992D01*
X138614898Y-73958235D01*
X138561363Y-73984616D01*
X138517535Y-74028859D01*
X138488042Y-74086079D01*
X138464590Y-74177954D01*
X138451132Y-74317829D01*
X138444904Y-74480770D01*
X138310976Y-74480770D01*
X138317134Y-74294565D01*
X138328275Y-74152243D01*
X138350137Y-74039980D01*
X138380435Y-73952530D01*
X138417609Y-73885336D01*
X138468765Y-73826744D01*
X138528165Y-73785806D01*
X138597406Y-73760812D01*
X138679193Y-73752071D01*
X138765467Y-73759352D01*
G37*
G36*
X138578973Y-74957084D02*
G01*
X138697869Y-74982878D01*
X138793187Y-75022442D01*
X138869153Y-75074463D01*
X138933107Y-75142757D01*
X138978435Y-75220476D01*
X139006267Y-75309503D01*
X139015974Y-75412617D01*
X139009705Y-75500228D01*
X138992309Y-75571830D01*
X138965232Y-75630329D01*
X138908513Y-75707370D01*
X138843783Y-75764877D01*
X138843783Y-75769273D01*
X138995000Y-75796567D01*
X138995000Y-75951081D01*
X137393163Y-75951081D01*
X137393163Y-75760389D01*
X137845440Y-75760389D01*
X137930803Y-75765609D01*
X138008472Y-75772753D01*
X138008472Y-75764785D01*
X137945703Y-75705922D01*
X137891236Y-75629322D01*
X137865251Y-75571621D01*
X137848535Y-75501028D01*
X137844268Y-75439911D01*
X138001694Y-75439911D01*
X138009937Y-75532123D01*
X138032263Y-75602082D01*
X138066576Y-75654839D01*
X138112978Y-75693802D01*
X138190462Y-75729481D01*
X138294837Y-75753494D01*
X138433455Y-75762495D01*
X138467069Y-75762495D01*
X138596674Y-75753017D01*
X138691676Y-75727939D01*
X138760160Y-75690779D01*
X138800146Y-75651427D01*
X138830095Y-75599187D01*
X138849668Y-75530855D01*
X138856880Y-75442018D01*
X138849430Y-75369337D01*
X138828409Y-75309486D01*
X138794499Y-75259742D01*
X138746605Y-75218444D01*
X138669394Y-75179730D01*
X138567872Y-75154115D01*
X138435561Y-75144622D01*
X138304700Y-75153941D01*
X138201048Y-75179439D01*
X138119297Y-75218536D01*
X138067647Y-75260298D01*
X138031576Y-75309936D01*
X138009472Y-75368931D01*
X138001694Y-75439911D01*
X137844268Y-75439911D01*
X137842509Y-75414724D01*
X137852317Y-75311755D01*
X137880489Y-75222572D01*
X137926479Y-75144427D01*
X137991528Y-75075471D01*
X138068526Y-75022925D01*
X138164607Y-74983052D01*
X138283878Y-74957116D01*
X138431348Y-74947701D01*
X138578973Y-74957084D01*
G37*
G36*
X138572856Y-76471227D02*
G01*
X138572856Y-76346022D01*
X137489700Y-76293174D01*
X137489700Y-76524075D01*
X138572856Y-76471227D01*
G37*
G36*
X138878679Y-76274489D02*
G01*
X138827471Y-76279580D01*
X138791767Y-76292957D01*
X138767396Y-76313141D01*
X138743351Y-76355529D01*
X138735064Y-76407571D01*
X138743239Y-76457958D01*
X138767396Y-76500902D01*
X138791875Y-76521771D01*
X138827593Y-76535525D01*
X138878679Y-76540744D01*
X138928361Y-76535640D01*
X138964322Y-76521989D01*
X138990054Y-76500994D01*
X139015767Y-76457890D01*
X139024400Y-76407571D01*
X139015632Y-76355688D01*
X138989962Y-76313141D01*
X138964328Y-76292775D01*
X138928403Y-76279474D01*
X138878679Y-76274489D01*
G37*
D12*
G36*
X135745000Y-71106188D02*
G01*
X135745000Y-70911283D01*
X135045702Y-70911283D01*
X135045702Y-70148604D01*
X135745000Y-70148604D01*
X135745000Y-69953698D01*
X134239700Y-69953698D01*
X134239700Y-70148604D01*
X134873968Y-70148604D01*
X134873968Y-70911283D01*
X134239700Y-70911283D01*
X134239700Y-71106188D01*
X135745000Y-71106188D01*
G37*
G36*
X134191432Y-71580813D02*
G01*
X134198659Y-71621313D01*
X134220558Y-71657292D01*
X134255922Y-71681658D01*
X134311966Y-71690814D01*
X134366287Y-71681786D01*
X134402274Y-71657292D01*
X134425032Y-71621233D01*
X134432500Y-71580813D01*
X134424811Y-71536777D01*
X134402274Y-71500946D01*
X134366402Y-71477365D01*
X134311966Y-71468614D01*
X134255891Y-71477508D01*
X134220649Y-71501038D01*
X134198889Y-71536778D01*
X134191432Y-71580813D01*
G37*
G36*
X134613575Y-71674053D02*
G01*
X135745000Y-71674053D01*
X135745000Y-71483360D01*
X134613575Y-71483360D01*
X134613575Y-71674053D01*
G37*
G36*
X135212855Y-73472444D02*
G01*
X135315431Y-73465130D01*
X135408883Y-73443848D01*
X135494681Y-73409063D01*
X135572090Y-73359779D01*
X135637937Y-73295910D01*
X135693159Y-73215806D01*
X135732031Y-73126322D01*
X135756996Y-73017644D01*
X135765974Y-72885711D01*
X135758941Y-72771578D01*
X135739100Y-72674076D01*
X135707835Y-72590691D01*
X135665809Y-72519315D01*
X135612925Y-72458347D01*
X135532301Y-72395444D01*
X135439696Y-72349924D01*
X135332821Y-72321573D01*
X135208642Y-72311618D01*
X134239700Y-72311618D01*
X134239700Y-72506433D01*
X135214962Y-72506433D01*
X135305558Y-72513250D01*
X135380970Y-72532351D01*
X135443896Y-72562437D01*
X135496421Y-72603244D01*
X135537968Y-72654391D01*
X135569035Y-72718272D01*
X135589084Y-72797685D01*
X135596347Y-72896244D01*
X135588448Y-72997823D01*
X135566832Y-73077744D01*
X135533552Y-73140393D01*
X135489094Y-73189061D01*
X135413031Y-73238290D01*
X135322233Y-73268836D01*
X135212855Y-73279644D01*
X134239700Y-73279644D01*
X134239700Y-73472444D01*
X135212855Y-73472444D01*
G37*
G36*
X134592509Y-74380111D02*
G01*
X134599667Y-74482219D01*
X134619467Y-74565142D01*
X134650150Y-74632368D01*
X134691061Y-74686666D01*
X134743102Y-74729127D01*
X134810772Y-74761428D01*
X134897853Y-74782642D01*
X135009157Y-74790439D01*
X135745000Y-74790439D01*
X135745000Y-74601945D01*
X135021796Y-74601945D01*
X134933575Y-74593786D01*
X134867817Y-74571819D01*
X134819204Y-74538161D01*
X134784283Y-74492519D01*
X134761979Y-74432253D01*
X134753801Y-74352817D01*
X134761591Y-74259995D01*
X134782652Y-74189451D01*
X134814817Y-74136228D01*
X134857848Y-74096820D01*
X134930753Y-74059937D01*
X135028575Y-74035311D01*
X135158267Y-74026112D01*
X135745000Y-74026112D01*
X135745000Y-73835419D01*
X134613575Y-73835419D01*
X134613575Y-73989933D01*
X134766807Y-74017227D01*
X134766807Y-74023547D01*
X134713456Y-74064428D01*
X134670057Y-74114577D01*
X134635923Y-74175130D01*
X134603392Y-74274872D01*
X134592509Y-74380111D01*
G37*
G36*
X135765974Y-75586732D02*
G01*
X135758856Y-75488417D01*
X135738242Y-75399916D01*
X135704699Y-75319652D01*
X135657010Y-75247916D01*
X135594322Y-75186891D01*
X135514648Y-75135829D01*
X135426227Y-75100489D01*
X135317907Y-75077604D01*
X135185561Y-75069334D01*
X135047630Y-75078051D01*
X134936013Y-75102055D01*
X134846033Y-75138943D01*
X134765014Y-75192089D01*
X134701623Y-75254861D01*
X134653784Y-75327987D01*
X134620245Y-75409627D01*
X134599627Y-75499568D01*
X134592509Y-75599371D01*
X134597053Y-75684771D01*
X134610461Y-75765976D01*
X134631506Y-75842204D01*
X134654883Y-75899149D01*
X134813427Y-75840531D01*
X134776882Y-75720455D01*
X134764136Y-75654382D01*
X134760121Y-75595158D01*
X134768877Y-75507358D01*
X134793295Y-75436789D01*
X134832222Y-75379703D01*
X134886735Y-75333782D01*
X134959987Y-75298454D01*
X135056836Y-75274972D01*
X135183455Y-75266255D01*
X135286700Y-75272189D01*
X135370689Y-75288541D01*
X135438672Y-75313608D01*
X135493399Y-75346397D01*
X135539507Y-75390383D01*
X135572560Y-75443375D01*
X135593217Y-75507201D01*
X135600560Y-75584625D01*
X135595568Y-75673682D01*
X135581784Y-75746650D01*
X135560213Y-75815270D01*
X135533790Y-75879457D01*
X135703875Y-75879457D01*
X135730463Y-75818837D01*
X135750129Y-75752237D01*
X135761668Y-75680118D01*
X135765974Y-75586732D01*
G37*
G36*
X135745000Y-76329810D02*
G01*
X135745000Y-76139118D01*
X134143163Y-76139118D01*
X134143163Y-76329810D01*
X135745000Y-76329810D01*
G37*
G36*
X135311273Y-76625163D02*
G01*
X135416107Y-76648557D01*
X135505214Y-76685458D01*
X135585467Y-76737960D01*
X135650049Y-76801696D01*
X135700578Y-76877616D01*
X135736314Y-76962277D01*
X135758344Y-77056324D01*
X135765974Y-77161549D01*
X135761151Y-77273429D01*
X135748114Y-77361675D01*
X135725421Y-77445783D01*
X135691510Y-77534141D01*
X135523349Y-77534141D01*
X135558626Y-77442561D01*
X135582792Y-77359385D01*
X135597396Y-77273553D01*
X135602667Y-77169975D01*
X135595842Y-77087473D01*
X135576598Y-77018268D01*
X135545968Y-76959908D01*
X135503840Y-76910589D01*
X135452145Y-76871751D01*
X135388903Y-76842195D01*
X135311791Y-76822429D01*
X135217893Y-76813869D01*
X135217893Y-77584516D01*
X135103679Y-77584516D01*
X135002271Y-77577884D01*
X134913186Y-77558919D01*
X134834584Y-77528554D01*
X134762895Y-77485333D01*
X134703801Y-77432023D01*
X134655982Y-77367903D01*
X134621469Y-77295631D01*
X134600019Y-77212889D01*
X134592509Y-77117493D01*
X134592688Y-77115387D01*
X134749588Y-77115387D01*
X134755822Y-77184092D01*
X134773127Y-77239204D01*
X134800388Y-77283534D01*
X134837882Y-77318994D01*
X134899760Y-77353907D01*
X134974475Y-77376473D01*
X135065027Y-77385489D01*
X135065027Y-76818265D01*
X134969878Y-76835844D01*
X134894046Y-76866299D01*
X134833852Y-76908483D01*
X134787731Y-76964062D01*
X134759553Y-77031813D01*
X134749588Y-77115387D01*
X134592688Y-77115387D01*
X134600846Y-77019650D01*
X134624968Y-76932634D01*
X134664408Y-76854444D01*
X134718319Y-76785526D01*
X134785977Y-76727263D01*
X134869206Y-76679139D01*
X134959923Y-76645591D01*
X135065222Y-76624362D01*
X135187668Y-76616857D01*
X135311273Y-76625163D01*
G37*
G36*
X135745000Y-79270983D02*
G01*
X135745000Y-79041181D01*
X135030314Y-78510868D01*
X135161748Y-78361025D01*
X135745000Y-78361025D01*
X135745000Y-78166120D01*
X134239700Y-78166120D01*
X134239700Y-78361025D01*
X134974077Y-78361025D01*
X134837149Y-78483941D01*
X134694358Y-78614183D01*
X134239700Y-79020389D01*
X134239700Y-79248726D01*
X134895950Y-78651644D01*
X135745000Y-79270983D01*
G37*
G36*
X135311273Y-79386084D02*
G01*
X135416107Y-79409478D01*
X135505214Y-79446379D01*
X135585467Y-79498882D01*
X135650049Y-79562617D01*
X135700578Y-79638538D01*
X135736314Y-79723198D01*
X135758344Y-79817245D01*
X135765974Y-79922470D01*
X135761151Y-80034350D01*
X135748114Y-80122596D01*
X135725421Y-80206704D01*
X135691510Y-80295062D01*
X135523349Y-80295062D01*
X135558626Y-80203483D01*
X135582792Y-80120307D01*
X135597396Y-80034474D01*
X135602667Y-79930896D01*
X135595842Y-79848394D01*
X135576598Y-79779189D01*
X135545968Y-79720829D01*
X135503840Y-79671510D01*
X135452145Y-79632673D01*
X135388903Y-79603116D01*
X135311791Y-79583351D01*
X135217893Y-79574790D01*
X135217893Y-80345437D01*
X135103679Y-80345437D01*
X135002271Y-80338805D01*
X134913186Y-80319840D01*
X134834584Y-80289475D01*
X134762895Y-80246254D01*
X134703801Y-80192944D01*
X134655982Y-80128825D01*
X134621469Y-80056552D01*
X134600019Y-79973810D01*
X134592509Y-79878415D01*
X134592689Y-79876308D01*
X134749588Y-79876308D01*
X134755822Y-79945013D01*
X134773127Y-80000125D01*
X134800388Y-80044455D01*
X134837882Y-80079915D01*
X134899760Y-80114828D01*
X134974475Y-80137395D01*
X135065027Y-80146410D01*
X135065027Y-79579187D01*
X134969878Y-79596765D01*
X134894046Y-79627220D01*
X134833852Y-79669404D01*
X134787731Y-79724984D01*
X134759553Y-79792734D01*
X134749588Y-79876308D01*
X134592689Y-79876308D01*
X134600846Y-79780571D01*
X134624968Y-79693556D01*
X134664408Y-79615365D01*
X134718319Y-79546447D01*
X134785977Y-79488184D01*
X134869206Y-79440060D01*
X134959923Y-79406512D01*
X135065222Y-79385283D01*
X135187668Y-79377778D01*
X135311273Y-79386084D01*
G37*
G36*
X135745000Y-80831053D02*
G01*
X134613575Y-80402590D01*
X134613575Y-80606197D01*
X135279076Y-80846349D01*
X135382024Y-80882069D01*
X135490376Y-80915683D01*
X135575373Y-80936383D01*
X135575373Y-80940047D01*
X135489277Y-80963586D01*
X135379918Y-80999398D01*
X135279167Y-81034019D01*
X134613575Y-81274171D01*
X134613575Y-81477778D01*
X135745000Y-81047208D01*
X135745000Y-80831053D01*
G37*
G36*
X134191432Y-81745224D02*
G01*
X134198659Y-81785723D01*
X134220558Y-81821702D01*
X134255922Y-81846069D01*
X134311966Y-81855225D01*
X134366287Y-81846196D01*
X134402274Y-81821702D01*
X134425032Y-81785643D01*
X134432500Y-81745224D01*
X134424811Y-81701187D01*
X134402274Y-81665356D01*
X134366402Y-81641776D01*
X134311966Y-81633025D01*
X134255891Y-81641919D01*
X134220649Y-81665448D01*
X134198889Y-81701188D01*
X134191432Y-81745224D01*
G37*
G36*
X134613575Y-81838463D02*
G01*
X135745000Y-81838463D01*
X135745000Y-81647771D01*
X134613575Y-81647771D01*
X134613575Y-81838463D01*
G37*
G36*
X134592509Y-82733217D02*
G01*
X134599667Y-82835325D01*
X134619467Y-82918247D01*
X134650150Y-82985474D01*
X134691061Y-83039772D01*
X134743102Y-83082232D01*
X134810772Y-83114533D01*
X134897853Y-83135747D01*
X135009157Y-83143545D01*
X135745000Y-83143545D01*
X135745000Y-82955050D01*
X135021796Y-82955050D01*
X134933575Y-82946891D01*
X134867817Y-82924924D01*
X134819204Y-82891267D01*
X134784283Y-82845625D01*
X134761979Y-82785358D01*
X134753801Y-82705922D01*
X134761591Y-82613100D01*
X134782652Y-82542556D01*
X134814817Y-82489333D01*
X134857848Y-82449925D01*
X134930753Y-82413043D01*
X135028575Y-82388416D01*
X135158267Y-82379217D01*
X135745000Y-82379217D01*
X135745000Y-82188524D01*
X134613575Y-82188524D01*
X134613575Y-82343039D01*
X134766807Y-82370333D01*
X134766807Y-82376653D01*
X134713456Y-82417533D01*
X134670057Y-82467682D01*
X134635923Y-82528236D01*
X134603392Y-82627977D01*
X134592509Y-82733217D01*
G37*
G36*
X135322856Y-83654897D02*
G01*
X135322856Y-83529692D01*
X134239700Y-83476844D01*
X134239700Y-83707745D01*
X135322856Y-83654897D01*
G37*
G36*
X135628679Y-83458160D02*
G01*
X135577471Y-83463251D01*
X135541767Y-83476627D01*
X135517396Y-83496811D01*
X135493351Y-83539200D01*
X135485064Y-83591242D01*
X135493239Y-83641628D01*
X135517396Y-83684573D01*
X135541875Y-83705442D01*
X135577593Y-83719196D01*
X135628679Y-83724415D01*
X135678361Y-83719311D01*
X135714322Y-83705660D01*
X135740054Y-83684665D01*
X135765767Y-83641561D01*
X135774400Y-83591242D01*
X135765632Y-83539359D01*
X135739962Y-83496811D01*
X135714328Y-83476446D01*
X135678403Y-83463145D01*
X135628679Y-83458160D01*
G37*
D13*
X156332561Y-89639411D02*
X156380180Y-89734649D01*
X156380180Y-89734649D02*
X156380180Y-89877506D01*
X156380180Y-89877506D02*
X156332561Y-90020363D01*
X156332561Y-90020363D02*
X156237323Y-90115601D01*
X156237323Y-90115601D02*
X156142085Y-90163220D01*
X156142085Y-90163220D02*
X155951609Y-90210839D01*
X155951609Y-90210839D02*
X155808752Y-90210839D01*
X155808752Y-90210839D02*
X155618276Y-90163220D01*
X155618276Y-90163220D02*
X155523038Y-90115601D01*
X155523038Y-90115601D02*
X155427800Y-90020363D01*
X155427800Y-90020363D02*
X155380180Y-89877506D01*
X155380180Y-89877506D02*
X155380180Y-89782268D01*
X155380180Y-89782268D02*
X155427800Y-89639411D01*
X155427800Y-89639411D02*
X155475419Y-89591792D01*
X155475419Y-89591792D02*
X155808752Y-89591792D01*
X155808752Y-89591792D02*
X155808752Y-89782268D01*
X155380180Y-89163220D02*
X156380180Y-89163220D01*
X156380180Y-89163220D02*
X155380180Y-88591792D01*
X155380180Y-88591792D02*
X156380180Y-88591792D01*
X155380180Y-88115601D02*
X156380180Y-88115601D01*
X156380180Y-88115601D02*
X156380180Y-87877506D01*
X156380180Y-87877506D02*
X156332561Y-87734649D01*
X156332561Y-87734649D02*
X156237323Y-87639411D01*
X156237323Y-87639411D02*
X156142085Y-87591792D01*
X156142085Y-87591792D02*
X155951609Y-87544173D01*
X155951609Y-87544173D02*
X155808752Y-87544173D01*
X155808752Y-87544173D02*
X155618276Y-87591792D01*
X155618276Y-87591792D02*
X155523038Y-87639411D01*
X155523038Y-87639411D02*
X155427800Y-87734649D01*
X155427800Y-87734649D02*
X155380180Y-87877506D01*
X155380180Y-87877506D02*
X155380180Y-88115601D01*
X156380180Y-86448934D02*
X156380180Y-85829887D01*
X156380180Y-85829887D02*
X155999228Y-86163220D01*
X155999228Y-86163220D02*
X155999228Y-86020363D01*
X155999228Y-86020363D02*
X155951609Y-85925125D01*
X155951609Y-85925125D02*
X155903990Y-85877506D01*
X155903990Y-85877506D02*
X155808752Y-85829887D01*
X155808752Y-85829887D02*
X155570657Y-85829887D01*
X155570657Y-85829887D02*
X155475419Y-85877506D01*
X155475419Y-85877506D02*
X155427800Y-85925125D01*
X155427800Y-85925125D02*
X155380180Y-86020363D01*
X155380180Y-86020363D02*
X155380180Y-86306077D01*
X155380180Y-86306077D02*
X155427800Y-86401315D01*
X155427800Y-86401315D02*
X155475419Y-86448934D01*
X156380180Y-85544172D02*
X155380180Y-85210839D01*
X155380180Y-85210839D02*
X156380180Y-84877506D01*
X156380180Y-84639410D02*
X156380180Y-84020363D01*
X156380180Y-84020363D02*
X155999228Y-84353696D01*
X155999228Y-84353696D02*
X155999228Y-84210839D01*
X155999228Y-84210839D02*
X155951609Y-84115601D01*
X155951609Y-84115601D02*
X155903990Y-84067982D01*
X155903990Y-84067982D02*
X155808752Y-84020363D01*
X155808752Y-84020363D02*
X155570657Y-84020363D01*
X155570657Y-84020363D02*
X155475419Y-84067982D01*
X155475419Y-84067982D02*
X155427800Y-84115601D01*
X155427800Y-84115601D02*
X155380180Y-84210839D01*
X155380180Y-84210839D02*
X155380180Y-84496553D01*
X155380180Y-84496553D02*
X155427800Y-84591791D01*
X155427800Y-84591791D02*
X155475419Y-84639410D01*
X155427800Y-82877505D02*
X155380180Y-82734648D01*
X155380180Y-82734648D02*
X155380180Y-82496553D01*
X155380180Y-82496553D02*
X155427800Y-82401315D01*
X155427800Y-82401315D02*
X155475419Y-82353696D01*
X155475419Y-82353696D02*
X155570657Y-82306077D01*
X155570657Y-82306077D02*
X155665895Y-82306077D01*
X155665895Y-82306077D02*
X155761133Y-82353696D01*
X155761133Y-82353696D02*
X155808752Y-82401315D01*
X155808752Y-82401315D02*
X155856371Y-82496553D01*
X155856371Y-82496553D02*
X155903990Y-82687029D01*
X155903990Y-82687029D02*
X155951609Y-82782267D01*
X155951609Y-82782267D02*
X155999228Y-82829886D01*
X155999228Y-82829886D02*
X156094466Y-82877505D01*
X156094466Y-82877505D02*
X156189704Y-82877505D01*
X156189704Y-82877505D02*
X156284942Y-82829886D01*
X156284942Y-82829886D02*
X156332561Y-82782267D01*
X156332561Y-82782267D02*
X156380180Y-82687029D01*
X156380180Y-82687029D02*
X156380180Y-82448934D01*
X156380180Y-82448934D02*
X156332561Y-82306077D01*
X155475419Y-81306077D02*
X155427800Y-81353696D01*
X155427800Y-81353696D02*
X155380180Y-81496553D01*
X155380180Y-81496553D02*
X155380180Y-81591791D01*
X155380180Y-81591791D02*
X155427800Y-81734648D01*
X155427800Y-81734648D02*
X155523038Y-81829886D01*
X155523038Y-81829886D02*
X155618276Y-81877505D01*
X155618276Y-81877505D02*
X155808752Y-81925124D01*
X155808752Y-81925124D02*
X155951609Y-81925124D01*
X155951609Y-81925124D02*
X156142085Y-81877505D01*
X156142085Y-81877505D02*
X156237323Y-81829886D01*
X156237323Y-81829886D02*
X156332561Y-81734648D01*
X156332561Y-81734648D02*
X156380180Y-81591791D01*
X156380180Y-81591791D02*
X156380180Y-81496553D01*
X156380180Y-81496553D02*
X156332561Y-81353696D01*
X156332561Y-81353696D02*
X156284942Y-81306077D01*
X155380180Y-80401315D02*
X155380180Y-80877505D01*
X155380180Y-80877505D02*
X156380180Y-80877505D01*
X155427800Y-79353695D02*
X155380180Y-79210838D01*
X155380180Y-79210838D02*
X155380180Y-78972743D01*
X155380180Y-78972743D02*
X155427800Y-78877505D01*
X155427800Y-78877505D02*
X155475419Y-78829886D01*
X155475419Y-78829886D02*
X155570657Y-78782267D01*
X155570657Y-78782267D02*
X155665895Y-78782267D01*
X155665895Y-78782267D02*
X155761133Y-78829886D01*
X155761133Y-78829886D02*
X155808752Y-78877505D01*
X155808752Y-78877505D02*
X155856371Y-78972743D01*
X155856371Y-78972743D02*
X155903990Y-79163219D01*
X155903990Y-79163219D02*
X155951609Y-79258457D01*
X155951609Y-79258457D02*
X155999228Y-79306076D01*
X155999228Y-79306076D02*
X156094466Y-79353695D01*
X156094466Y-79353695D02*
X156189704Y-79353695D01*
X156189704Y-79353695D02*
X156284942Y-79306076D01*
X156284942Y-79306076D02*
X156332561Y-79258457D01*
X156332561Y-79258457D02*
X156380180Y-79163219D01*
X156380180Y-79163219D02*
X156380180Y-78925124D01*
X156380180Y-78925124D02*
X156332561Y-78782267D01*
X155380180Y-78353695D02*
X156380180Y-78353695D01*
X156380180Y-78353695D02*
X156380180Y-78115600D01*
X156380180Y-78115600D02*
X156332561Y-77972743D01*
X156332561Y-77972743D02*
X156237323Y-77877505D01*
X156237323Y-77877505D02*
X156142085Y-77829886D01*
X156142085Y-77829886D02*
X155951609Y-77782267D01*
X155951609Y-77782267D02*
X155808752Y-77782267D01*
X155808752Y-77782267D02*
X155618276Y-77829886D01*
X155618276Y-77829886D02*
X155523038Y-77877505D01*
X155523038Y-77877505D02*
X155427800Y-77972743D01*
X155427800Y-77972743D02*
X155380180Y-78115600D01*
X155380180Y-78115600D02*
X155380180Y-78353695D01*
X155665895Y-77401314D02*
X155665895Y-76925124D01*
X155380180Y-77496552D02*
X156380180Y-77163219D01*
X156380180Y-77163219D02*
X155380180Y-76829886D01*
D12*
X148515114Y-97304510D02*
X148586542Y-97518796D01*
X148586542Y-97518796D02*
X148657971Y-97590225D01*
X148657971Y-97590225D02*
X148800828Y-97661653D01*
X148800828Y-97661653D02*
X149015114Y-97661653D01*
X149015114Y-97661653D02*
X149157971Y-97590225D01*
X149157971Y-97590225D02*
X149229400Y-97518796D01*
X149229400Y-97518796D02*
X149300828Y-97375939D01*
X149300828Y-97375939D02*
X149300828Y-96804510D01*
X149300828Y-96804510D02*
X147800828Y-96804510D01*
X147800828Y-96804510D02*
X147800828Y-97304510D01*
X147800828Y-97304510D02*
X147872257Y-97447368D01*
X147872257Y-97447368D02*
X147943685Y-97518796D01*
X147943685Y-97518796D02*
X148086542Y-97590225D01*
X148086542Y-97590225D02*
X148229400Y-97590225D01*
X148229400Y-97590225D02*
X148372257Y-97518796D01*
X148372257Y-97518796D02*
X148443685Y-97447368D01*
X148443685Y-97447368D02*
X148515114Y-97304510D01*
X148515114Y-97304510D02*
X148515114Y-96804510D01*
X149300828Y-98947368D02*
X148515114Y-98947368D01*
X148515114Y-98947368D02*
X148372257Y-98875939D01*
X148372257Y-98875939D02*
X148300828Y-98733082D01*
X148300828Y-98733082D02*
X148300828Y-98447368D01*
X148300828Y-98447368D02*
X148372257Y-98304510D01*
X149229400Y-98947368D02*
X149300828Y-98804510D01*
X149300828Y-98804510D02*
X149300828Y-98447368D01*
X149300828Y-98447368D02*
X149229400Y-98304510D01*
X149229400Y-98304510D02*
X149086542Y-98233082D01*
X149086542Y-98233082D02*
X148943685Y-98233082D01*
X148943685Y-98233082D02*
X148800828Y-98304510D01*
X148800828Y-98304510D02*
X148729400Y-98447368D01*
X148729400Y-98447368D02*
X148729400Y-98804510D01*
X148729400Y-98804510D02*
X148657971Y-98947368D01*
X148300828Y-99447368D02*
X148300828Y-100018796D01*
X147800828Y-99661653D02*
X149086542Y-99661653D01*
X149086542Y-99661653D02*
X149229400Y-99733082D01*
X149229400Y-99733082D02*
X149300828Y-99875939D01*
X149300828Y-99875939D02*
X149300828Y-100018796D01*
X148300828Y-100304511D02*
X148300828Y-100875939D01*
X147800828Y-100518796D02*
X149086542Y-100518796D01*
X149086542Y-100518796D02*
X149229400Y-100590225D01*
X149229400Y-100590225D02*
X149300828Y-100733082D01*
X149300828Y-100733082D02*
X149300828Y-100875939D01*
X149229400Y-101947368D02*
X149300828Y-101804511D01*
X149300828Y-101804511D02*
X149300828Y-101518797D01*
X149300828Y-101518797D02*
X149229400Y-101375939D01*
X149229400Y-101375939D02*
X149086542Y-101304511D01*
X149086542Y-101304511D02*
X148515114Y-101304511D01*
X148515114Y-101304511D02*
X148372257Y-101375939D01*
X148372257Y-101375939D02*
X148300828Y-101518797D01*
X148300828Y-101518797D02*
X148300828Y-101804511D01*
X148300828Y-101804511D02*
X148372257Y-101947368D01*
X148372257Y-101947368D02*
X148515114Y-102018797D01*
X148515114Y-102018797D02*
X148657971Y-102018797D01*
X148657971Y-102018797D02*
X148800828Y-101304511D01*
X149300828Y-102661653D02*
X148300828Y-102661653D01*
X148586542Y-102661653D02*
X148443685Y-102733082D01*
X148443685Y-102733082D02*
X148372257Y-102804511D01*
X148372257Y-102804511D02*
X148300828Y-102947368D01*
X148300828Y-102947368D02*
X148300828Y-103090225D01*
X148300828Y-103447367D02*
X149300828Y-103804510D01*
X148300828Y-104161653D02*
X149300828Y-103804510D01*
X149300828Y-103804510D02*
X149657971Y-103661653D01*
X149657971Y-103661653D02*
X149729400Y-103590224D01*
X149729400Y-103590224D02*
X149800828Y-103447367D01*
X154020600Y-102445489D02*
X154020600Y-101302632D01*
X153449171Y-101874060D02*
X154592028Y-101874060D01*
X154020600Y-99445489D02*
X154020600Y-98302632D01*
%LPC*%
D14*
%TO.C,Boot*%
X134250000Y-125250000D03*
X134250000Y-118750000D03*
X138750000Y-125250000D03*
X138750000Y-118750000D03*
%TD*%
D15*
%TO.C,Battery1*%
X151500000Y-101775000D03*
D16*
X151500000Y-99235000D03*
%TD*%
D14*
%TO.C,Reset*%
X155250000Y-125250000D03*
X155250000Y-118750000D03*
X159750000Y-125250000D03*
X159750000Y-118750000D03*
%TD*%
D15*
%TO.C,Output1*%
X159250000Y-87310000D03*
D16*
X159250000Y-84770000D03*
X159250000Y-82230000D03*
X159250000Y-79690000D03*
%TD*%
D17*
%TO.C,USB C*%
X144110000Y-121820000D03*
X149890000Y-121820000D03*
D18*
X142680000Y-121320000D03*
X151320000Y-121320000D03*
D19*
X142680000Y-125500000D03*
X151320000Y-125500000D03*
%TD*%
D15*
%TO.C,OLED*%
X143440000Y-90250000D03*
D16*
X145980000Y-90250000D03*
X148520000Y-90250000D03*
X151060000Y-90250000D03*
%TD*%
%LPD*%
M02*
