M48
; DRILL file KiCad 10.0.1 date 2026-05-26T21:43:37
; FORMAT={-:-/ absolute / metric / decimal}
; #@! TF.CreationDate,2026-05-26T21:43:37-05:00
; #@! TF.GenerationSoftware,Kicad,Pcbnew,10.0.1
; #@! TF.FileFunction,Plated,1,4,PTH
FMAT,2
METRIC
; #@! TA.AperFunction,Plated,PTH,ViaDrill
T1C0.300
; #@! TA.AperFunction,Plated,PTH,ComponentDrill
T2C0.300
; #@! TA.AperFunction,Plated,PTH,ComponentDrill
T3C0.600
; #@! TA.AperFunction,Plated,PTH,ComponentDrill
T4C1.000
; #@! TA.AperFunction,Plated,PTH,ComponentDrill
T5C1.100
%
G90
G05
T1
X133.0Y-76.75
X133.0Y-80.5
X133.0Y-84.25
X133.0Y-88.25
X133.0Y-92.0
X133.0Y-95.75
X133.25Y-117.75
X133.5Y-126.5
X133.75Y-68.75
X133.75Y-73.25
X134.5Y-71.0
X134.5Y-97.25
X134.5Y-100.5
X134.5Y-105.25
X134.5Y-108.0
X134.5Y-112.5
X134.5Y-121.75
X135.5Y-100.5
X135.5Y-118.25
X135.75Y-114.25
X136.75Y-71.75
X136.75Y-82.75
X136.75Y-97.5
X137.25Y-70.75
X137.5Y-114.25
X138.0Y-97.5
X138.25Y-121.75
X138.5Y-115.5
X138.75Y-112.5
X138.75Y-116.75
X139.25Y-92.0
X139.5Y-110.75
X140.0Y-68.75
X140.0Y-88.0
X140.0Y-101.75
X140.0Y-105.25
X140.25Y-95.5
X141.0Y-68.0
X141.0Y-70.25
X141.0Y-72.0
X141.0Y-74.25
X141.0Y-76.25
X141.0Y-78.5
X141.0Y-80.5
X141.0Y-82.5
X141.0Y-84.5
X141.0Y-125.5
X141.25Y-121.25
X141.674Y-90.5
X142.0Y-111.0
X142.25Y-88.0
X142.75Y-68.0
X142.75Y-70.25
X142.75Y-72.0
X142.75Y-74.25
X142.75Y-76.25
X142.75Y-78.5
X142.75Y-80.5
X142.75Y-82.5
X142.75Y-84.5
X143.0Y-112.25
X143.0Y-119.75
X143.25Y-95.75
X143.25Y-97.75
X143.25Y-108.0
X143.5Y-88.75
X143.5Y-92.0
X143.5Y-101.75
X143.5Y-105.25
X143.5Y-122.5
X143.5Y-126.75
X144.25Y-116.75
X144.5Y-68.0
X144.5Y-70.25
X144.5Y-72.0
X144.5Y-73.5
X144.5Y-79.25
X144.5Y-80.5
X144.5Y-82.5
X144.5Y-84.5
X144.5Y-87.75
X144.5Y-118.75
X144.75Y-110.75
X144.75Y-119.5
X145.25Y-91.75
X145.25Y-117.5
X145.5Y-124.5
X145.75Y-97.5
X146.0Y-114.5
X146.0Y-115.5
X146.25Y-68.0
X146.25Y-70.25
X146.25Y-72.0
X146.25Y-73.5
X146.25Y-79.25
X146.25Y-80.5
X146.25Y-81.5
X146.25Y-101.75
X146.25Y-105.25
X146.25Y-108.0
X146.25Y-109.5
X146.25Y-118.5
X146.5Y-85.0
X146.5Y-92.0
X147.046Y-94.454
X147.25Y-79.25
X147.25Y-80.5
X147.25Y-115.5
X147.75Y-85.0
X148.0Y-68.0
X148.0Y-70.25
X148.0Y-72.0
X148.25Y-79.25
X148.5Y-74.25
X148.5Y-76.0
X148.5Y-78.25
X148.5Y-82.5
X148.75Y-124.5
X149.0Y-95.0
X149.0Y-96.75
X149.0Y-101.75
X149.0Y-105.25
X149.0Y-111.5
X149.25Y-81.0
X149.5Y-119.5
X149.75Y-68.0
X149.75Y-70.25
X149.75Y-72.0
X149.75Y-116.75
X150.25Y-74.25
X150.25Y-76.0
X150.25Y-78.25
X150.25Y-119.25
X150.5Y-122.5
X150.5Y-126.75
X150.652Y-98.0
X150.75Y-84.25
X151.0Y-108.0
X151.0Y-119.75
X151.75Y-68.0
X151.75Y-70.25
X151.75Y-72.0
X151.75Y-74.25
X151.75Y-76.0
X151.75Y-78.25
X152.0Y-96.25
X152.0Y-105.5
X152.25Y-98.0
X152.25Y-107.0
X152.5Y-111.0
X152.75Y-100.0
X152.75Y-119.25
X152.75Y-125.5
X153.0Y-84.25
X153.25Y-81.0
X153.25Y-97.75
X153.5Y-68.0
X153.5Y-70.25
X153.5Y-72.0
X153.5Y-74.25
X153.5Y-76.0
X153.5Y-78.25
X153.5Y-92.5
X153.5Y-111.75
X153.75Y-95.5
X154.25Y-68.5
X154.25Y-117.5
X154.25Y-126.5
X155.5Y-86.0
X155.5Y-104.5
X155.5Y-123.25
X156.0Y-109.25
X156.0Y-112.5
X157.0Y-89.25
X157.0Y-114.25
X157.0Y-118.5
X157.25Y-116.5
X157.5Y-79.75
X157.5Y-82.25
X157.75Y-68.5
X158.0Y-86.75
X158.0Y-93.75
X158.25Y-89.25
X158.25Y-97.25
X158.5Y-99.0
X158.5Y-114.25
X159.25Y-70.0
X159.25Y-73.5
X159.25Y-76.25
X159.25Y-89.25
X159.5Y-94.75
X159.5Y-95.5
X159.75Y-121.75
X160.25Y-89.25
X160.25Y-112.5
X160.5Y-87.0
X160.5Y-94.0
X160.75Y-113.25
X161.0Y-99.0
T2
X144.2Y-75.6
X144.2Y-77.0
X144.9Y-74.9
X144.9Y-76.3
X144.9Y-77.7
X145.6Y-75.6
X145.6Y-77.0
X146.3Y-74.9
X146.3Y-76.3
X146.3Y-77.7
X147.0Y-75.6
X147.0Y-77.0
T4
X143.44Y-90.25
X145.98Y-90.25
X148.52Y-90.25
X151.06Y-90.25
X151.5Y-99.235
X151.5Y-101.775
X159.25Y-79.69
X159.25Y-82.23
X159.25Y-84.77
X159.25Y-87.31
T5
X134.25Y-118.75
X134.25Y-125.25
X138.75Y-118.75
X138.75Y-125.25
X155.25Y-118.75
X155.25Y-125.25
X159.75Y-118.75
X159.75Y-125.25
T3
G00X142.68Y-120.77
M15
G01X142.68Y-121.87
M16
G05
G00X142.68Y-125.1
M15
G01X142.68Y-125.9
M16
G05
G00X151.32Y-120.77
M15
G01X151.32Y-121.87
M16
G05
G00X151.32Y-125.1
M15
G01X151.32Y-125.9
M16
G05
M30
