%TF.GenerationSoftware,KiCad,Pcbnew,10.0.1*%
%TF.CreationDate,2026-05-26T21:43:27-05:00*%
%TF.ProjectId,Meshtastic_LoRa,4d657368-7461-4737-9469-635f4c6f5261,rev?*%
%TF.SameCoordinates,Original*%
%TF.FileFunction,Copper,L3,Inr*%
%TF.FilePolarity,Positive*%
%FSLAX46Y46*%
G04 Gerber Fmt 4.6, Leading zero omitted, Abs format (unit mm)*
G04 Created by KiCad (PCBNEW 10.0.1) date 2026-05-26 21:43:27*
%MOMM*%
%LPD*%
G01*
G04 APERTURE LIST*
%TA.AperFunction,ComponentPad*%
%ADD10C,2.000000*%
%TD*%
%TA.AperFunction,ComponentPad*%
%ADD11R,1.700000X1.700000*%
%TD*%
%TA.AperFunction,ComponentPad*%
%ADD12C,1.700000*%
%TD*%
%TA.AperFunction,ComponentPad*%
%ADD13O,1.000000X2.100000*%
%TD*%
%TA.AperFunction,ComponentPad*%
%ADD14O,1.000000X1.800000*%
%TD*%
%TA.AperFunction,HeatsinkPad*%
%ADD15C,0.600000*%
%TD*%
%TA.AperFunction,ViaPad*%
%ADD16C,0.600000*%
%TD*%
G04 APERTURE END LIST*
D10*
%TO.N,GND*%
%TO.C,Boot*%
X134250000Y-125250000D03*
X134250000Y-118750000D03*
%TO.N,Net-(U1-IO0)*%
X138750000Y-125250000D03*
X138750000Y-118750000D03*
%TD*%
D11*
%TO.N,+BATT*%
%TO.C,Battery1*%
X151500000Y-101775000D03*
D12*
%TO.N,GND*%
X151500000Y-99235000D03*
%TD*%
D10*
%TO.N,GND*%
%TO.C,Reset*%
X155250000Y-125250000D03*
X155250000Y-118750000D03*
%TO.N,Net-(U1-EN)*%
X159750000Y-125250000D03*
X159750000Y-118750000D03*
%TD*%
D11*
%TO.N,GND*%
%TO.C,Output1*%
X159250000Y-87310000D03*
D12*
%TO.N,+3V3*%
X159250000Y-84770000D03*
%TO.N,/SCL*%
X159250000Y-82230000D03*
%TO.N,/SDA*%
X159250000Y-79690000D03*
%TD*%
D13*
%TO.N,GND*%
%TO.C,USB C*%
X142680000Y-121320000D03*
X151320000Y-121320000D03*
D14*
X142680000Y-125500000D03*
X151320000Y-125500000D03*
%TD*%
D11*
%TO.N,GND*%
%TO.C,OLED*%
X143440000Y-90250000D03*
D12*
%TO.N,+3V3*%
X145980000Y-90250000D03*
%TO.N,/SCL*%
X148520000Y-90250000D03*
%TO.N,/SDA*%
X151060000Y-90250000D03*
%TD*%
D15*
%TO.N,GND*%
%TO.C,ESP32-S3*%
X144200000Y-75600000D03*
X144200000Y-77000000D03*
X144900000Y-74900000D03*
X144900000Y-76300000D03*
X144900000Y-77700000D03*
X145600000Y-75600000D03*
X145600000Y-77000000D03*
X146300000Y-74900000D03*
X146300000Y-76300000D03*
X146300000Y-77700000D03*
X147000000Y-75600000D03*
X147000000Y-77000000D03*
%TD*%
D16*
%TO.N,+3V3*%
X137500000Y-114250000D03*
X160250000Y-89250000D03*
X157000000Y-89250000D03*
X138500000Y-115500000D03*
X159500000Y-95500000D03*
X159500000Y-94750000D03*
X158500000Y-99000000D03*
X157250000Y-116500000D03*
X136750000Y-71750000D03*
X158250000Y-89250000D03*
X160500000Y-94000000D03*
X145250000Y-91750000D03*
X158000000Y-93750000D03*
X146500000Y-92000000D03*
X159250000Y-89250000D03*
X134500000Y-97250000D03*
X134500000Y-71000000D03*
X157000000Y-114250000D03*
X134500000Y-100500000D03*
%TO.N,GND*%
X143250000Y-95750000D03*
X146250000Y-68000000D03*
X143500000Y-101750000D03*
X151750000Y-76000000D03*
X153250000Y-81000000D03*
X158000000Y-86750000D03*
X149750000Y-72000000D03*
X146250000Y-108000000D03*
X150250000Y-76000000D03*
X138250000Y-121750000D03*
X153250000Y-97750000D03*
X146250000Y-80500000D03*
X155500000Y-104500000D03*
X140250000Y-95500000D03*
X152250000Y-107000000D03*
X141000000Y-74250000D03*
X142750000Y-80500000D03*
X135500000Y-100500000D03*
X151750000Y-70250000D03*
X150250000Y-78250000D03*
X145750000Y-97500000D03*
X154250000Y-117500000D03*
X142750000Y-70250000D03*
X142750000Y-76250000D03*
X152750000Y-100000000D03*
X161000000Y-99000000D03*
X141000000Y-76250000D03*
X149000000Y-101750000D03*
X151750000Y-72000000D03*
X149000000Y-111500000D03*
X154250000Y-68500000D03*
X146250000Y-105250000D03*
X152000000Y-96250000D03*
X146250000Y-70250000D03*
X149750000Y-70250000D03*
X155500000Y-123250000D03*
X146250000Y-101750000D03*
X143500000Y-92000000D03*
X142750000Y-72000000D03*
X143500000Y-122500000D03*
X152750000Y-125500000D03*
X150500000Y-122500000D03*
X151000000Y-108000000D03*
X134500000Y-108000000D03*
X141000000Y-68000000D03*
X133250000Y-117750000D03*
X138750000Y-116750000D03*
X148500000Y-82500000D03*
X144500000Y-82500000D03*
X144500000Y-84500000D03*
X148000000Y-70250000D03*
X159750000Y-121750000D03*
X139250000Y-92000000D03*
X150250000Y-74250000D03*
X147045732Y-94454268D03*
X151750000Y-74250000D03*
X140000000Y-105250000D03*
X146250000Y-73500000D03*
X149000000Y-96750000D03*
X141000000Y-80500000D03*
X156000000Y-112500000D03*
X141000000Y-82500000D03*
X146250000Y-72000000D03*
X153000000Y-84250000D03*
X152250000Y-98000000D03*
X149750000Y-68000000D03*
X141000000Y-125500000D03*
X134500000Y-112500000D03*
X141000000Y-78500000D03*
X159250000Y-70000000D03*
X143000000Y-119750000D03*
X141673800Y-90500000D03*
X145500000Y-124500000D03*
X134500000Y-105250000D03*
X150500000Y-126750000D03*
X144500000Y-73500000D03*
X160500000Y-87000000D03*
X160750000Y-113250000D03*
X144750000Y-110750000D03*
X153500000Y-92500000D03*
X151750000Y-78250000D03*
X149750000Y-116750000D03*
X149000000Y-95000000D03*
X148500000Y-76000000D03*
X150750000Y-84250000D03*
X144500000Y-79250000D03*
X153750000Y-95500000D03*
X153500000Y-70250000D03*
X141250000Y-121250000D03*
X133750000Y-68750000D03*
X153500000Y-72000000D03*
X144500000Y-70250000D03*
X153500000Y-78250000D03*
X143500000Y-105250000D03*
X148250000Y-79250000D03*
X144250000Y-116750000D03*
X160250000Y-112500000D03*
X133000000Y-76750000D03*
X146250000Y-109500000D03*
X148000000Y-72000000D03*
X148500000Y-74250000D03*
X151000000Y-119750000D03*
X149000000Y-105250000D03*
X153500000Y-68000000D03*
X133000000Y-80500000D03*
X157000000Y-118500000D03*
X133000000Y-84250000D03*
X146250000Y-79250000D03*
X148500000Y-78250000D03*
X133000000Y-95750000D03*
X144500000Y-72000000D03*
X147250000Y-80500000D03*
X135500000Y-118250000D03*
X133000000Y-88250000D03*
X154250000Y-126500000D03*
X143250000Y-108000000D03*
X144500000Y-68000000D03*
X146250000Y-81500000D03*
X143000000Y-112250000D03*
X159250000Y-73500000D03*
X152000000Y-105500000D03*
X140000000Y-101750000D03*
X133500000Y-126500000D03*
X153500000Y-74250000D03*
X141000000Y-70250000D03*
X141000000Y-84500000D03*
X142750000Y-82500000D03*
X142750000Y-74250000D03*
X143500000Y-126750000D03*
X142750000Y-68000000D03*
X152750000Y-119250000D03*
X133750000Y-73250000D03*
X157750000Y-68500000D03*
X153500000Y-76000000D03*
X148000000Y-68000000D03*
X142750000Y-78500000D03*
X134500000Y-121750000D03*
X144500000Y-80500000D03*
X139500000Y-110750000D03*
X159250000Y-76250000D03*
X142750000Y-84500000D03*
X138750000Y-112500000D03*
X151750000Y-68000000D03*
X147250000Y-115500000D03*
X140000000Y-68750000D03*
X150652400Y-98000000D03*
X143500000Y-88750000D03*
X148750000Y-124500000D03*
X133000000Y-92000000D03*
X147250000Y-79250000D03*
X149250000Y-81000000D03*
X141000000Y-72000000D03*
X158250000Y-97250000D03*
X156000000Y-109250000D03*
%TO.N,+5V*%
X144750000Y-119500000D03*
X150250000Y-119250000D03*
X153500000Y-111750000D03*
X152500000Y-111000000D03*
X145250000Y-117500000D03*
X144500000Y-118750000D03*
X149500000Y-119500000D03*
X146250000Y-118500000D03*
X146000000Y-115500000D03*
X146000000Y-114500000D03*
%TO.N,Net-(U1-IO0)*%
X135750000Y-114250000D03*
X155500000Y-86000000D03*
%TO.N,Net-(U1-EN)*%
X137250000Y-70750000D03*
X158500000Y-114250000D03*
%TO.N,/SCL*%
X147750000Y-85000000D03*
X157500000Y-82250000D03*
%TO.N,/SDA*%
X157500000Y-79750000D03*
X146500000Y-85000000D03*
%TO.N,/RF_SW1*%
X144500000Y-87750000D03*
X143250000Y-97750000D03*
%TO.N,/RESET*%
X138000000Y-97500000D03*
X140000000Y-88000000D03*
%TO.N,/NSS*%
X136750000Y-82750000D03*
X136750000Y-97500000D03*
%TO.N,/DIO1*%
X142250000Y-88000000D03*
X142000000Y-111000000D03*
%TD*%
%TA.AperFunction,Conductor*%
%TO.N,+5V*%
G36*
X151750987Y-107255076D02*
G01*
X151772981Y-107260969D01*
X151832662Y-107292869D01*
X151841969Y-107301031D01*
X151848447Y-107306712D01*
X151855546Y-107313361D01*
X151941186Y-107399000D01*
X151942686Y-107400500D01*
X152056814Y-107466392D01*
X152184108Y-107500500D01*
X152315892Y-107500500D01*
X152443186Y-107466392D01*
X152557314Y-107400500D01*
X152607361Y-107350452D01*
X152641876Y-107315938D01*
X152656517Y-107303099D01*
X152658543Y-107301544D01*
X152658544Y-107301545D01*
X152683372Y-107282492D01*
X152745008Y-107254565D01*
X152753572Y-107252861D01*
X152782634Y-107250000D01*
X155828837Y-107250000D01*
X155867400Y-107255077D01*
X155882870Y-107259222D01*
X155949665Y-107297785D01*
X155988230Y-107364579D01*
X155988230Y-107364583D01*
X155992062Y-107378885D01*
X155997118Y-107419970D01*
X155995754Y-107500497D01*
X155995754Y-107500499D01*
X155977005Y-108606668D01*
X155971275Y-108645140D01*
X155966436Y-108662048D01*
X155926746Y-108728180D01*
X155926742Y-108728183D01*
X155921142Y-108733596D01*
X155856157Y-108770385D01*
X155825768Y-108778529D01*
X155805798Y-108781158D01*
X155789820Y-108793419D01*
X155692688Y-108849497D01*
X155599496Y-108942689D01*
X155599495Y-108942691D01*
X155566699Y-108999498D01*
X155566698Y-108999499D01*
X155533609Y-109056810D01*
X155533608Y-109056814D01*
X155517778Y-109115890D01*
X155517777Y-109115891D01*
X155499500Y-109184102D01*
X155499500Y-109315895D01*
X155533607Y-109443185D01*
X155543155Y-109459722D01*
X155599497Y-109557310D01*
X155599498Y-109557311D01*
X155599500Y-109557314D01*
X155692686Y-109650500D01*
X155806814Y-109716392D01*
X155826176Y-109721579D01*
X155862109Y-109736463D01*
X155877340Y-109745256D01*
X155931880Y-109799792D01*
X155931890Y-109799810D01*
X155935344Y-109805794D01*
X155954180Y-109862060D01*
X155954266Y-109862758D01*
X155955363Y-109883503D01*
X155921668Y-111871495D01*
X155915938Y-111909967D01*
X155911099Y-111926875D01*
X155871409Y-111993007D01*
X155871405Y-111993011D01*
X155865806Y-111998423D01*
X155812895Y-112028391D01*
X155813860Y-112030933D01*
X155806822Y-112033603D01*
X155806809Y-112033610D01*
X155692688Y-112099497D01*
X155599496Y-112192689D01*
X155533609Y-112306810D01*
X155499500Y-112434105D01*
X155499500Y-112565895D01*
X155533607Y-112693185D01*
X155543155Y-112709722D01*
X155599497Y-112807310D01*
X155599498Y-112807311D01*
X155599500Y-112807314D01*
X155692686Y-112900500D01*
X155692688Y-112900501D01*
X155692689Y-112900502D01*
X155801969Y-112963595D01*
X155818165Y-112974416D01*
X155838268Y-112989839D01*
X155885224Y-113051022D01*
X155889178Y-113060565D01*
X155900505Y-113120124D01*
X155827068Y-117452949D01*
X155821338Y-117491420D01*
X155816931Y-117506819D01*
X155816929Y-117506822D01*
X155816929Y-117506825D01*
X155808492Y-117520881D01*
X155777241Y-117572951D01*
X155777238Y-117572952D01*
X155777237Y-117572955D01*
X155749210Y-117588508D01*
X155709803Y-117610378D01*
X155709797Y-117610380D01*
X155705314Y-117611500D01*
X155644644Y-117613906D01*
X155642651Y-117613573D01*
X155628866Y-117610201D01*
X155628197Y-117610190D01*
X155627768Y-117609932D01*
X155621162Y-117608317D01*
X155531133Y-117579064D01*
X155531110Y-117579058D01*
X155530698Y-117578955D01*
X155528578Y-117578657D01*
X155492277Y-117572908D01*
X155492276Y-117572908D01*
X155344481Y-117549500D01*
X155344476Y-117549500D01*
X155155522Y-117549500D01*
X155155519Y-117549500D01*
X155059828Y-117564655D01*
X155027930Y-117569707D01*
X155027929Y-117569706D01*
X154985203Y-117576474D01*
X154985194Y-117576475D01*
X154968886Y-117579059D01*
X154968883Y-117579059D01*
X154968882Y-117579060D01*
X154957998Y-117582596D01*
X154950645Y-117584251D01*
X154942371Y-117583916D01*
X154925726Y-117587682D01*
X154909953Y-117588508D01*
X154875647Y-117581214D01*
X154873580Y-117581131D01*
X154872732Y-117580594D01*
X154834511Y-117572469D01*
X154777211Y-117520881D01*
X154775053Y-117517559D01*
X154752832Y-117459662D01*
X154752329Y-117456481D01*
X154750605Y-117434557D01*
X154750500Y-117434112D01*
X154750500Y-117434108D01*
X154750499Y-117434106D01*
X154750495Y-117434092D01*
X154747823Y-117422770D01*
X154746593Y-117419528D01*
X154716394Y-117306820D01*
X154716392Y-117306815D01*
X154716392Y-117306814D01*
X154650500Y-117192686D01*
X154557314Y-117099500D01*
X154557311Y-117099498D01*
X154557310Y-117099497D01*
X154557309Y-117099496D01*
X154484239Y-117057310D01*
X154468635Y-117048301D01*
X154443186Y-117033608D01*
X154315892Y-116999500D01*
X154184104Y-116999500D01*
X154085195Y-117026003D01*
X154085192Y-117026004D01*
X154056814Y-117033608D01*
X154056812Y-117033608D01*
X154056812Y-117033609D01*
X154031367Y-117048299D01*
X154031363Y-117048301D01*
X153942688Y-117099497D01*
X153849496Y-117192689D01*
X153835813Y-117216390D01*
X153806992Y-117266311D01*
X153802255Y-117274516D01*
X153783608Y-117306812D01*
X153775693Y-117336352D01*
X153767778Y-117365890D01*
X153767777Y-117365891D01*
X153749500Y-117434102D01*
X153749500Y-117565895D01*
X153783607Y-117693185D01*
X153793155Y-117709722D01*
X153849497Y-117807310D01*
X153849498Y-117807311D01*
X153849500Y-117807314D01*
X153942686Y-117900500D01*
X154056814Y-117966392D01*
X154075798Y-117971478D01*
X154111723Y-117986358D01*
X154125599Y-117994369D01*
X154180136Y-118048902D01*
X154200101Y-118123401D01*
X154200101Y-118130440D01*
X154183861Y-118198085D01*
X154137462Y-118289146D01*
X154137452Y-118289169D01*
X154097011Y-118413632D01*
X154079060Y-118468882D01*
X154049500Y-118655519D01*
X154049500Y-118844481D01*
X154079060Y-119031118D01*
X154137453Y-119210832D01*
X154223240Y-119379199D01*
X154334310Y-119532073D01*
X154467927Y-119665690D01*
X154620801Y-119776760D01*
X154789168Y-119862547D01*
X154968882Y-119920940D01*
X155155519Y-119950500D01*
X155155524Y-119950500D01*
X155344476Y-119950500D01*
X155344481Y-119950500D01*
X155531118Y-119920940D01*
X155569432Y-119908490D01*
X155607672Y-119901402D01*
X155623668Y-119900564D01*
X155699110Y-119916600D01*
X155756418Y-119968195D01*
X155758216Y-119970963D01*
X155780622Y-120030075D01*
X155781276Y-120034445D01*
X155782896Y-120059023D01*
X155763143Y-121224538D01*
X155752815Y-121833910D01*
X155747085Y-121872383D01*
X155742567Y-121888169D01*
X155702876Y-121954301D01*
X155636664Y-121991415D01*
X155621875Y-121995244D01*
X155584529Y-122000000D01*
X152189116Y-122000000D01*
X152150549Y-121994922D01*
X152137460Y-121991415D01*
X152135076Y-121990776D01*
X152110627Y-121976658D01*
X152068283Y-121952210D01*
X152029721Y-121885414D01*
X152025576Y-121869943D01*
X152020500Y-121831383D01*
X152020500Y-120701010D01*
X152020500Y-120701006D01*
X151993580Y-120565674D01*
X151993579Y-120565670D01*
X151940775Y-120438190D01*
X151940772Y-120438184D01*
X151864116Y-120323461D01*
X151864114Y-120323458D01*
X151864113Y-120323457D01*
X151864111Y-120323454D01*
X151766550Y-120225893D01*
X151766545Y-120225889D01*
X151766542Y-120225886D01*
X151766538Y-120225883D01*
X151740226Y-120208302D01*
X151673420Y-120163663D01*
X151673419Y-120163662D01*
X151651815Y-120149227D01*
X151651813Y-120149225D01*
X151570981Y-120115744D01*
X151567954Y-120114328D01*
X151564789Y-120111666D01*
X151540386Y-120097577D01*
X151526429Y-120086867D01*
X151510262Y-120065800D01*
X151508930Y-120064679D01*
X151508506Y-120063511D01*
X151479479Y-120025684D01*
X151478526Y-120023383D01*
X151467511Y-119956640D01*
X151467914Y-119950500D01*
X151468081Y-119947938D01*
X151472839Y-119919121D01*
X151500500Y-119815892D01*
X151500500Y-119684108D01*
X151466392Y-119556814D01*
X151466390Y-119556811D01*
X151466390Y-119556809D01*
X151416360Y-119470157D01*
X151416359Y-119470156D01*
X151402720Y-119446530D01*
X151400938Y-119443219D01*
X151400659Y-119442844D01*
X151307321Y-119349507D01*
X151307314Y-119349500D01*
X151307311Y-119349498D01*
X151307310Y-119349497D01*
X151227432Y-119303380D01*
X151227427Y-119303376D01*
X151193189Y-119283609D01*
X151193186Y-119283608D01*
X151065892Y-119249500D01*
X150934104Y-119249500D01*
X150835195Y-119276003D01*
X150835192Y-119276004D01*
X150806814Y-119283608D01*
X150806812Y-119283608D01*
X150806812Y-119283609D01*
X150781367Y-119298299D01*
X150781363Y-119298301D01*
X150692688Y-119349497D01*
X150599496Y-119442689D01*
X150533616Y-119556798D01*
X150533614Y-119556801D01*
X150533607Y-119556815D01*
X150533475Y-119557311D01*
X150499500Y-119684104D01*
X150499500Y-119815895D01*
X150533607Y-119943185D01*
X150541376Y-119956640D01*
X150599497Y-120057310D01*
X150599498Y-120057311D01*
X150599500Y-120057314D01*
X150601055Y-120058869D01*
X150692843Y-120150658D01*
X150694492Y-120151885D01*
X150695241Y-120152460D01*
X150709861Y-120165283D01*
X150723539Y-120178961D01*
X150762106Y-120245754D01*
X150762108Y-120322882D01*
X150762107Y-120322887D01*
X150758995Y-120334501D01*
X150738962Y-120378716D01*
X150699226Y-120438185D01*
X150699220Y-120438198D01*
X150646420Y-120565669D01*
X150646416Y-120565685D01*
X150619500Y-120701005D01*
X150619500Y-121358626D01*
X150617513Y-121366040D01*
X150618744Y-121373619D01*
X150614421Y-121397198D01*
X150610990Y-121410000D01*
X150601184Y-121426981D01*
X150599538Y-121433126D01*
X150595037Y-121437626D01*
X150572422Y-121476792D01*
X150505626Y-121515353D01*
X150428497Y-121515349D01*
X150371511Y-121484885D01*
X150371479Y-121484873D01*
X150371471Y-121484864D01*
X150368823Y-121483448D01*
X150360337Y-121476006D01*
X150353227Y-121469346D01*
X150243364Y-121359484D01*
X150243363Y-121359483D01*
X150129125Y-121293528D01*
X150121275Y-121287504D01*
X150102996Y-121279933D01*
X150093187Y-121278642D01*
X150083752Y-121276114D01*
X150058561Y-121269364D01*
X150058560Y-121269363D01*
X149965769Y-121244500D01*
X149965766Y-121244500D01*
X149814234Y-121244500D01*
X149814230Y-121244500D01*
X149814226Y-121244500D01*
X149690505Y-121277652D01*
X149690504Y-121277651D01*
X149670044Y-121283135D01*
X149668004Y-121283649D01*
X149667850Y-121283726D01*
X149536637Y-121359482D01*
X149429482Y-121466637D01*
X149353720Y-121597862D01*
X149314500Y-121744229D01*
X149314500Y-121831383D01*
X149309422Y-121869952D01*
X149305276Y-121885423D01*
X149266709Y-121952216D01*
X149199925Y-121990775D01*
X149184455Y-121994921D01*
X149145884Y-122000000D01*
X144854116Y-122000000D01*
X144815549Y-121994922D01*
X144802460Y-121991415D01*
X144800076Y-121990776D01*
X144775627Y-121976658D01*
X144733283Y-121952210D01*
X144694721Y-121885414D01*
X144690576Y-121869943D01*
X144685500Y-121831383D01*
X144685500Y-121744234D01*
X144685499Y-121744230D01*
X144683278Y-121735943D01*
X144683276Y-121735934D01*
X144646282Y-121597866D01*
X144646280Y-121597863D01*
X144574511Y-121473556D01*
X144572760Y-121470524D01*
X144572746Y-121470500D01*
X144572080Y-121469346D01*
X144570517Y-121466638D01*
X144570516Y-121466637D01*
X144570515Y-121466635D01*
X144570514Y-121466634D01*
X144570513Y-121466632D01*
X144463372Y-121359492D01*
X144463365Y-121359485D01*
X144463362Y-121359483D01*
X144463361Y-121359482D01*
X144461878Y-121358626D01*
X144357581Y-121298410D01*
X144357580Y-121298409D01*
X144332137Y-121283720D01*
X144332136Y-121283719D01*
X144332135Y-121283719D01*
X144303756Y-121276115D01*
X144303754Y-121276114D01*
X144278561Y-121269364D01*
X144278560Y-121269363D01*
X144185769Y-121244500D01*
X144185766Y-121244500D01*
X144168616Y-121244500D01*
X144130049Y-121239422D01*
X144120127Y-121236763D01*
X144114576Y-121235276D01*
X144047783Y-121196709D01*
X144034259Y-121173283D01*
X144009221Y-121129914D01*
X144005076Y-121114443D01*
X144000000Y-121075883D01*
X144000000Y-119184105D01*
X152249500Y-119184105D01*
X152249500Y-119315895D01*
X152283607Y-119443185D01*
X152283627Y-119443219D01*
X152349497Y-119557310D01*
X152349498Y-119557311D01*
X152349500Y-119557314D01*
X152442686Y-119650500D01*
X152556814Y-119716392D01*
X152684108Y-119750500D01*
X152815892Y-119750500D01*
X152943186Y-119716392D01*
X153057314Y-119650500D01*
X153150500Y-119557314D01*
X153216392Y-119443186D01*
X153250500Y-119315892D01*
X153250500Y-119184108D01*
X153216392Y-119056814D01*
X153150500Y-118942686D01*
X153057314Y-118849500D01*
X153057311Y-118849498D01*
X153057310Y-118849497D01*
X153057309Y-118849496D01*
X152984246Y-118807314D01*
X152968635Y-118798301D01*
X152943186Y-118783608D01*
X152815892Y-118749500D01*
X152684104Y-118749500D01*
X152585195Y-118776003D01*
X152585192Y-118776004D01*
X152556814Y-118783608D01*
X152556812Y-118783608D01*
X152556812Y-118783609D01*
X152531367Y-118798299D01*
X152531363Y-118798301D01*
X152442688Y-118849497D01*
X152349496Y-118942689D01*
X152283609Y-119056810D01*
X152249500Y-119184105D01*
X144000000Y-119184105D01*
X144000000Y-117414965D01*
X144005076Y-117376405D01*
X144009221Y-117360934D01*
X144009224Y-117360927D01*
X144009225Y-117360920D01*
X144028623Y-117327326D01*
X144047783Y-117294138D01*
X144047789Y-117294134D01*
X144047793Y-117294128D01*
X144081765Y-117274516D01*
X144114575Y-117255572D01*
X144120382Y-117254016D01*
X144178385Y-117250218D01*
X144201004Y-117253196D01*
X144204499Y-117251753D01*
X144223785Y-117250500D01*
X144315892Y-117250500D01*
X144443186Y-117216392D01*
X144557314Y-117150500D01*
X144650500Y-117057314D01*
X144650501Y-117057311D01*
X144650503Y-117057310D01*
X144683879Y-116999500D01*
X144716392Y-116943186D01*
X144750500Y-116815892D01*
X144750500Y-116684108D01*
X144750499Y-116684106D01*
X144750499Y-116684105D01*
X149249500Y-116684105D01*
X149249500Y-116815895D01*
X149283607Y-116943185D01*
X149293155Y-116959722D01*
X149349497Y-117057310D01*
X149349498Y-117057311D01*
X149349500Y-117057314D01*
X149442686Y-117150500D01*
X149556814Y-117216392D01*
X149684108Y-117250500D01*
X149815892Y-117250500D01*
X149943186Y-117216392D01*
X150057314Y-117150500D01*
X150150500Y-117057314D01*
X150150501Y-117057311D01*
X150150503Y-117057310D01*
X150183879Y-116999500D01*
X150216392Y-116943186D01*
X150250500Y-116815892D01*
X150250500Y-116684108D01*
X150216392Y-116556814D01*
X150150500Y-116442686D01*
X150057314Y-116349500D01*
X150057311Y-116349498D01*
X150057310Y-116349497D01*
X150057309Y-116349496D01*
X150057310Y-116349496D01*
X149983380Y-116306814D01*
X149968635Y-116298301D01*
X149943186Y-116283608D01*
X149815892Y-116249500D01*
X149684104Y-116249500D01*
X149585195Y-116276003D01*
X149585192Y-116276004D01*
X149556814Y-116283608D01*
X149556812Y-116283608D01*
X149556812Y-116283609D01*
X149531367Y-116298299D01*
X149531363Y-116298301D01*
X149442688Y-116349497D01*
X149349496Y-116442689D01*
X149283609Y-116556810D01*
X149249500Y-116684105D01*
X144750499Y-116684105D01*
X144745223Y-116664414D01*
X144716392Y-116556814D01*
X144650500Y-116442686D01*
X144557314Y-116349500D01*
X144557311Y-116349498D01*
X144557310Y-116349497D01*
X144557309Y-116349496D01*
X144557310Y-116349496D01*
X144483380Y-116306814D01*
X144468635Y-116298301D01*
X144443186Y-116283608D01*
X144315892Y-116249500D01*
X144231265Y-116249500D01*
X144229522Y-116249490D01*
X144174167Y-116248842D01*
X144174132Y-116248574D01*
X144151090Y-116248572D01*
X144150188Y-116248562D01*
X144113831Y-116238363D01*
X144077421Y-116228604D01*
X144076788Y-116227971D01*
X144075927Y-116227730D01*
X144049544Y-116200723D01*
X144022888Y-116174062D01*
X144022885Y-116174057D01*
X144019954Y-116168979D01*
X144000000Y-116094494D01*
X144000000Y-115434105D01*
X146749500Y-115434105D01*
X146749500Y-115565895D01*
X146783607Y-115693185D01*
X146793155Y-115709722D01*
X146849497Y-115807310D01*
X146849498Y-115807311D01*
X146849500Y-115807314D01*
X146942686Y-115900500D01*
X147056814Y-115966392D01*
X147184108Y-116000500D01*
X147315892Y-116000500D01*
X147443186Y-115966392D01*
X147557314Y-115900500D01*
X147650500Y-115807314D01*
X147716392Y-115693186D01*
X147750500Y-115565892D01*
X147750500Y-115434108D01*
X147716392Y-115306814D01*
X147650500Y-115192686D01*
X147557314Y-115099500D01*
X147557311Y-115099498D01*
X147557310Y-115099497D01*
X147486514Y-115058623D01*
X147443186Y-115033608D01*
X147315892Y-114999500D01*
X147184104Y-114999500D01*
X147085195Y-115026003D01*
X147085192Y-115026004D01*
X147056814Y-115033608D01*
X147056812Y-115033608D01*
X147056812Y-115033609D01*
X147031367Y-115048299D01*
X147031363Y-115048301D01*
X146942688Y-115099497D01*
X146849496Y-115192689D01*
X146783609Y-115306810D01*
X146749500Y-115434105D01*
X144000000Y-115434105D01*
X144000000Y-112668616D01*
X144005076Y-112630056D01*
X144009221Y-112614585D01*
X144047783Y-112547789D01*
X144114575Y-112509223D01*
X144130056Y-112505076D01*
X144168616Y-112500000D01*
X151500000Y-112500000D01*
X151500000Y-108067758D01*
X151500500Y-108065892D01*
X151500500Y-107934108D01*
X151500000Y-107932241D01*
X151500000Y-107418616D01*
X151505076Y-107380056D01*
X151509221Y-107364585D01*
X151547783Y-107297789D01*
X151614575Y-107259223D01*
X151630056Y-107255076D01*
X151668616Y-107250000D01*
X151712427Y-107250000D01*
X151750987Y-107255076D01*
G37*
%TD.AperFunction*%
%TD*%
%TA.AperFunction,Conductor*%
%TO.N,+3V3*%
G36*
X139442012Y-68769962D02*
G01*
X139496550Y-68824500D01*
X139511435Y-68860435D01*
X139533608Y-68943186D01*
X139533609Y-68943187D01*
X139599497Y-69057310D01*
X139599498Y-69057311D01*
X139599500Y-69057314D01*
X139692686Y-69150500D01*
X139806814Y-69216392D01*
X139934108Y-69250500D01*
X140065892Y-69250500D01*
X140193186Y-69216392D01*
X140276501Y-69168289D01*
X140350999Y-69148328D01*
X140425500Y-69168290D01*
X140480038Y-69222828D01*
X140500000Y-69297327D01*
X140500000Y-70182241D01*
X140499500Y-70184108D01*
X140499500Y-70315892D01*
X140500000Y-70317758D01*
X140500000Y-71920547D01*
X140499500Y-71928181D01*
X140499500Y-72071829D01*
X140500000Y-72079456D01*
X140500000Y-74182241D01*
X140499500Y-74184108D01*
X140499500Y-74315892D01*
X140500000Y-74317758D01*
X140500000Y-76170547D01*
X140499500Y-76178181D01*
X140499500Y-76321829D01*
X140500000Y-76329456D01*
X140500000Y-78432241D01*
X140499500Y-78434108D01*
X140499500Y-78565892D01*
X140500000Y-78567758D01*
X140500000Y-80420547D01*
X140499500Y-80428181D01*
X140499500Y-80571829D01*
X140500000Y-80579456D01*
X140500000Y-82432241D01*
X140499500Y-82434108D01*
X140499500Y-82565892D01*
X140500000Y-82567758D01*
X140500000Y-84420547D01*
X140499500Y-84428181D01*
X140499500Y-84571829D01*
X140500000Y-84579456D01*
X140500000Y-87500000D01*
X141702671Y-87500000D01*
X141777171Y-87519962D01*
X141831709Y-87574500D01*
X141851671Y-87649000D01*
X141831709Y-87723499D01*
X141783609Y-87806810D01*
X141749500Y-87934106D01*
X141749500Y-87934108D01*
X141749500Y-88065892D01*
X141783608Y-88193186D01*
X141783609Y-88193187D01*
X141849497Y-88307310D01*
X141849498Y-88307311D01*
X141849500Y-88307314D01*
X141942686Y-88400500D01*
X142056814Y-88466392D01*
X142184108Y-88500500D01*
X142315892Y-88500500D01*
X142443186Y-88466392D01*
X142557314Y-88400500D01*
X142650500Y-88307314D01*
X142716392Y-88193186D01*
X142750500Y-88065892D01*
X142750500Y-87934108D01*
X142716392Y-87806814D01*
X142702994Y-87783608D01*
X142668291Y-87723499D01*
X142648329Y-87648999D01*
X142668292Y-87574499D01*
X142722830Y-87519962D01*
X142797329Y-87500000D01*
X143854651Y-87500000D01*
X143929151Y-87519962D01*
X143983689Y-87574500D01*
X144003651Y-87649000D01*
X144000311Y-87674360D01*
X144000775Y-87674422D01*
X143999500Y-87684108D01*
X143999500Y-87815892D01*
X144033608Y-87943186D01*
X144033609Y-87943187D01*
X144099497Y-88057310D01*
X144099498Y-88057311D01*
X144099500Y-88057314D01*
X144192686Y-88150500D01*
X144306814Y-88216392D01*
X144434108Y-88250500D01*
X144565892Y-88250500D01*
X144693186Y-88216392D01*
X144807314Y-88150500D01*
X144900500Y-88057314D01*
X144966392Y-87943186D01*
X145000500Y-87815892D01*
X145000500Y-87684108D01*
X144999225Y-87674422D01*
X145001427Y-87674132D01*
X145001423Y-87610446D01*
X145039982Y-87543649D01*
X145106774Y-87505080D01*
X145145349Y-87500000D01*
X158050500Y-87500000D01*
X158125000Y-87519962D01*
X158179538Y-87574500D01*
X158199500Y-87649000D01*
X158199500Y-88179748D01*
X158211132Y-88238230D01*
X158211133Y-88238231D01*
X158255448Y-88304552D01*
X158321769Y-88348867D01*
X158380252Y-88360500D01*
X160119748Y-88360500D01*
X160178231Y-88348867D01*
X160244552Y-88304552D01*
X160288867Y-88238231D01*
X160300500Y-88179748D01*
X160300500Y-87649500D01*
X160310425Y-87612456D01*
X160320177Y-87575497D01*
X160320384Y-87575287D01*
X160320462Y-87575000D01*
X160347599Y-87547862D01*
X160374504Y-87520750D01*
X160374788Y-87520673D01*
X160375000Y-87520462D01*
X160448927Y-87500501D01*
X160449187Y-87500500D01*
X160565892Y-87500500D01*
X160567592Y-87500044D01*
X160578884Y-87500001D01*
X160578994Y-87500030D01*
X160579457Y-87500000D01*
X161101000Y-87500000D01*
X161175500Y-87519962D01*
X161230038Y-87574500D01*
X161250000Y-87649000D01*
X161250000Y-98354650D01*
X161230038Y-98429150D01*
X161175500Y-98483688D01*
X161101000Y-98503650D01*
X161075638Y-98500312D01*
X161075578Y-98500775D01*
X161065892Y-98499500D01*
X160934108Y-98499500D01*
X160806814Y-98533608D01*
X160806812Y-98533608D01*
X160806812Y-98533609D01*
X160692689Y-98599497D01*
X160599497Y-98692689D01*
X160533609Y-98806812D01*
X160499500Y-98934106D01*
X160499500Y-98934108D01*
X160499500Y-99065892D01*
X160533608Y-99193186D01*
X160533609Y-99193187D01*
X160599497Y-99307310D01*
X160599498Y-99307311D01*
X160599500Y-99307314D01*
X160692686Y-99400500D01*
X160806814Y-99466392D01*
X160934108Y-99500500D01*
X161065892Y-99500500D01*
X161075578Y-99499225D01*
X161075867Y-99501427D01*
X161139554Y-99501423D01*
X161206351Y-99539982D01*
X161244920Y-99606774D01*
X161250000Y-99645349D01*
X161250000Y-112702671D01*
X161242430Y-112730919D01*
X161238568Y-112759907D01*
X161232579Y-112767686D01*
X161230038Y-112777171D01*
X161209358Y-112797850D01*
X161191520Y-112821023D01*
X161182442Y-112824766D01*
X161175500Y-112831709D01*
X161147252Y-112839277D01*
X161120216Y-112850427D01*
X161111866Y-112848759D01*
X161101000Y-112851671D01*
X161043764Y-112840239D01*
X161034849Y-112836530D01*
X160943186Y-112783608D01*
X160843359Y-112756859D01*
X160834229Y-112753061D01*
X160811236Y-112735360D01*
X160786105Y-112720851D01*
X160781078Y-112712145D01*
X160773113Y-112706013D01*
X160762049Y-112679184D01*
X160747542Y-112654056D01*
X160747542Y-112644003D01*
X160743709Y-112634709D01*
X160747542Y-112605945D01*
X160747542Y-112576931D01*
X160750500Y-112565892D01*
X160750500Y-112434108D01*
X160716392Y-112306814D01*
X160650500Y-112192686D01*
X160557314Y-112099500D01*
X160557311Y-112099498D01*
X160557310Y-112099497D01*
X160483380Y-112056814D01*
X160443186Y-112033608D01*
X160315892Y-111999500D01*
X160184108Y-111999500D01*
X160056814Y-112033608D01*
X160056812Y-112033608D01*
X160056812Y-112033609D01*
X159942689Y-112099497D01*
X159849497Y-112192689D01*
X159783609Y-112306812D01*
X159783608Y-112306814D01*
X159767778Y-112365890D01*
X159749500Y-112434106D01*
X159749500Y-112434108D01*
X159749500Y-112565892D01*
X159783608Y-112693186D01*
X159805393Y-112730919D01*
X159849497Y-112807310D01*
X159849498Y-112807311D01*
X159849500Y-112807314D01*
X159942686Y-112900500D01*
X160056814Y-112966392D01*
X160147098Y-112990583D01*
X160213893Y-113029147D01*
X160252457Y-113095942D01*
X160252457Y-113173069D01*
X160249500Y-113184101D01*
X160249500Y-113184108D01*
X160249500Y-113315892D01*
X160283608Y-113443186D01*
X160283609Y-113443187D01*
X160349497Y-113557310D01*
X160349498Y-113557311D01*
X160349500Y-113557314D01*
X160442686Y-113650500D01*
X160556814Y-113716392D01*
X160684108Y-113750500D01*
X160815892Y-113750500D01*
X160943186Y-113716392D01*
X161026501Y-113668289D01*
X161100999Y-113648328D01*
X161175500Y-113668290D01*
X161230038Y-113722828D01*
X161250000Y-113797327D01*
X161250000Y-116601000D01*
X161230038Y-116675500D01*
X161175500Y-116730038D01*
X161101000Y-116750000D01*
X156649000Y-116750000D01*
X156574500Y-116730038D01*
X156519962Y-116675500D01*
X156500000Y-116601000D01*
X156500000Y-114184106D01*
X157999500Y-114184106D01*
X157999500Y-114184108D01*
X157999500Y-114315892D01*
X158033608Y-114443186D01*
X158033609Y-114443187D01*
X158099497Y-114557310D01*
X158099498Y-114557311D01*
X158099500Y-114557314D01*
X158192686Y-114650500D01*
X158306814Y-114716392D01*
X158434108Y-114750500D01*
X158565892Y-114750500D01*
X158693186Y-114716392D01*
X158807314Y-114650500D01*
X158900500Y-114557314D01*
X158966392Y-114443186D01*
X159000500Y-114315892D01*
X159000500Y-114184108D01*
X158966392Y-114056814D01*
X158900500Y-113942686D01*
X158807314Y-113849500D01*
X158807311Y-113849498D01*
X158807310Y-113849497D01*
X158716948Y-113797327D01*
X158693186Y-113783608D01*
X158565892Y-113749500D01*
X158434108Y-113749500D01*
X158306814Y-113783608D01*
X158306812Y-113783608D01*
X158306812Y-113783609D01*
X158192689Y-113849497D01*
X158099497Y-113942689D01*
X158066698Y-113999500D01*
X158033608Y-114056814D01*
X158017778Y-114115890D01*
X157999500Y-114184106D01*
X156500000Y-114184106D01*
X156500000Y-112567758D01*
X156500500Y-112565892D01*
X156500500Y-112434108D01*
X156500000Y-112432241D01*
X156500000Y-109329456D01*
X156500500Y-109321829D01*
X156500500Y-109178181D01*
X156500000Y-109170547D01*
X156500000Y-105500000D01*
X152895863Y-105500000D01*
X152821363Y-105480038D01*
X152766825Y-105425500D01*
X152746897Y-105354169D01*
X152738646Y-104966390D01*
X152727321Y-104434106D01*
X154999500Y-104434106D01*
X154999500Y-104434108D01*
X154999500Y-104565892D01*
X155033608Y-104693186D01*
X155033609Y-104693187D01*
X155099497Y-104807310D01*
X155099498Y-104807311D01*
X155099500Y-104807314D01*
X155192686Y-104900500D01*
X155306814Y-104966392D01*
X155434108Y-105000500D01*
X155565892Y-105000500D01*
X155693186Y-104966392D01*
X155807314Y-104900500D01*
X155900500Y-104807314D01*
X155966392Y-104693186D01*
X156000500Y-104565892D01*
X156000500Y-104434108D01*
X155966392Y-104306814D01*
X155900500Y-104192686D01*
X155807314Y-104099500D01*
X155807311Y-104099498D01*
X155807310Y-104099497D01*
X155736514Y-104058623D01*
X155693186Y-104033608D01*
X155565892Y-103999500D01*
X155434108Y-103999500D01*
X155306814Y-104033608D01*
X155306812Y-104033608D01*
X155306812Y-104033609D01*
X155192689Y-104099497D01*
X155099497Y-104192689D01*
X155033609Y-104306812D01*
X154999500Y-104434106D01*
X152727321Y-104434106D01*
X152646865Y-100652668D01*
X152665238Y-100577762D01*
X152718603Y-100522076D01*
X152792661Y-100500534D01*
X152795831Y-100500500D01*
X152815892Y-100500500D01*
X152943186Y-100466392D01*
X153057314Y-100400500D01*
X153150500Y-100307314D01*
X153216392Y-100193186D01*
X153250500Y-100065892D01*
X153250500Y-99934108D01*
X153216392Y-99806814D01*
X153150500Y-99692686D01*
X153057314Y-99599500D01*
X153057311Y-99599498D01*
X153057310Y-99599497D01*
X152986514Y-99558623D01*
X152943186Y-99533608D01*
X152815892Y-99499500D01*
X152768192Y-99499500D01*
X152693692Y-99479538D01*
X152639154Y-99425000D01*
X152619227Y-99353672D01*
X152599431Y-98423299D01*
X152617804Y-98348396D01*
X152622639Y-98340223D01*
X152631437Y-98326376D01*
X152650500Y-98307314D01*
X152716392Y-98193186D01*
X152716625Y-98192313D01*
X152721273Y-98185000D01*
X152747417Y-98160986D01*
X152772530Y-98135874D01*
X152775677Y-98135030D01*
X152778077Y-98132827D01*
X152812732Y-98125101D01*
X152847030Y-98115911D01*
X152850176Y-98116754D01*
X152853357Y-98116045D01*
X152887235Y-98126683D01*
X152921530Y-98135873D01*
X152925992Y-98138854D01*
X152926942Y-98139153D01*
X152927741Y-98140023D01*
X152937744Y-98146707D01*
X152942684Y-98150498D01*
X152942686Y-98150500D01*
X153056814Y-98216392D01*
X153184108Y-98250500D01*
X153315892Y-98250500D01*
X153443186Y-98216392D01*
X153557314Y-98150500D01*
X153650500Y-98057314D01*
X153716392Y-97943186D01*
X153750500Y-97815892D01*
X153750500Y-97684108D01*
X153716392Y-97556814D01*
X153654618Y-97449819D01*
X153650502Y-97442689D01*
X153650501Y-97442688D01*
X153650500Y-97442686D01*
X153557314Y-97349500D01*
X153557311Y-97349498D01*
X153557310Y-97349497D01*
X153477432Y-97303380D01*
X153443186Y-97283608D01*
X153315892Y-97249500D01*
X153184108Y-97249500D01*
X153056814Y-97283608D01*
X153056812Y-97283608D01*
X153056812Y-97283609D01*
X152942689Y-97349497D01*
X152849497Y-97442689D01*
X152844026Y-97449819D01*
X152782833Y-97496768D01*
X152706364Y-97506830D01*
X152635109Y-97477310D01*
X152588160Y-97416117D01*
X152576857Y-97362279D01*
X152573066Y-97184106D01*
X157749500Y-97184106D01*
X157749500Y-97184108D01*
X157749500Y-97315892D01*
X157783608Y-97443186D01*
X157803310Y-97477310D01*
X157849497Y-97557310D01*
X157849498Y-97557311D01*
X157849500Y-97557314D01*
X157942686Y-97650500D01*
X158056814Y-97716392D01*
X158184108Y-97750500D01*
X158315892Y-97750500D01*
X158443186Y-97716392D01*
X158557314Y-97650500D01*
X158650500Y-97557314D01*
X158716392Y-97443186D01*
X158750500Y-97315892D01*
X158750500Y-97184108D01*
X158716392Y-97056814D01*
X158650500Y-96942686D01*
X158557314Y-96849500D01*
X158557311Y-96849498D01*
X158557310Y-96849497D01*
X158486514Y-96808623D01*
X158443186Y-96783608D01*
X158315892Y-96749500D01*
X158184108Y-96749500D01*
X158056814Y-96783608D01*
X158056812Y-96783608D01*
X158056812Y-96783609D01*
X157942689Y-96849497D01*
X157849497Y-96942689D01*
X157816698Y-96999500D01*
X157783608Y-97056814D01*
X157767778Y-97115890D01*
X157749500Y-97184106D01*
X152573066Y-97184106D01*
X152535832Y-95434106D01*
X153249500Y-95434106D01*
X153249500Y-95434108D01*
X153249500Y-95565892D01*
X153283608Y-95693186D01*
X153283609Y-95693187D01*
X153349497Y-95807310D01*
X153349498Y-95807311D01*
X153349500Y-95807314D01*
X153442686Y-95900500D01*
X153556814Y-95966392D01*
X153684108Y-96000500D01*
X153815892Y-96000500D01*
X153943186Y-95966392D01*
X154057314Y-95900500D01*
X154150500Y-95807314D01*
X154216392Y-95693186D01*
X154250500Y-95565892D01*
X154250500Y-95434108D01*
X154216392Y-95306814D01*
X154150500Y-95192686D01*
X154057314Y-95099500D01*
X154057311Y-95099498D01*
X154057310Y-95099497D01*
X153986514Y-95058623D01*
X153943186Y-95033608D01*
X153815892Y-94999500D01*
X153684108Y-94999500D01*
X153556814Y-95033608D01*
X153556812Y-95033608D01*
X153556812Y-95033609D01*
X153442689Y-95099497D01*
X153349497Y-95192689D01*
X153297006Y-95283608D01*
X153283608Y-95306814D01*
X153267778Y-95365890D01*
X153249500Y-95434106D01*
X152535832Y-95434106D01*
X152500000Y-93750000D01*
X139500000Y-93750000D01*
X139500000Y-101682241D01*
X139499500Y-101684108D01*
X139499500Y-101815892D01*
X139500000Y-101817758D01*
X139500000Y-105170547D01*
X139499500Y-105178181D01*
X139499500Y-105321829D01*
X139500000Y-105329456D01*
X139500000Y-110117512D01*
X139480038Y-110192012D01*
X139425500Y-110246550D01*
X139389565Y-110261435D01*
X139369625Y-110266777D01*
X139306814Y-110283608D01*
X139306812Y-110283608D01*
X139306812Y-110283609D01*
X139192689Y-110349497D01*
X139099497Y-110442689D01*
X139066698Y-110499500D01*
X139033608Y-110556814D01*
X139017778Y-110615890D01*
X138999500Y-110684106D01*
X138999500Y-110684108D01*
X138999500Y-110815892D01*
X139033608Y-110943186D01*
X139033609Y-110943187D01*
X139099497Y-111057310D01*
X139099498Y-111057311D01*
X139099500Y-111057314D01*
X139192686Y-111150500D01*
X139306814Y-111216392D01*
X139389565Y-111238565D01*
X139456359Y-111277128D01*
X139494923Y-111343922D01*
X139500000Y-111382487D01*
X139500000Y-112242430D01*
X139480038Y-112316930D01*
X139425500Y-112371468D01*
X139351000Y-112391430D01*
X139276500Y-112371468D01*
X139221962Y-112316930D01*
X139220378Y-112313719D01*
X139216392Y-112306815D01*
X139216392Y-112306814D01*
X139150500Y-112192686D01*
X139057314Y-112099500D01*
X139057311Y-112099498D01*
X139057310Y-112099497D01*
X138983380Y-112056814D01*
X138943186Y-112033608D01*
X138815892Y-111999500D01*
X138684108Y-111999500D01*
X138556814Y-112033608D01*
X138556812Y-112033608D01*
X138556812Y-112033609D01*
X138442689Y-112099497D01*
X138349497Y-112192689D01*
X138283609Y-112306812D01*
X138283608Y-112306814D01*
X138267778Y-112365890D01*
X138249500Y-112434106D01*
X138249500Y-112434108D01*
X138249500Y-112565892D01*
X138283608Y-112693186D01*
X138305393Y-112730919D01*
X138349497Y-112807310D01*
X138349498Y-112807311D01*
X138349500Y-112807314D01*
X138442686Y-112900500D01*
X138556814Y-112966392D01*
X138684108Y-113000500D01*
X138815892Y-113000500D01*
X138943186Y-112966392D01*
X139057314Y-112900500D01*
X139150500Y-112807314D01*
X139216392Y-112693186D01*
X139216392Y-112693185D01*
X139221275Y-112684728D01*
X139224192Y-112686412D01*
X139260284Y-112639368D01*
X139331538Y-112609846D01*
X139408007Y-112619906D01*
X139469201Y-112666853D01*
X139498723Y-112738107D01*
X139500000Y-112757569D01*
X139500000Y-116492430D01*
X139480038Y-116566930D01*
X139425500Y-116621468D01*
X139351000Y-116641430D01*
X139276500Y-116621468D01*
X139221962Y-116566930D01*
X139220378Y-116563719D01*
X139216392Y-116556815D01*
X139216392Y-116556814D01*
X139150500Y-116442686D01*
X139057314Y-116349500D01*
X139057311Y-116349498D01*
X139057310Y-116349497D01*
X138986514Y-116308623D01*
X138943186Y-116283608D01*
X138815892Y-116249500D01*
X138684108Y-116249500D01*
X138556814Y-116283608D01*
X138556812Y-116283608D01*
X138556812Y-116283609D01*
X138442689Y-116349497D01*
X138349497Y-116442689D01*
X138283609Y-116556812D01*
X138283608Y-116556814D01*
X138271769Y-116601000D01*
X138261435Y-116639565D01*
X138222870Y-116706360D01*
X138156075Y-116744923D01*
X138117512Y-116750000D01*
X133149000Y-116750000D01*
X133074500Y-116730038D01*
X133019962Y-116675500D01*
X133000000Y-116601000D01*
X133000000Y-114184106D01*
X135249500Y-114184106D01*
X135249500Y-114184108D01*
X135249500Y-114315892D01*
X135283608Y-114443186D01*
X135283609Y-114443187D01*
X135349497Y-114557310D01*
X135349498Y-114557311D01*
X135349500Y-114557314D01*
X135442686Y-114650500D01*
X135556814Y-114716392D01*
X135684108Y-114750500D01*
X135815892Y-114750500D01*
X135943186Y-114716392D01*
X136057314Y-114650500D01*
X136150500Y-114557314D01*
X136216392Y-114443186D01*
X136250500Y-114315892D01*
X136250500Y-114184108D01*
X136216392Y-114056814D01*
X136150500Y-113942686D01*
X136057314Y-113849500D01*
X136057311Y-113849498D01*
X136057310Y-113849497D01*
X135966948Y-113797327D01*
X135943186Y-113783608D01*
X135815892Y-113749500D01*
X135684108Y-113749500D01*
X135556814Y-113783608D01*
X135556812Y-113783608D01*
X135556812Y-113783609D01*
X135442689Y-113849497D01*
X135349497Y-113942689D01*
X135316698Y-113999500D01*
X135283608Y-114056814D01*
X135267778Y-114115890D01*
X135249500Y-114184106D01*
X133000000Y-114184106D01*
X133000000Y-112434106D01*
X133999500Y-112434106D01*
X133999500Y-112434108D01*
X133999500Y-112565892D01*
X134033608Y-112693186D01*
X134055393Y-112730919D01*
X134099497Y-112807310D01*
X134099498Y-112807311D01*
X134099500Y-112807314D01*
X134192686Y-112900500D01*
X134306814Y-112966392D01*
X134434108Y-113000500D01*
X134565892Y-113000500D01*
X134693186Y-112966392D01*
X134807314Y-112900500D01*
X134900500Y-112807314D01*
X134966392Y-112693186D01*
X135000500Y-112565892D01*
X135000500Y-112434108D01*
X134966392Y-112306814D01*
X134900500Y-112192686D01*
X134807314Y-112099500D01*
X134807311Y-112099498D01*
X134807310Y-112099497D01*
X134733380Y-112056814D01*
X134693186Y-112033608D01*
X134565892Y-111999500D01*
X134434108Y-111999500D01*
X134306814Y-112033608D01*
X134306812Y-112033608D01*
X134306812Y-112033609D01*
X134192689Y-112099497D01*
X134099497Y-112192689D01*
X134033609Y-112306812D01*
X134033608Y-112306814D01*
X134017778Y-112365890D01*
X133999500Y-112434106D01*
X133000000Y-112434106D01*
X133000000Y-107934106D01*
X133999500Y-107934106D01*
X133999500Y-107934108D01*
X133999500Y-108065892D01*
X134033608Y-108193186D01*
X134033609Y-108193187D01*
X134099497Y-108307310D01*
X134099498Y-108307311D01*
X134099500Y-108307314D01*
X134192686Y-108400500D01*
X134306814Y-108466392D01*
X134434108Y-108500500D01*
X134565892Y-108500500D01*
X134693186Y-108466392D01*
X134807314Y-108400500D01*
X134900500Y-108307314D01*
X134966392Y-108193186D01*
X135000500Y-108065892D01*
X135000500Y-107934108D01*
X134966392Y-107806814D01*
X134900500Y-107692686D01*
X134807314Y-107599500D01*
X134807311Y-107599498D01*
X134807310Y-107599497D01*
X134736514Y-107558623D01*
X134693186Y-107533608D01*
X134565892Y-107499500D01*
X134434108Y-107499500D01*
X134306814Y-107533608D01*
X134306812Y-107533608D01*
X134306812Y-107533609D01*
X134192689Y-107599497D01*
X134099497Y-107692689D01*
X134033609Y-107806812D01*
X133999500Y-107934106D01*
X133000000Y-107934106D01*
X133000000Y-105184106D01*
X133999500Y-105184106D01*
X133999500Y-105184108D01*
X133999500Y-105315892D01*
X134033608Y-105443186D01*
X134033609Y-105443187D01*
X134099497Y-105557310D01*
X134099498Y-105557311D01*
X134099500Y-105557314D01*
X134192686Y-105650500D01*
X134306814Y-105716392D01*
X134434108Y-105750500D01*
X134565892Y-105750500D01*
X134693186Y-105716392D01*
X134807314Y-105650500D01*
X134900500Y-105557314D01*
X134966392Y-105443186D01*
X135000500Y-105315892D01*
X135000500Y-105184108D01*
X134966392Y-105056814D01*
X134900500Y-104942686D01*
X134807314Y-104849500D01*
X134807311Y-104849498D01*
X134807310Y-104849497D01*
X134734239Y-104807310D01*
X134693186Y-104783608D01*
X134565892Y-104749500D01*
X134434108Y-104749500D01*
X134306814Y-104783608D01*
X134306812Y-104783608D01*
X134306812Y-104783609D01*
X134192689Y-104849497D01*
X134099497Y-104942689D01*
X134047006Y-105033608D01*
X134033608Y-105056814D01*
X134017778Y-105115890D01*
X133999500Y-105184106D01*
X133000000Y-105184106D01*
X133000000Y-100434106D01*
X134999500Y-100434106D01*
X134999500Y-100565893D01*
X135008639Y-100600001D01*
X135033608Y-100693186D01*
X135033609Y-100693187D01*
X135099497Y-100807310D01*
X135099498Y-100807311D01*
X135099500Y-100807314D01*
X135192686Y-100900500D01*
X135192688Y-100900501D01*
X135192689Y-100900502D01*
X135220157Y-100916360D01*
X135306814Y-100966392D01*
X135434108Y-101000500D01*
X135565892Y-101000500D01*
X135693186Y-100966392D01*
X135807314Y-100900500D01*
X135900500Y-100807314D01*
X135966392Y-100693186D01*
X136000500Y-100565892D01*
X136000500Y-100434108D01*
X135966392Y-100306814D01*
X135916360Y-100220157D01*
X135900502Y-100192689D01*
X135900501Y-100192688D01*
X135900500Y-100192686D01*
X135807314Y-100099500D01*
X135807311Y-100099498D01*
X135807310Y-100099497D01*
X135723270Y-100050977D01*
X135693186Y-100033608D01*
X135565892Y-99999500D01*
X135434108Y-99999500D01*
X135306814Y-100033608D01*
X135306812Y-100033608D01*
X135306812Y-100033609D01*
X135192689Y-100099497D01*
X135099497Y-100192689D01*
X135033609Y-100306812D01*
X135033608Y-100306814D01*
X135033474Y-100307314D01*
X134999500Y-100434106D01*
X133000000Y-100434106D01*
X133000000Y-97434106D01*
X136249500Y-97434106D01*
X136249500Y-97434108D01*
X136249500Y-97565892D01*
X136283608Y-97693186D01*
X136283609Y-97693187D01*
X136349497Y-97807310D01*
X136349498Y-97807311D01*
X136349500Y-97807314D01*
X136442686Y-97900500D01*
X136556814Y-97966392D01*
X136684108Y-98000500D01*
X136815892Y-98000500D01*
X136943186Y-97966392D01*
X137057314Y-97900500D01*
X137150500Y-97807314D01*
X137216392Y-97693186D01*
X137231077Y-97638379D01*
X137269641Y-97571585D01*
X137336436Y-97533021D01*
X137413564Y-97533021D01*
X137480359Y-97571585D01*
X137518923Y-97638380D01*
X137533608Y-97693186D01*
X137599497Y-97807310D01*
X137599498Y-97807311D01*
X137599500Y-97807314D01*
X137692686Y-97900500D01*
X137806814Y-97966392D01*
X137934108Y-98000500D01*
X138065892Y-98000500D01*
X138193186Y-97966392D01*
X138307314Y-97900500D01*
X138400500Y-97807314D01*
X138466392Y-97693186D01*
X138500500Y-97565892D01*
X138500500Y-97434108D01*
X138466392Y-97306814D01*
X138400500Y-97192686D01*
X138307314Y-97099500D01*
X138307311Y-97099498D01*
X138307310Y-97099497D01*
X138233376Y-97056812D01*
X138193186Y-97033608D01*
X138065892Y-96999500D01*
X137934108Y-96999500D01*
X137806814Y-97033608D01*
X137806812Y-97033608D01*
X137806812Y-97033609D01*
X137692689Y-97099497D01*
X137599497Y-97192689D01*
X137533608Y-97306812D01*
X137518923Y-97361620D01*
X137480358Y-97428415D01*
X137413563Y-97466978D01*
X137336435Y-97466978D01*
X137269640Y-97428413D01*
X137231077Y-97361620D01*
X137216392Y-97306814D01*
X137216391Y-97306812D01*
X137150502Y-97192689D01*
X137150501Y-97192688D01*
X137150500Y-97192686D01*
X137057314Y-97099500D01*
X137057311Y-97099498D01*
X137057310Y-97099497D01*
X136983376Y-97056812D01*
X136943186Y-97033608D01*
X136815892Y-96999500D01*
X136684108Y-96999500D01*
X136556814Y-97033608D01*
X136556812Y-97033608D01*
X136556812Y-97033609D01*
X136442689Y-97099497D01*
X136349497Y-97192689D01*
X136283609Y-97306812D01*
X136283608Y-97306814D01*
X136268923Y-97361620D01*
X136249500Y-97434106D01*
X133000000Y-97434106D01*
X133000000Y-96382487D01*
X133019962Y-96307987D01*
X133074500Y-96253449D01*
X133110432Y-96238565D01*
X133193186Y-96216392D01*
X133307314Y-96150500D01*
X133400500Y-96057314D01*
X133466392Y-95943186D01*
X133500500Y-95815892D01*
X133500500Y-95684108D01*
X133466392Y-95556814D01*
X133400500Y-95442686D01*
X133307314Y-95349500D01*
X133307311Y-95349498D01*
X133307310Y-95349497D01*
X133233376Y-95306812D01*
X133193186Y-95283608D01*
X133124298Y-95265149D01*
X133110435Y-95261435D01*
X133043640Y-95222870D01*
X133005077Y-95156075D01*
X133000000Y-95117512D01*
X133000000Y-92632487D01*
X133019962Y-92557987D01*
X133074500Y-92503449D01*
X133110432Y-92488565D01*
X133193186Y-92466392D01*
X133307314Y-92400500D01*
X133400500Y-92307314D01*
X133466392Y-92193186D01*
X133500500Y-92065892D01*
X133500500Y-91934108D01*
X133500499Y-91934106D01*
X138749500Y-91934106D01*
X138749500Y-91934108D01*
X138749500Y-92065892D01*
X138783608Y-92193186D01*
X138783609Y-92193187D01*
X138849497Y-92307310D01*
X138849498Y-92307311D01*
X138849500Y-92307314D01*
X138942686Y-92400500D01*
X139056814Y-92466392D01*
X139184108Y-92500500D01*
X139315892Y-92500500D01*
X139443186Y-92466392D01*
X139557314Y-92400500D01*
X139650500Y-92307314D01*
X139716392Y-92193186D01*
X139750500Y-92065892D01*
X139750500Y-91934108D01*
X139716392Y-91806814D01*
X139650500Y-91692686D01*
X139557314Y-91599500D01*
X139557311Y-91599498D01*
X139557310Y-91599497D01*
X139486514Y-91558623D01*
X139443186Y-91533608D01*
X139315892Y-91499500D01*
X139184108Y-91499500D01*
X139056814Y-91533608D01*
X139056812Y-91533608D01*
X139056812Y-91533609D01*
X138942689Y-91599497D01*
X138849497Y-91692689D01*
X138783609Y-91806812D01*
X138749500Y-91934106D01*
X133500499Y-91934106D01*
X133466392Y-91806814D01*
X133400500Y-91692686D01*
X133307314Y-91599500D01*
X133307311Y-91599498D01*
X133307310Y-91599497D01*
X133236514Y-91558623D01*
X133193186Y-91533608D01*
X133124298Y-91515149D01*
X133110435Y-91511435D01*
X133043640Y-91472870D01*
X133005077Y-91406075D01*
X133000000Y-91367512D01*
X133000000Y-90434106D01*
X141173300Y-90434106D01*
X141173300Y-90434108D01*
X141173300Y-90565892D01*
X141207408Y-90693186D01*
X141207409Y-90693187D01*
X141273297Y-90807310D01*
X141273298Y-90807311D01*
X141273300Y-90807314D01*
X141366486Y-90900500D01*
X141480614Y-90966392D01*
X141607908Y-91000500D01*
X141739692Y-91000500D01*
X141866986Y-90966392D01*
X141981114Y-90900500D01*
X142074300Y-90807314D01*
X142111462Y-90742948D01*
X142165999Y-90688410D01*
X142240499Y-90668447D01*
X142314999Y-90688409D01*
X142369537Y-90742946D01*
X142389500Y-90817446D01*
X142389500Y-91119748D01*
X142401132Y-91178230D01*
X142401133Y-91178231D01*
X142445448Y-91244552D01*
X142511769Y-91288867D01*
X142570252Y-91300500D01*
X143154493Y-91300500D01*
X143228993Y-91320462D01*
X143283531Y-91375000D01*
X143303493Y-91449500D01*
X143283531Y-91524000D01*
X143228993Y-91578538D01*
X143192689Y-91599497D01*
X143099497Y-91692689D01*
X143033609Y-91806812D01*
X142999500Y-91934106D01*
X142999500Y-91934108D01*
X142999500Y-92065892D01*
X143033608Y-92193186D01*
X143033609Y-92193187D01*
X143099497Y-92307310D01*
X143099498Y-92307311D01*
X143099500Y-92307314D01*
X143192686Y-92400500D01*
X143306814Y-92466392D01*
X143434108Y-92500500D01*
X143565892Y-92500500D01*
X143693186Y-92466392D01*
X143749107Y-92434106D01*
X152999500Y-92434106D01*
X152999500Y-92434108D01*
X152999500Y-92565892D01*
X153033608Y-92693186D01*
X153033609Y-92693187D01*
X153099497Y-92807310D01*
X153099498Y-92807311D01*
X153099500Y-92807314D01*
X153192686Y-92900500D01*
X153306814Y-92966392D01*
X153434108Y-93000500D01*
X153565892Y-93000500D01*
X153693186Y-92966392D01*
X153807314Y-92900500D01*
X153900500Y-92807314D01*
X153966392Y-92693186D01*
X154000500Y-92565892D01*
X154000500Y-92434108D01*
X153966392Y-92306814D01*
X153916360Y-92220157D01*
X153900502Y-92192689D01*
X153900501Y-92192688D01*
X153900500Y-92192686D01*
X153807314Y-92099500D01*
X153807311Y-92099498D01*
X153807310Y-92099497D01*
X153736514Y-92058623D01*
X153693186Y-92033608D01*
X153565892Y-91999500D01*
X153434108Y-91999500D01*
X153306814Y-92033608D01*
X153306812Y-92033608D01*
X153306812Y-92033609D01*
X153192689Y-92099497D01*
X153099497Y-92192689D01*
X153033609Y-92306812D01*
X153033608Y-92306814D01*
X153017778Y-92365890D01*
X152999500Y-92434106D01*
X143749107Y-92434106D01*
X143807314Y-92400500D01*
X143900500Y-92307314D01*
X143966392Y-92193186D01*
X144000500Y-92065892D01*
X144000500Y-91934108D01*
X143966392Y-91806814D01*
X143900500Y-91692686D01*
X143807314Y-91599500D01*
X143807311Y-91599498D01*
X143807310Y-91599497D01*
X143771007Y-91578538D01*
X143716469Y-91524000D01*
X143696507Y-91449500D01*
X143716469Y-91375000D01*
X143771007Y-91320462D01*
X143845507Y-91300500D01*
X144309748Y-91300500D01*
X144368231Y-91288867D01*
X144434552Y-91244552D01*
X144478867Y-91178231D01*
X144490500Y-91119748D01*
X144490500Y-90146534D01*
X147469500Y-90146534D01*
X147469500Y-90146535D01*
X147469500Y-90353465D01*
X147509870Y-90556420D01*
X147513794Y-90565893D01*
X147589057Y-90747596D01*
X147704022Y-90919654D01*
X147850345Y-91065977D01*
X148022403Y-91180942D01*
X148101591Y-91213742D01*
X148213580Y-91260130D01*
X148416535Y-91300500D01*
X148623465Y-91300500D01*
X148826420Y-91260130D01*
X149017598Y-91180941D01*
X149189655Y-91065977D01*
X149335977Y-90919655D01*
X149450941Y-90747598D01*
X149530130Y-90556420D01*
X149570500Y-90353465D01*
X149570500Y-90146535D01*
X149570500Y-90146534D01*
X150009500Y-90146534D01*
X150009500Y-90146535D01*
X150009500Y-90353465D01*
X150049870Y-90556420D01*
X150053794Y-90565893D01*
X150129057Y-90747596D01*
X150244022Y-90919654D01*
X150390345Y-91065977D01*
X150562403Y-91180942D01*
X150641591Y-91213742D01*
X150753580Y-91260130D01*
X150956535Y-91300500D01*
X151163465Y-91300500D01*
X151366420Y-91260130D01*
X151557598Y-91180941D01*
X151729655Y-91065977D01*
X151875977Y-90919655D01*
X151990941Y-90747598D01*
X152070130Y-90556420D01*
X152110500Y-90353465D01*
X152110500Y-90146535D01*
X152070130Y-89943580D01*
X152023742Y-89831591D01*
X151990942Y-89752403D01*
X151875977Y-89580345D01*
X151729654Y-89434022D01*
X151557596Y-89319057D01*
X151399219Y-89253455D01*
X151366420Y-89239870D01*
X151366418Y-89239869D01*
X151366417Y-89239869D01*
X151163465Y-89199500D01*
X150956535Y-89199500D01*
X150753582Y-89239869D01*
X150562403Y-89319057D01*
X150390345Y-89434022D01*
X150244022Y-89580345D01*
X150129057Y-89752403D01*
X150049869Y-89943582D01*
X150009500Y-90146534D01*
X149570500Y-90146534D01*
X149530130Y-89943580D01*
X149483742Y-89831591D01*
X149450942Y-89752403D01*
X149335977Y-89580345D01*
X149189654Y-89434022D01*
X149017596Y-89319057D01*
X148859219Y-89253455D01*
X148826420Y-89239870D01*
X148826418Y-89239869D01*
X148826417Y-89239869D01*
X148623465Y-89199500D01*
X148416535Y-89199500D01*
X148213582Y-89239869D01*
X148022403Y-89319057D01*
X147850345Y-89434022D01*
X147704022Y-89580345D01*
X147589057Y-89752403D01*
X147509869Y-89943582D01*
X147469500Y-90146534D01*
X144490500Y-90146534D01*
X144490500Y-89380252D01*
X144478867Y-89321769D01*
X144434552Y-89255448D01*
X144368231Y-89211133D01*
X144368230Y-89211132D01*
X144309748Y-89199500D01*
X144076485Y-89199500D01*
X144001985Y-89179538D01*
X143947447Y-89125000D01*
X143927485Y-89050500D01*
X143947447Y-88976001D01*
X143966390Y-88943189D01*
X143966389Y-88943189D01*
X143966392Y-88943186D01*
X144000500Y-88815892D01*
X144000500Y-88684108D01*
X143966392Y-88556814D01*
X143914186Y-88466390D01*
X143900502Y-88442689D01*
X143900501Y-88442688D01*
X143900500Y-88442686D01*
X143807314Y-88349500D01*
X143807311Y-88349498D01*
X143807310Y-88349497D01*
X143729460Y-88304551D01*
X143693186Y-88283608D01*
X143565892Y-88249500D01*
X143434108Y-88249500D01*
X143306814Y-88283608D01*
X143306812Y-88283608D01*
X143306812Y-88283609D01*
X143192689Y-88349497D01*
X143099497Y-88442689D01*
X143033609Y-88556812D01*
X143033608Y-88556814D01*
X143033474Y-88557314D01*
X142999500Y-88684106D01*
X142999500Y-88815893D01*
X143033609Y-88943189D01*
X143052553Y-88976001D01*
X143072515Y-89050501D01*
X143052552Y-89125001D01*
X142998014Y-89179538D01*
X142923515Y-89199500D01*
X142570252Y-89199500D01*
X142511769Y-89211132D01*
X142445448Y-89255448D01*
X142401132Y-89321769D01*
X142389500Y-89380251D01*
X142389500Y-90182552D01*
X142369538Y-90257052D01*
X142315000Y-90311590D01*
X142240500Y-90331552D01*
X142166000Y-90311590D01*
X142111462Y-90257052D01*
X142074302Y-90192689D01*
X142074301Y-90192688D01*
X142074300Y-90192686D01*
X141981114Y-90099500D01*
X141981111Y-90099498D01*
X141981110Y-90099497D01*
X141910314Y-90058623D01*
X141866986Y-90033608D01*
X141739692Y-89999500D01*
X141607908Y-89999500D01*
X141480614Y-90033608D01*
X141480612Y-90033608D01*
X141480612Y-90033609D01*
X141366489Y-90099497D01*
X141273297Y-90192689D01*
X141236138Y-90257052D01*
X141207408Y-90306814D01*
X141200780Y-90331552D01*
X141173300Y-90434106D01*
X133000000Y-90434106D01*
X133000000Y-88882487D01*
X133019962Y-88807987D01*
X133074500Y-88753449D01*
X133110432Y-88738565D01*
X133193186Y-88716392D01*
X133307314Y-88650500D01*
X133400500Y-88557314D01*
X133466392Y-88443186D01*
X133500500Y-88315892D01*
X133500500Y-88184108D01*
X133466392Y-88056814D01*
X133416360Y-87970157D01*
X133400502Y-87942689D01*
X133400501Y-87942688D01*
X133400500Y-87942686D01*
X133391920Y-87934106D01*
X139499500Y-87934106D01*
X139499500Y-87934108D01*
X139499500Y-88065892D01*
X139533608Y-88193186D01*
X139533609Y-88193187D01*
X139599497Y-88307310D01*
X139599498Y-88307311D01*
X139599500Y-88307314D01*
X139692686Y-88400500D01*
X139806814Y-88466392D01*
X139934108Y-88500500D01*
X140065892Y-88500500D01*
X140193186Y-88466392D01*
X140307314Y-88400500D01*
X140400500Y-88307314D01*
X140466392Y-88193186D01*
X140500500Y-88065892D01*
X140500500Y-87934108D01*
X140466392Y-87806814D01*
X140452994Y-87783608D01*
X140428100Y-87740489D01*
X140428097Y-87740486D01*
X140400500Y-87692686D01*
X140307314Y-87599500D01*
X140259513Y-87571902D01*
X140259510Y-87571899D01*
X140193189Y-87533609D01*
X140193186Y-87533608D01*
X140065892Y-87499500D01*
X139934108Y-87499500D01*
X139806814Y-87533608D01*
X139806812Y-87533608D01*
X139806812Y-87533609D01*
X139692689Y-87599497D01*
X139599497Y-87692689D01*
X139547006Y-87783608D01*
X139533608Y-87806814D01*
X139517778Y-87865890D01*
X139499500Y-87934106D01*
X133391920Y-87934106D01*
X133307314Y-87849500D01*
X133307311Y-87849498D01*
X133307310Y-87849497D01*
X133233373Y-87806810D01*
X133193186Y-87783608D01*
X133124298Y-87765149D01*
X133110435Y-87761435D01*
X133043640Y-87722870D01*
X133005077Y-87656075D01*
X133000000Y-87617512D01*
X133000000Y-84882487D01*
X133019962Y-84807987D01*
X133074500Y-84753449D01*
X133110432Y-84738565D01*
X133193186Y-84716392D01*
X133307314Y-84650500D01*
X133400500Y-84557314D01*
X133466392Y-84443186D01*
X133500500Y-84315892D01*
X133500500Y-84184108D01*
X133466392Y-84056814D01*
X133400500Y-83942686D01*
X133307314Y-83849500D01*
X133307311Y-83849498D01*
X133307310Y-83849497D01*
X133236514Y-83808623D01*
X133193186Y-83783608D01*
X133124298Y-83765149D01*
X133110435Y-83761435D01*
X133043640Y-83722870D01*
X133005077Y-83656075D01*
X133000000Y-83617512D01*
X133000000Y-82684106D01*
X136249500Y-82684106D01*
X136249500Y-82684108D01*
X136249500Y-82815892D01*
X136283608Y-82943186D01*
X136283609Y-82943187D01*
X136349497Y-83057310D01*
X136349498Y-83057311D01*
X136349500Y-83057314D01*
X136442686Y-83150500D01*
X136556814Y-83216392D01*
X136684108Y-83250500D01*
X136815892Y-83250500D01*
X136943186Y-83216392D01*
X137057314Y-83150500D01*
X137150500Y-83057314D01*
X137216392Y-82943186D01*
X137250500Y-82815892D01*
X137250500Y-82684108D01*
X137216392Y-82556814D01*
X137150500Y-82442686D01*
X137057314Y-82349500D01*
X137057311Y-82349498D01*
X137057310Y-82349497D01*
X136983380Y-82306814D01*
X136943186Y-82283608D01*
X136815892Y-82249500D01*
X136684108Y-82249500D01*
X136556814Y-82283608D01*
X136556812Y-82283608D01*
X136556812Y-82283609D01*
X136442689Y-82349497D01*
X136349497Y-82442689D01*
X136283609Y-82556812D01*
X136249500Y-82684106D01*
X133000000Y-82684106D01*
X133000000Y-81132487D01*
X133019962Y-81057987D01*
X133074500Y-81003449D01*
X133110432Y-80988565D01*
X133193186Y-80966392D01*
X133307314Y-80900500D01*
X133400500Y-80807314D01*
X133466392Y-80693186D01*
X133500500Y-80565892D01*
X133500500Y-80434108D01*
X133466392Y-80306814D01*
X133400500Y-80192686D01*
X133307314Y-80099500D01*
X133307311Y-80099498D01*
X133307310Y-80099497D01*
X133234246Y-80057314D01*
X133193186Y-80033608D01*
X133124298Y-80015149D01*
X133110435Y-80011435D01*
X133043640Y-79972870D01*
X133005077Y-79906075D01*
X133000000Y-79867512D01*
X133000000Y-77382487D01*
X133019962Y-77307987D01*
X133074500Y-77253449D01*
X133110432Y-77238565D01*
X133193186Y-77216392D01*
X133307314Y-77150500D01*
X133400500Y-77057314D01*
X133466392Y-76943186D01*
X133500500Y-76815892D01*
X133500500Y-76684108D01*
X133466392Y-76556814D01*
X133400500Y-76442686D01*
X133307314Y-76349500D01*
X133307311Y-76349498D01*
X133307310Y-76349497D01*
X133234246Y-76307314D01*
X133193186Y-76283608D01*
X133124298Y-76265149D01*
X133110435Y-76261435D01*
X133043640Y-76222870D01*
X133005077Y-76156075D01*
X133000000Y-76117512D01*
X133000000Y-73507569D01*
X133019962Y-73433069D01*
X133074500Y-73378531D01*
X133149000Y-73358569D01*
X133223500Y-73378531D01*
X133278038Y-73433069D01*
X133279622Y-73436281D01*
X133283607Y-73443184D01*
X133283608Y-73443186D01*
X133283609Y-73443187D01*
X133349497Y-73557310D01*
X133349498Y-73557311D01*
X133349500Y-73557314D01*
X133442686Y-73650500D01*
X133556814Y-73716392D01*
X133684108Y-73750500D01*
X133815892Y-73750500D01*
X133943186Y-73716392D01*
X134057314Y-73650500D01*
X134150500Y-73557314D01*
X134216392Y-73443186D01*
X134250500Y-73315892D01*
X134250500Y-73184108D01*
X134216392Y-73056814D01*
X134150500Y-72942686D01*
X134057314Y-72849500D01*
X134057311Y-72849498D01*
X134057310Y-72849497D01*
X133986514Y-72808623D01*
X133943186Y-72783608D01*
X133815892Y-72749500D01*
X133684108Y-72749500D01*
X133556814Y-72783608D01*
X133556812Y-72783608D01*
X133556812Y-72783609D01*
X133442689Y-72849497D01*
X133349497Y-72942689D01*
X133278725Y-73065272D01*
X133275811Y-73063589D01*
X133239691Y-73110651D01*
X133168431Y-73140158D01*
X133091964Y-73130081D01*
X133030779Y-73083121D01*
X133001272Y-73011861D01*
X133000000Y-72992430D01*
X133000000Y-70684106D01*
X136749500Y-70684106D01*
X136749500Y-70684108D01*
X136749500Y-70815892D01*
X136783608Y-70943186D01*
X136783609Y-70943187D01*
X136849497Y-71057310D01*
X136849498Y-71057311D01*
X136849500Y-71057314D01*
X136942686Y-71150500D01*
X137056814Y-71216392D01*
X137184108Y-71250500D01*
X137315892Y-71250500D01*
X137443186Y-71216392D01*
X137557314Y-71150500D01*
X137650500Y-71057314D01*
X137716392Y-70943186D01*
X137750500Y-70815892D01*
X137750500Y-70684108D01*
X137716392Y-70556814D01*
X137650500Y-70442686D01*
X137557314Y-70349500D01*
X137557311Y-70349498D01*
X137557310Y-70349497D01*
X137484246Y-70307314D01*
X137443186Y-70283608D01*
X137315892Y-70249500D01*
X137184108Y-70249500D01*
X137056814Y-70283608D01*
X137056812Y-70283608D01*
X137056812Y-70283609D01*
X136942689Y-70349497D01*
X136849497Y-70442689D01*
X136783609Y-70556812D01*
X136749500Y-70684106D01*
X133000000Y-70684106D01*
X133000000Y-69007569D01*
X133019962Y-68933069D01*
X133074500Y-68878531D01*
X133149000Y-68858569D01*
X133223500Y-68878531D01*
X133278038Y-68933069D01*
X133279622Y-68936281D01*
X133283607Y-68943184D01*
X133283608Y-68943186D01*
X133283609Y-68943187D01*
X133349497Y-69057310D01*
X133349498Y-69057311D01*
X133349500Y-69057314D01*
X133442686Y-69150500D01*
X133556814Y-69216392D01*
X133684108Y-69250500D01*
X133815892Y-69250500D01*
X133943186Y-69216392D01*
X134057314Y-69150500D01*
X134150500Y-69057314D01*
X134216392Y-68943186D01*
X134238565Y-68860435D01*
X134277130Y-68793640D01*
X134343925Y-68755077D01*
X134382488Y-68750000D01*
X139367512Y-68750000D01*
X139442012Y-68769962D01*
G37*
%TD.AperFunction*%
%TD*%
M02*
