%TF.GenerationSoftware,KiCad,Pcbnew,10.0.1*%
%TF.CreationDate,2026-05-26T21:43:27-05:00*%
%TF.ProjectId,Meshtastic_LoRa,4d657368-7461-4737-9469-635f4c6f5261,rev?*%
%TF.SameCoordinates,Original*%
%TF.FileFunction,Paste,Top*%
%TF.FilePolarity,Positive*%
%FSLAX46Y46*%
G04 Gerber Fmt 4.6, Leading zero omitted, Abs format (unit mm)*
G04 Created by KiCad (PCBNEW 10.0.1) date 2026-05-26 21:43:27*
%MOMM*%
%LPD*%
G01*
G04 APERTURE LIST*
G04 Aperture macros list*
%AMRoundRect*
0 Rectangle with rounded corners*
0 $1 Rounding radius*
0 $2 $3 $4 $5 $6 $7 $8 $9 X,Y pos of 4 corners*
0 Add a 4 corners polygon primitive as box body*
4,1,4,$2,$3,$4,$5,$6,$7,$8,$9,$2,$3,0*
0 Add four circle primitives for the rounded corners*
1,1,$1+$1,$2,$3*
1,1,$1+$1,$4,$5*
1,1,$1+$1,$6,$7*
1,1,$1+$1,$8,$9*
0 Add four rect primitives between the rounded corners*
20,1,$1+$1,$2,$3,$4,$5,0*
20,1,$1+$1,$4,$5,$6,$7,0*
20,1,$1+$1,$6,$7,$8,$9,0*
20,1,$1+$1,$8,$9,$2,$3,0*%
G04 Aperture macros list end*
%ADD10C,0.010000*%
%ADD11RoundRect,0.200000X0.200000X0.275000X-0.200000X0.275000X-0.200000X-0.275000X0.200000X-0.275000X0*%
%ADD12RoundRect,0.237500X0.237500X-0.287500X0.237500X0.287500X-0.237500X0.287500X-0.237500X-0.287500X0*%
%ADD13RoundRect,0.225000X0.225000X0.250000X-0.225000X0.250000X-0.225000X-0.250000X0.225000X-0.250000X0*%
%ADD14RoundRect,0.225000X0.250000X-0.225000X0.250000X0.225000X-0.250000X0.225000X-0.250000X-0.225000X0*%
%ADD15RoundRect,0.225000X-0.225000X-0.250000X0.225000X-0.250000X0.225000X0.250000X-0.225000X0.250000X0*%
%ADD16RoundRect,0.237500X-0.237500X0.287500X-0.237500X-0.287500X0.237500X-0.287500X0.237500X0.287500X0*%
%ADD17RoundRect,0.200000X-0.200000X-0.275000X0.200000X-0.275000X0.200000X0.275000X-0.200000X0.275000X0*%
%ADD18R,0.220000X0.760000*%
%ADD19R,0.600000X1.150000*%
%ADD20R,0.300000X1.150000*%
%ADD21RoundRect,0.200000X-0.275000X0.200000X-0.275000X-0.200000X0.275000X-0.200000X0.275000X0.200000X0*%
%ADD22RoundRect,0.160000X-0.160000X0.245000X-0.160000X-0.245000X0.160000X-0.245000X0.160000X0.245000X0*%
%ADD23RoundRect,0.093750X-0.106250X0.093750X-0.106250X-0.093750X0.106250X-0.093750X0.106250X0.093750X0*%
%ADD24RoundRect,0.150000X-0.150000X0.650000X-0.150000X-0.650000X0.150000X-0.650000X0.150000X0.650000X0*%
%ADD25R,0.900000X0.900000*%
%ADD26R,1.500000X0.900000*%
%ADD27R,0.900000X1.500000*%
%ADD28RoundRect,0.200000X0.275000X-0.200000X0.275000X0.200000X-0.275000X0.200000X-0.275000X-0.200000X0*%
%ADD29R,0.250000X0.500000*%
%ADD30R,0.450000X0.500000*%
G04 APERTURE END LIST*
D10*
%TO.C,Battery Charger*%
X154725000Y-107785000D02*
X153775000Y-107785000D01*
X153775000Y-107215000D01*
X154725000Y-107215000D01*
X154725000Y-107785000D01*
G36*
X154725000Y-107785000D02*
G01*
X153775000Y-107785000D01*
X153775000Y-107215000D01*
X154725000Y-107215000D01*
X154725000Y-107785000D01*
G37*
%TD*%
D11*
%TO.C,R6*%
X159650000Y-92500000D03*
X158000000Y-92500000D03*
%TD*%
D12*
%TO.C,D3*%
X159750000Y-108662500D03*
X159750000Y-106912500D03*
%TD*%
%TO.C,D2*%
X157250000Y-108662500D03*
X157250000Y-106912500D03*
%TD*%
D13*
%TO.C,C9*%
X155025000Y-110750000D03*
X153475000Y-110750000D03*
%TD*%
D14*
%TO.C,C12*%
X158250000Y-96275000D03*
X158250000Y-94725000D03*
%TD*%
D15*
%TO.C,C13*%
X133975000Y-69750000D03*
X135525000Y-69750000D03*
%TD*%
D16*
%TO.C,D1*%
X159750000Y-99125000D03*
X159750000Y-100875000D03*
%TD*%
D15*
%TO.C,C10*%
X151975000Y-104500000D03*
X153525000Y-104500000D03*
%TD*%
D17*
%TO.C,R8*%
X157600000Y-112500000D03*
X159250000Y-112500000D03*
%TD*%
D14*
%TO.C,C15*%
X160255000Y-115520000D03*
X160255000Y-113970000D03*
%TD*%
D11*
%TO.C,R5*%
X158325000Y-115500000D03*
X156675000Y-115500000D03*
%TD*%
%TO.C,R7*%
X156400000Y-92500000D03*
X154750000Y-92500000D03*
%TD*%
D18*
%TO.C,Battery Charger*%
X153450000Y-108485000D03*
X153850000Y-108485000D03*
X154250000Y-108485000D03*
X154650000Y-108485000D03*
X155050000Y-108485000D03*
X155050000Y-106515000D03*
X154650000Y-106515000D03*
X154250000Y-106515000D03*
X153850000Y-106515000D03*
X153450000Y-106515000D03*
%TD*%
D19*
%TO.C,USB C*%
X143800000Y-120745000D03*
X144600000Y-120745000D03*
D20*
X145750000Y-120745000D03*
X146750000Y-120745000D03*
X147250000Y-120745000D03*
X148250000Y-120745000D03*
D19*
X150200000Y-120745000D03*
X149400000Y-120745000D03*
D20*
X148750000Y-120745000D03*
X147750000Y-120745000D03*
X146250000Y-120745000D03*
X145250000Y-120745000D03*
%TD*%
D15*
%TO.C,C14*%
X133975000Y-72000000D03*
X135525000Y-72000000D03*
%TD*%
D17*
%TO.C,R4*%
X135675000Y-115500000D03*
X137325000Y-115500000D03*
%TD*%
D21*
%TO.C,R11*%
X157250000Y-99175000D03*
X157250000Y-100825000D03*
%TD*%
%TO.C,R1*%
X142750000Y-116425000D03*
X142750000Y-118075000D03*
%TD*%
D22*
%TO.C,V Regulator*%
X156000000Y-95500000D03*
X155200000Y-95500000D03*
D23*
X156250000Y-94612500D03*
X155600000Y-94612500D03*
X154950000Y-94612500D03*
X154950000Y-96387500D03*
X155600000Y-96387500D03*
X156250000Y-96387500D03*
%TD*%
D24*
%TO.C,Radio*%
X143250000Y-99000000D03*
X141980000Y-99000000D03*
X140710000Y-99000000D03*
X139440000Y-99000000D03*
X138170000Y-99000000D03*
X136900000Y-99000000D03*
X135630000Y-99000000D03*
X134360000Y-99000000D03*
X138170000Y-109400000D03*
X139440000Y-109400000D03*
X140710000Y-109400000D03*
X141980000Y-109400000D03*
%TD*%
D25*
%TO.C,ESP32-S3*%
X144200000Y-74900000D03*
X144200000Y-76300000D03*
X144200000Y-77700000D03*
X145600000Y-74900000D03*
X145600000Y-76300000D03*
X145600000Y-77700000D03*
X147000000Y-74900000D03*
X147000000Y-76300000D03*
X147000000Y-77700000D03*
D26*
X138350000Y-68580000D03*
X138350000Y-69850000D03*
X138350000Y-71120000D03*
X138350000Y-72390000D03*
X138350000Y-73660000D03*
X138350000Y-74930000D03*
X138350000Y-76200000D03*
X138350000Y-77470000D03*
X138350000Y-78740000D03*
X138350000Y-80010000D03*
X138350000Y-81280000D03*
X138350000Y-82550000D03*
X138350000Y-83820000D03*
X138350000Y-85090000D03*
D27*
X140115000Y-86340000D03*
X141385000Y-86340000D03*
X142655000Y-86340000D03*
X143925000Y-86340000D03*
X145195000Y-86340000D03*
X146465000Y-86340000D03*
X147735000Y-86340000D03*
X149005000Y-86340000D03*
X150275000Y-86340000D03*
X151545000Y-86340000D03*
X152815000Y-86340000D03*
X154085000Y-86340000D03*
D26*
X155850000Y-85090000D03*
X155850000Y-83820000D03*
X155850000Y-82550000D03*
X155850000Y-81280000D03*
X155850000Y-80010000D03*
X155850000Y-78740000D03*
X155850000Y-77470000D03*
X155850000Y-76200000D03*
X155850000Y-74930000D03*
X155850000Y-73660000D03*
X155850000Y-72390000D03*
X155850000Y-71120000D03*
X155850000Y-69850000D03*
X155850000Y-68580000D03*
%TD*%
D21*
%TO.C,R9*%
X157250000Y-103175000D03*
X157250000Y-104825000D03*
%TD*%
D28*
%TO.C,R2*%
X151250000Y-118075000D03*
X151250000Y-116425000D03*
%TD*%
D21*
%TO.C,R10*%
X159750000Y-103175000D03*
X159750000Y-104825000D03*
%TD*%
D29*
%TO.C,ESD Protection*%
X146250000Y-117400000D03*
X146750000Y-117400000D03*
D30*
X147250000Y-117400000D03*
D29*
X147750000Y-117400000D03*
X148250000Y-117400000D03*
X148250000Y-116600000D03*
X147750000Y-116600000D03*
D30*
X147250000Y-116600000D03*
D29*
X146750000Y-116600000D03*
X146250000Y-116600000D03*
%TD*%
D15*
%TO.C,C11*%
X154725000Y-97750000D03*
X156275000Y-97750000D03*
%TD*%
M02*
