%TF.GenerationSoftware,KiCad,Pcbnew,10.0.1*%
%TF.CreationDate,2026-05-26T21:43:27-05:00*%
%TF.ProjectId,Meshtastic_LoRa,4d657368-7461-4737-9469-635f4c6f5261,rev?*%
%TF.SameCoordinates,Original*%
%TF.FileFunction,Copper,L1,Top*%
%TF.FilePolarity,Positive*%
%FSLAX46Y46*%
G04 Gerber Fmt 4.6, Leading zero omitted, Abs format (unit mm)*
G04 Created by KiCad (PCBNEW 10.0.1) date 2026-05-26 21:43:27*
%MOMM*%
%LPD*%
G01*
G04 APERTURE LIST*
G04 Aperture macros list*
%AMRoundRect*
0 Rectangle with rounded corners*
0 $1 Rounding radius*
0 $2 $3 $4 $5 $6 $7 $8 $9 X,Y pos of 4 corners*
0 Add a 4 corners polygon primitive as box body*
4,1,4,$2,$3,$4,$5,$6,$7,$8,$9,$2,$3,0*
0 Add four circle primitives for the rounded corners*
1,1,$1+$1,$2,$3*
1,1,$1+$1,$4,$5*
1,1,$1+$1,$6,$7*
1,1,$1+$1,$8,$9*
0 Add four rect primitives between the rounded corners*
20,1,$1+$1,$2,$3,$4,$5,0*
20,1,$1+$1,$4,$5,$6,$7,0*
20,1,$1+$1,$6,$7,$8,$9,0*
20,1,$1+$1,$8,$9,$2,$3,0*%
G04 Aperture macros list end*
%ADD10C,0.300000*%
%TA.AperFunction,NonConductor*%
%ADD11C,0.300000*%
%TD*%
%TA.AperFunction,NonConductor*%
%ADD12C,0.200000*%
%TD*%
%TA.AperFunction,SMDPad,CuDef*%
%ADD13RoundRect,0.200000X0.200000X0.275000X-0.200000X0.275000X-0.200000X-0.275000X0.200000X-0.275000X0*%
%TD*%
%TA.AperFunction,SMDPad,CuDef*%
%ADD14RoundRect,0.237500X0.237500X-0.287500X0.237500X0.287500X-0.237500X0.287500X-0.237500X-0.287500X0*%
%TD*%
%TA.AperFunction,SMDPad,CuDef*%
%ADD15RoundRect,0.225000X0.225000X0.250000X-0.225000X0.250000X-0.225000X-0.250000X0.225000X-0.250000X0*%
%TD*%
%TA.AperFunction,SMDPad,CuDef*%
%ADD16RoundRect,0.225000X0.250000X-0.225000X0.250000X0.225000X-0.250000X0.225000X-0.250000X-0.225000X0*%
%TD*%
%TA.AperFunction,ComponentPad*%
%ADD17C,2.000000*%
%TD*%
%TA.AperFunction,ComponentPad*%
%ADD18R,1.700000X1.700000*%
%TD*%
%TA.AperFunction,ComponentPad*%
%ADD19C,1.700000*%
%TD*%
%TA.AperFunction,SMDPad,CuDef*%
%ADD20RoundRect,0.225000X-0.225000X-0.250000X0.225000X-0.250000X0.225000X0.250000X-0.225000X0.250000X0*%
%TD*%
%TA.AperFunction,SMDPad,CuDef*%
%ADD21RoundRect,0.237500X-0.237500X0.287500X-0.237500X-0.287500X0.237500X-0.287500X0.237500X0.287500X0*%
%TD*%
%TA.AperFunction,SMDPad,CuDef*%
%ADD22RoundRect,0.200000X-0.200000X-0.275000X0.200000X-0.275000X0.200000X0.275000X-0.200000X0.275000X0*%
%TD*%
%TA.AperFunction,SMDPad,CuDef*%
%ADD23R,0.220000X0.760000*%
%TD*%
%TA.AperFunction,SMDPad,CuDef*%
%ADD24R,1.500000X0.900000*%
%TD*%
%TA.AperFunction,SMDPad,CuDef*%
%ADD25R,0.600000X1.150000*%
%TD*%
%TA.AperFunction,SMDPad,CuDef*%
%ADD26R,0.300000X1.150000*%
%TD*%
%TA.AperFunction,ComponentPad*%
%ADD27O,1.000000X2.100000*%
%TD*%
%TA.AperFunction,ComponentPad*%
%ADD28O,1.000000X1.800000*%
%TD*%
%TA.AperFunction,SMDPad,CuDef*%
%ADD29RoundRect,0.200000X-0.275000X0.200000X-0.275000X-0.200000X0.275000X-0.200000X0.275000X0.200000X0*%
%TD*%
%TA.AperFunction,SMDPad,CuDef*%
%ADD30RoundRect,0.093750X-0.106250X0.093750X-0.106250X-0.093750X0.106250X-0.093750X0.106250X0.093750X0*%
%TD*%
%TA.AperFunction,HeatsinkPad*%
%ADD31R,1.600000X1.000000*%
%TD*%
%TA.AperFunction,SMDPad,CuDef*%
%ADD32RoundRect,0.150000X-0.150000X0.650000X-0.150000X-0.650000X0.150000X-0.650000X0.150000X0.650000X0*%
%TD*%
%TA.AperFunction,SMDPad,CuDef*%
%ADD33R,0.900000X1.500000*%
%TD*%
%TA.AperFunction,HeatsinkPad*%
%ADD34C,0.600000*%
%TD*%
%TA.AperFunction,HeatsinkPad*%
%ADD35R,3.900000X3.900000*%
%TD*%
%TA.AperFunction,SMDPad,CuDef*%
%ADD36RoundRect,0.200000X0.275000X-0.200000X0.275000X0.200000X-0.275000X0.200000X-0.275000X-0.200000X0*%
%TD*%
%TA.AperFunction,SMDPad,CuDef*%
%ADD37R,0.250000X0.500000*%
%TD*%
%TA.AperFunction,SMDPad,CuDef*%
%ADD38R,0.450000X0.500000*%
%TD*%
%TA.AperFunction,ViaPad*%
%ADD39C,0.600000*%
%TD*%
%TA.AperFunction,Conductor*%
%ADD40C,0.304800*%
%TD*%
%TA.AperFunction,Conductor*%
%ADD41C,0.400000*%
%TD*%
%TA.AperFunction,Conductor*%
%ADD42C,0.200000*%
%TD*%
%TA.AperFunction,Conductor*%
%ADD43C,0.152400*%
%TD*%
%TA.AperFunction,Conductor*%
%ADD44C,0.300000*%
%TD*%
%TA.AperFunction,Conductor*%
%ADD45C,0.170180*%
%TD*%
G04 APERTURE END LIST*
D10*
D11*
X142594561Y-135628328D02*
X143523133Y-135628328D01*
X143523133Y-135628328D02*
X143023133Y-136199757D01*
X143023133Y-136199757D02*
X143237418Y-136199757D01*
X143237418Y-136199757D02*
X143380276Y-136271185D01*
X143380276Y-136271185D02*
X143451704Y-136342614D01*
X143451704Y-136342614D02*
X143523133Y-136485471D01*
X143523133Y-136485471D02*
X143523133Y-136842614D01*
X143523133Y-136842614D02*
X143451704Y-136985471D01*
X143451704Y-136985471D02*
X143380276Y-137056900D01*
X143380276Y-137056900D02*
X143237418Y-137128328D01*
X143237418Y-137128328D02*
X142808847Y-137128328D01*
X142808847Y-137128328D02*
X142665990Y-137056900D01*
X142665990Y-137056900D02*
X142594561Y-136985471D01*
X144451704Y-135628328D02*
X144594561Y-135628328D01*
X144594561Y-135628328D02*
X144737418Y-135699757D01*
X144737418Y-135699757D02*
X144808847Y-135771185D01*
X144808847Y-135771185D02*
X144880275Y-135914042D01*
X144880275Y-135914042D02*
X144951704Y-136199757D01*
X144951704Y-136199757D02*
X144951704Y-136556900D01*
X144951704Y-136556900D02*
X144880275Y-136842614D01*
X144880275Y-136842614D02*
X144808847Y-136985471D01*
X144808847Y-136985471D02*
X144737418Y-137056900D01*
X144737418Y-137056900D02*
X144594561Y-137128328D01*
X144594561Y-137128328D02*
X144451704Y-137128328D01*
X144451704Y-137128328D02*
X144308847Y-137056900D01*
X144308847Y-137056900D02*
X144237418Y-136985471D01*
X144237418Y-136985471D02*
X144165989Y-136842614D01*
X144165989Y-136842614D02*
X144094561Y-136556900D01*
X144094561Y-136556900D02*
X144094561Y-136199757D01*
X144094561Y-136199757D02*
X144165989Y-135914042D01*
X144165989Y-135914042D02*
X144237418Y-135771185D01*
X144237418Y-135771185D02*
X144308847Y-135699757D01*
X144308847Y-135699757D02*
X144451704Y-135628328D01*
X145594560Y-136985471D02*
X145665989Y-137056900D01*
X145665989Y-137056900D02*
X145594560Y-137128328D01*
X145594560Y-137128328D02*
X145523132Y-137056900D01*
X145523132Y-137056900D02*
X145594560Y-136985471D01*
X145594560Y-136985471D02*
X145594560Y-137128328D01*
X146594561Y-135628328D02*
X146737418Y-135628328D01*
X146737418Y-135628328D02*
X146880275Y-135699757D01*
X146880275Y-135699757D02*
X146951704Y-135771185D01*
X146951704Y-135771185D02*
X147023132Y-135914042D01*
X147023132Y-135914042D02*
X147094561Y-136199757D01*
X147094561Y-136199757D02*
X147094561Y-136556900D01*
X147094561Y-136556900D02*
X147023132Y-136842614D01*
X147023132Y-136842614D02*
X146951704Y-136985471D01*
X146951704Y-136985471D02*
X146880275Y-137056900D01*
X146880275Y-137056900D02*
X146737418Y-137128328D01*
X146737418Y-137128328D02*
X146594561Y-137128328D01*
X146594561Y-137128328D02*
X146451704Y-137056900D01*
X146451704Y-137056900D02*
X146380275Y-136985471D01*
X146380275Y-136985471D02*
X146308846Y-136842614D01*
X146308846Y-136842614D02*
X146237418Y-136556900D01*
X146237418Y-136556900D02*
X146237418Y-136199757D01*
X146237418Y-136199757D02*
X146308846Y-135914042D01*
X146308846Y-135914042D02*
X146380275Y-135771185D01*
X146380275Y-135771185D02*
X146451704Y-135699757D01*
X146451704Y-135699757D02*
X146594561Y-135628328D01*
X148380275Y-136128328D02*
X148380275Y-137128328D01*
X148023132Y-135556900D02*
X147665989Y-136628328D01*
X147665989Y-136628328D02*
X148594560Y-136628328D01*
X149808846Y-135628328D02*
X149523131Y-135628328D01*
X149523131Y-135628328D02*
X149380274Y-135699757D01*
X149380274Y-135699757D02*
X149308846Y-135771185D01*
X149308846Y-135771185D02*
X149165988Y-135985471D01*
X149165988Y-135985471D02*
X149094560Y-136271185D01*
X149094560Y-136271185D02*
X149094560Y-136842614D01*
X149094560Y-136842614D02*
X149165988Y-136985471D01*
X149165988Y-136985471D02*
X149237417Y-137056900D01*
X149237417Y-137056900D02*
X149380274Y-137128328D01*
X149380274Y-137128328D02*
X149665988Y-137128328D01*
X149665988Y-137128328D02*
X149808846Y-137056900D01*
X149808846Y-137056900D02*
X149880274Y-136985471D01*
X149880274Y-136985471D02*
X149951703Y-136842614D01*
X149951703Y-136842614D02*
X149951703Y-136485471D01*
X149951703Y-136485471D02*
X149880274Y-136342614D01*
X149880274Y-136342614D02*
X149808846Y-136271185D01*
X149808846Y-136271185D02*
X149665988Y-136199757D01*
X149665988Y-136199757D02*
X149380274Y-136199757D01*
X149380274Y-136199757D02*
X149237417Y-136271185D01*
X149237417Y-136271185D02*
X149165988Y-136342614D01*
X149165988Y-136342614D02*
X149094560Y-136485471D01*
X150451702Y-135628328D02*
X151380274Y-135628328D01*
X151380274Y-135628328D02*
X150880274Y-136199757D01*
X150880274Y-136199757D02*
X151094559Y-136199757D01*
X151094559Y-136199757D02*
X151237417Y-136271185D01*
X151237417Y-136271185D02*
X151308845Y-136342614D01*
X151308845Y-136342614D02*
X151380274Y-136485471D01*
X151380274Y-136485471D02*
X151380274Y-136842614D01*
X151380274Y-136842614D02*
X151308845Y-136985471D01*
X151308845Y-136985471D02*
X151237417Y-137056900D01*
X151237417Y-137056900D02*
X151094559Y-137128328D01*
X151094559Y-137128328D02*
X150665988Y-137128328D01*
X150665988Y-137128328D02*
X150523131Y-137056900D01*
X150523131Y-137056900D02*
X150451702Y-136985471D01*
D12*
X132000000Y-128717500D02*
X132000000Y-138836420D01*
X162046263Y-138836420D02*
X162046263Y-128717500D01*
X132000000Y-138250000D02*
X162046263Y-138250000D01*
X132000000Y-138250000D02*
X133126504Y-137663579D01*
X132000000Y-138250000D02*
X133126504Y-138836421D01*
X162046263Y-138250000D02*
X160919759Y-138836421D01*
X162046263Y-138250000D02*
X160919759Y-137663579D01*
D10*
D11*
X167878328Y-101376606D02*
X167878328Y-101662320D01*
X167878328Y-101662320D02*
X167949757Y-101805177D01*
X167949757Y-101805177D02*
X168021185Y-101876606D01*
X168021185Y-101876606D02*
X168235471Y-102019463D01*
X168235471Y-102019463D02*
X168521185Y-102090891D01*
X168521185Y-102090891D02*
X169092614Y-102090891D01*
X169092614Y-102090891D02*
X169235471Y-102019463D01*
X169235471Y-102019463D02*
X169306900Y-101948034D01*
X169306900Y-101948034D02*
X169378328Y-101805177D01*
X169378328Y-101805177D02*
X169378328Y-101519463D01*
X169378328Y-101519463D02*
X169306900Y-101376606D01*
X169306900Y-101376606D02*
X169235471Y-101305177D01*
X169235471Y-101305177D02*
X169092614Y-101233748D01*
X169092614Y-101233748D02*
X168735471Y-101233748D01*
X168735471Y-101233748D02*
X168592614Y-101305177D01*
X168592614Y-101305177D02*
X168521185Y-101376606D01*
X168521185Y-101376606D02*
X168449757Y-101519463D01*
X168449757Y-101519463D02*
X168449757Y-101805177D01*
X168449757Y-101805177D02*
X168521185Y-101948034D01*
X168521185Y-101948034D02*
X168592614Y-102019463D01*
X168592614Y-102019463D02*
X168735471Y-102090891D01*
X167878328Y-100305177D02*
X167878328Y-100162320D01*
X167878328Y-100162320D02*
X167949757Y-100019463D01*
X167949757Y-100019463D02*
X168021185Y-99948035D01*
X168021185Y-99948035D02*
X168164042Y-99876606D01*
X168164042Y-99876606D02*
X168449757Y-99805177D01*
X168449757Y-99805177D02*
X168806900Y-99805177D01*
X168806900Y-99805177D02*
X169092614Y-99876606D01*
X169092614Y-99876606D02*
X169235471Y-99948035D01*
X169235471Y-99948035D02*
X169306900Y-100019463D01*
X169306900Y-100019463D02*
X169378328Y-100162320D01*
X169378328Y-100162320D02*
X169378328Y-100305177D01*
X169378328Y-100305177D02*
X169306900Y-100448035D01*
X169306900Y-100448035D02*
X169235471Y-100519463D01*
X169235471Y-100519463D02*
X169092614Y-100590892D01*
X169092614Y-100590892D02*
X168806900Y-100662320D01*
X168806900Y-100662320D02*
X168449757Y-100662320D01*
X168449757Y-100662320D02*
X168164042Y-100590892D01*
X168164042Y-100590892D02*
X168021185Y-100519463D01*
X168021185Y-100519463D02*
X167949757Y-100448035D01*
X167949757Y-100448035D02*
X167878328Y-100305177D01*
X169235471Y-99162321D02*
X169306900Y-99090892D01*
X169306900Y-99090892D02*
X169378328Y-99162321D01*
X169378328Y-99162321D02*
X169306900Y-99233749D01*
X169306900Y-99233749D02*
X169235471Y-99162321D01*
X169235471Y-99162321D02*
X169378328Y-99162321D01*
X169378328Y-98376606D02*
X169378328Y-98090892D01*
X169378328Y-98090892D02*
X169306900Y-97948035D01*
X169306900Y-97948035D02*
X169235471Y-97876606D01*
X169235471Y-97876606D02*
X169021185Y-97733749D01*
X169021185Y-97733749D02*
X168735471Y-97662320D01*
X168735471Y-97662320D02*
X168164042Y-97662320D01*
X168164042Y-97662320D02*
X168021185Y-97733749D01*
X168021185Y-97733749D02*
X167949757Y-97805178D01*
X167949757Y-97805178D02*
X167878328Y-97948035D01*
X167878328Y-97948035D02*
X167878328Y-98233749D01*
X167878328Y-98233749D02*
X167949757Y-98376606D01*
X167949757Y-98376606D02*
X168021185Y-98448035D01*
X168021185Y-98448035D02*
X168164042Y-98519463D01*
X168164042Y-98519463D02*
X168521185Y-98519463D01*
X168521185Y-98519463D02*
X168664042Y-98448035D01*
X168664042Y-98448035D02*
X168735471Y-98376606D01*
X168735471Y-98376606D02*
X168806900Y-98233749D01*
X168806900Y-98233749D02*
X168806900Y-97948035D01*
X168806900Y-97948035D02*
X168735471Y-97805178D01*
X168735471Y-97805178D02*
X168664042Y-97733749D01*
X168664042Y-97733749D02*
X168521185Y-97662320D01*
X167878328Y-96376607D02*
X167878328Y-96662321D01*
X167878328Y-96662321D02*
X167949757Y-96805178D01*
X167949757Y-96805178D02*
X168021185Y-96876607D01*
X168021185Y-96876607D02*
X168235471Y-97019464D01*
X168235471Y-97019464D02*
X168521185Y-97090892D01*
X168521185Y-97090892D02*
X169092614Y-97090892D01*
X169092614Y-97090892D02*
X169235471Y-97019464D01*
X169235471Y-97019464D02*
X169306900Y-96948035D01*
X169306900Y-96948035D02*
X169378328Y-96805178D01*
X169378328Y-96805178D02*
X169378328Y-96519464D01*
X169378328Y-96519464D02*
X169306900Y-96376607D01*
X169306900Y-96376607D02*
X169235471Y-96305178D01*
X169235471Y-96305178D02*
X169092614Y-96233749D01*
X169092614Y-96233749D02*
X168735471Y-96233749D01*
X168735471Y-96233749D02*
X168592614Y-96305178D01*
X168592614Y-96305178D02*
X168521185Y-96376607D01*
X168521185Y-96376607D02*
X168449757Y-96519464D01*
X168449757Y-96519464D02*
X168449757Y-96805178D01*
X168449757Y-96805178D02*
X168521185Y-96948035D01*
X168521185Y-96948035D02*
X168592614Y-97019464D01*
X168592614Y-97019464D02*
X168735471Y-97090892D01*
X167878328Y-95733750D02*
X167878328Y-94733750D01*
X167878328Y-94733750D02*
X169378328Y-95376607D01*
X167878328Y-93448036D02*
X167878328Y-94162322D01*
X167878328Y-94162322D02*
X168592614Y-94233750D01*
X168592614Y-94233750D02*
X168521185Y-94162322D01*
X168521185Y-94162322D02*
X168449757Y-94019465D01*
X168449757Y-94019465D02*
X168449757Y-93662322D01*
X168449757Y-93662322D02*
X168521185Y-93519465D01*
X168521185Y-93519465D02*
X168592614Y-93448036D01*
X168592614Y-93448036D02*
X168735471Y-93376607D01*
X168735471Y-93376607D02*
X169092614Y-93376607D01*
X169092614Y-93376607D02*
X169235471Y-93448036D01*
X169235471Y-93448036D02*
X169306900Y-93519465D01*
X169306900Y-93519465D02*
X169378328Y-93662322D01*
X169378328Y-93662322D02*
X169378328Y-94019465D01*
X169378328Y-94019465D02*
X169306900Y-94162322D01*
X169306900Y-94162322D02*
X169235471Y-94233750D01*
D12*
X162546263Y-128217500D02*
X171086420Y-128217500D01*
X171086420Y-67250000D02*
X162500000Y-67250000D01*
X170500000Y-128217500D02*
X170500000Y-67250000D01*
X170500000Y-128217500D02*
X169913579Y-127090996D01*
X170500000Y-128217500D02*
X171086421Y-127090996D01*
X170500000Y-67250000D02*
X171086421Y-68376504D01*
X170500000Y-67250000D02*
X169913579Y-68376504D01*
D13*
%TO.P,R6,1*%
%TO.N,+3V3*%
X159650000Y-92500000D03*
%TO.P,R6,2*%
%TO.N,Net-(U5-FB)*%
X158000000Y-92500000D03*
%TD*%
D14*
%TO.P,D3,1,K_1*%
%TO.N,Net-(D3-K)*%
X159750000Y-108662500D03*
%TO.P,D3,2,A_2*%
%TO.N,Net-(D3-A)*%
X159750000Y-106912500D03*
%TD*%
%TO.P,D2,1,K_1*%
%TO.N,Net-(D2-K)*%
X157250000Y-108662500D03*
%TO.P,D2,2,A_2*%
%TO.N,Net-(D2-A)*%
X157250000Y-106912500D03*
%TD*%
D15*
%TO.P,C9,1*%
%TO.N,GND*%
X155025000Y-110750000D03*
%TO.P,C9,2*%
%TO.N,+5V*%
X153475000Y-110750000D03*
%TD*%
D16*
%TO.P,C12,1*%
%TO.N,GND*%
X158250000Y-96275000D03*
%TO.P,C12,2*%
%TO.N,+3V3*%
X158250000Y-94725000D03*
%TD*%
D17*
%TO.P,Boot,1,1_1*%
%TO.N,GND*%
X134250000Y-125250000D03*
X134250000Y-118750000D03*
%TO.P,Boot,2,2_2*%
%TO.N,Net-(U1-IO0)*%
X138750000Y-125250000D03*
X138750000Y-118750000D03*
%TD*%
D18*
%TO.P,Battery1,1,Pin_1_1*%
%TO.N,+BATT*%
X151500000Y-101775000D03*
D19*
%TO.P,Battery1,2,Pin_2_2*%
%TO.N,GND*%
X151500000Y-99235000D03*
%TD*%
D17*
%TO.P,Reset,1,1_1*%
%TO.N,GND*%
X155250000Y-125250000D03*
X155250000Y-118750000D03*
%TO.P,Reset,2,2_2*%
%TO.N,Net-(U1-EN)*%
X159750000Y-125250000D03*
X159750000Y-118750000D03*
%TD*%
D20*
%TO.P,C13,1*%
%TO.N,GND*%
X133975000Y-69750000D03*
%TO.P,C13,2*%
%TO.N,+3V3*%
X135525000Y-69750000D03*
%TD*%
D21*
%TO.P,D1,1,K_1*%
%TO.N,GND*%
X159750000Y-99125000D03*
%TO.P,D1,2,A_2*%
%TO.N,Net-(D1-A)*%
X159750000Y-100875000D03*
%TD*%
D20*
%TO.P,C10,1*%
%TO.N,GND*%
X151975000Y-104500000D03*
%TO.P,C10,2*%
%TO.N,+BATT*%
X153525000Y-104500000D03*
%TD*%
D22*
%TO.P,R8,1*%
%TO.N,Net-(U4-ISET)*%
X157600000Y-112500000D03*
%TO.P,R8,2*%
%TO.N,GND*%
X159250000Y-112500000D03*
%TD*%
D18*
%TO.P,Output1,1,Pin_1_1*%
%TO.N,GND*%
X159250000Y-87310000D03*
D19*
%TO.P,Output1,2,Pin_2_2*%
%TO.N,+3V3*%
X159250000Y-84770000D03*
%TO.P,Output1,3,Pin_3_3*%
%TO.N,/SCL*%
X159250000Y-82230000D03*
%TO.P,Output1,4,Pin_4_4*%
%TO.N,/SDA*%
X159250000Y-79690000D03*
%TD*%
D16*
%TO.P,C15,1*%
%TO.N,Net-(U1-EN)*%
X160255000Y-115520000D03*
%TO.P,C15,2*%
%TO.N,GND*%
X160255000Y-113970000D03*
%TD*%
D13*
%TO.P,R5,1*%
%TO.N,Net-(U1-EN)*%
X158325000Y-115500000D03*
%TO.P,R5,2*%
%TO.N,+3V3*%
X156675000Y-115500000D03*
%TD*%
%TO.P,R7,1*%
%TO.N,Net-(U5-FB)*%
X156400000Y-92500000D03*
%TO.P,R7,2*%
%TO.N,GND*%
X154750000Y-92500000D03*
%TD*%
D23*
%TO.P,Battery Charger,1,IN_1*%
%TO.N,+5V*%
X153450000Y-108485000D03*
%TO.P,Battery Charger,2,ISET_2*%
%TO.N,Net-(U4-ISET)*%
X153850000Y-108485000D03*
%TO.P,Battery Charger,3,VSS_3*%
%TO.N,GND*%
X154250000Y-108485000D03*
%TO.P,Battery Charger,4,PRETERM_4*%
%TO.N,unconnected-(U4-PRETERM-Pad4)*%
X154650000Y-108485000D03*
%TO.P,Battery Charger,5,~{PG}_5*%
%TO.N,Net-(D2-K)*%
X155050000Y-108485000D03*
%TO.P,Battery Charger,6*%
%TO.N,N/C*%
X155050000Y-106515000D03*
%TO.P,Battery Charger,7,ISET2_7*%
%TO.N,GND*%
X154650000Y-106515000D03*
%TO.P,Battery Charger,8,~{CHG}_8*%
%TO.N,Net-(D3-K)*%
X154250000Y-106515000D03*
%TO.P,Battery Charger,9,TS_9*%
%TO.N,unconnected-(U4-TS-Pad9)*%
X153850000Y-106515000D03*
%TO.P,Battery Charger,10,OUT_10*%
%TO.N,+BATT*%
X153450000Y-106515000D03*
D24*
%TO.P,Battery Charger,11,EXP_11*%
%TO.N,GND*%
X154250000Y-107500000D03*
%TD*%
D25*
%TO.P,USB C,A1_B12,GND_A1_B12*%
%TO.N,GND*%
X143800000Y-120745000D03*
%TO.P,USB C,A4_B9,VBUS_A4_B9*%
%TO.N,+5V*%
X144600000Y-120745000D03*
D26*
%TO.P,USB C,A5,CC1_A5*%
%TO.N,Net-(J1-CC1)*%
X145750000Y-120745000D03*
%TO.P,USB C,A6,DP1_A6*%
%TO.N,/D+*%
X146750000Y-120745000D03*
%TO.P,USB C,A7,DN1_A7*%
%TO.N,/D-*%
X147250000Y-120745000D03*
%TO.P,USB C,A8,SBU1_A8*%
%TO.N,unconnected-(J1-SBU1-PadA8)*%
X148250000Y-120745000D03*
D25*
%TO.P,USB C,B1_A12,GND_B1_A12*%
%TO.N,GND*%
X150200000Y-120745000D03*
%TO.P,USB C,B4_A9,VBUS_B4_A9*%
%TO.N,+5V*%
X149400000Y-120745000D03*
D26*
%TO.P,USB C,B5,CC2_B5*%
%TO.N,Net-(J1-CC2)*%
X148750000Y-120745000D03*
%TO.P,USB C,B6,DP2_B6*%
%TO.N,/D+*%
X147750000Y-120745000D03*
%TO.P,USB C,B7,DN2_B7*%
%TO.N,/D-*%
X146250000Y-120745000D03*
%TO.P,USB C,B8,SBU2_B8*%
%TO.N,unconnected-(J1-SBU2-PadB8)*%
X145250000Y-120745000D03*
D27*
%TO.P,USB C,SH1,SHELL_GND_SH1*%
%TO.N,GND*%
X142680000Y-121320000D03*
%TO.P,USB C,SH2,SHELL_GND_SH2*%
X151320000Y-121320000D03*
D28*
%TO.P,USB C,SH3,SHELL_GND_SH3*%
X142680000Y-125500000D03*
%TO.P,USB C,SH4,SHELL_GND_SH4*%
X151320000Y-125500000D03*
%TD*%
D20*
%TO.P,C14,1*%
%TO.N,GND*%
X133975000Y-72000000D03*
%TO.P,C14,2*%
%TO.N,+3V3*%
X135525000Y-72000000D03*
%TD*%
D22*
%TO.P,R4,1*%
%TO.N,Net-(U1-IO0)*%
X135675000Y-115500000D03*
%TO.P,R4,2*%
%TO.N,+3V3*%
X137325000Y-115500000D03*
%TD*%
D29*
%TO.P,R11,1*%
%TO.N,+3V3*%
X157250000Y-99175000D03*
%TO.P,R11,2*%
%TO.N,Net-(D1-A)*%
X157250000Y-100825000D03*
%TD*%
%TO.P,R1,1*%
%TO.N,GND*%
X142750000Y-116425000D03*
%TO.P,R1,2*%
%TO.N,Net-(J1-CC1)*%
X142750000Y-118075000D03*
%TD*%
D18*
%TO.P,OLED,1,Pin_1_1*%
%TO.N,GND*%
X143440000Y-90250000D03*
D19*
%TO.P,OLED,2,Pin_2_2*%
%TO.N,+3V3*%
X145980000Y-90250000D03*
%TO.P,OLED,3,Pin_3_3*%
%TO.N,/SCL*%
X148520000Y-90250000D03*
%TO.P,OLED,4,Pin_4_4*%
%TO.N,/SDA*%
X151060000Y-90250000D03*
%TD*%
D30*
%TO.P,V Regulator,1,OUT_1*%
%TO.N,+3V3*%
X156250000Y-94612500D03*
%TO.P,V Regulator,2,FB_2*%
%TO.N,Net-(U5-FB)*%
X155600000Y-94612500D03*
%TO.P,V Regulator,3,GND_3*%
%TO.N,GND*%
X154950000Y-94612500D03*
%TO.P,V Regulator,4,EN_4*%
%TO.N,+BATT*%
X154950000Y-96387500D03*
%TO.P,V Regulator,5,DNC_5*%
%TO.N,unconnected-(U5-DNC-Pad5)*%
X155600000Y-96387500D03*
%TO.P,V Regulator,6,IN_6*%
%TO.N,+BATT*%
X156250000Y-96387500D03*
D31*
%TO.P,V Regulator,7,GND_7*%
%TO.N,GND*%
X155600000Y-95500000D03*
%TD*%
D32*
%TO.P,Radio,1,RF_SW1_1*%
%TO.N,/RF_SW1*%
X143250000Y-99000000D03*
%TO.P,Radio,2,MISO_2*%
%TO.N,/MISO*%
X141980000Y-99000000D03*
%TO.P,Radio,3,MOSI_3*%
%TO.N,/MOSI*%
X140710000Y-99000000D03*
%TO.P,Radio,4,SCK_4*%
%TO.N,/SCK*%
X139440000Y-99000000D03*
%TO.P,Radio,5,RST_5*%
%TO.N,/RESET*%
X138170000Y-99000000D03*
%TO.P,Radio,6,NSS_6*%
%TO.N,/NSS*%
X136900000Y-99000000D03*
%TO.P,Radio,7,GND1_7*%
%TO.N,GND*%
X135630000Y-99000000D03*
%TO.P,Radio,8,VCC_8*%
%TO.N,+3V3*%
X134360000Y-99000000D03*
%TO.P,Radio,9,ANT_9*%
%TO.N,unconnected-(U3-ANT-Pad9)*%
X138170000Y-109400000D03*
%TO.P,Radio,10,GND2_10*%
%TO.N,GND*%
X139440000Y-109400000D03*
%TO.P,Radio,11,BUSY_11*%
%TO.N,/BUSY*%
X140710000Y-109400000D03*
%TO.P,Radio,12,DIO1_12*%
%TO.N,/DIO1*%
X141980000Y-109400000D03*
%TD*%
D24*
%TO.P,ESP32-S3,1,GND_1*%
%TO.N,GND*%
X138350000Y-68580000D03*
%TO.P,ESP32-S3,2,3V3_2*%
%TO.N,+3V3*%
X138350000Y-69850000D03*
%TO.P,ESP32-S3,3,EN_3*%
%TO.N,Net-(U1-EN)*%
X138350000Y-71120000D03*
%TO.P,ESP32-S3,4,IO4_4*%
%TO.N,/BUSY*%
X138350000Y-72390000D03*
%TO.P,ESP32-S3,5,IO5_5*%
%TO.N,/SCK*%
X138350000Y-73660000D03*
%TO.P,ESP32-S3,6,IO6_6*%
%TO.N,/MOSI*%
X138350000Y-74930000D03*
%TO.P,ESP32-S3,7,IO7_7*%
%TO.N,/MISO*%
X138350000Y-76200000D03*
%TO.P,ESP32-S3,8,IO15_8*%
%TO.N,unconnected-(U1-IO15-Pad8)*%
X138350000Y-77470000D03*
%TO.P,ESP32-S3,9,IO16_9*%
%TO.N,unconnected-(U1-IO16-Pad9)*%
X138350000Y-78740000D03*
%TO.P,ESP32-S3,10,IO17_10*%
%TO.N,unconnected-(U1-IO17-Pad10)*%
X138350000Y-80010000D03*
%TO.P,ESP32-S3,11,IO18_11*%
%TO.N,unconnected-(U1-IO18-Pad11)*%
X138350000Y-81280000D03*
%TO.P,ESP32-S3,12,IO8_12*%
%TO.N,/NSS*%
X138350000Y-82550000D03*
%TO.P,ESP32-S3,13,USB_D-_13*%
%TO.N,/D-*%
X138350000Y-83820000D03*
%TO.P,ESP32-S3,14,USB_D+_14*%
%TO.N,/D+*%
X138350000Y-85090000D03*
D33*
%TO.P,ESP32-S3,15,IO3_15*%
%TO.N,/RESET*%
X140115000Y-86340000D03*
%TO.P,ESP32-S3,16,IO46_16*%
%TO.N,unconnected-(U1-IO46-Pad16)*%
X141385000Y-86340000D03*
%TO.P,ESP32-S3,17,IO9_17*%
%TO.N,/DIO1*%
X142655000Y-86340000D03*
%TO.P,ESP32-S3,18,IO10_18*%
%TO.N,/RF_SW1*%
X143925000Y-86340000D03*
%TO.P,ESP32-S3,19,IO11_19*%
%TO.N,unconnected-(U1-IO11-Pad19)*%
X145195000Y-86340000D03*
%TO.P,ESP32-S3,20,IO12_20*%
%TO.N,/SDA*%
X146465000Y-86340000D03*
%TO.P,ESP32-S3,21,IO13_21*%
%TO.N,/SCL*%
X147735000Y-86340000D03*
%TO.P,ESP32-S3,22,IO14_22*%
%TO.N,unconnected-(U1-IO14-Pad22)*%
X149005000Y-86340000D03*
%TO.P,ESP32-S3,23,IO21_23*%
%TO.N,unconnected-(U1-IO21-Pad23)*%
X150275000Y-86340000D03*
%TO.P,ESP32-S3,24,IO47_24*%
%TO.N,unconnected-(U1-IO47-Pad24)*%
X151545000Y-86340000D03*
%TO.P,ESP32-S3,25,IO48_25*%
%TO.N,unconnected-(U1-IO48-Pad25)*%
X152815000Y-86340000D03*
%TO.P,ESP32-S3,26,IO45_26*%
%TO.N,unconnected-(U1-IO45-Pad26)*%
X154085000Y-86340000D03*
D24*
%TO.P,ESP32-S3,27,IO0_27*%
%TO.N,Net-(U1-IO0)*%
X155850000Y-85090000D03*
%TO.P,ESP32-S3,28,IO35_28*%
%TO.N,unconnected-(U1-IO35-Pad28)*%
X155850000Y-83820000D03*
%TO.P,ESP32-S3,29,IO36_29*%
%TO.N,unconnected-(U1-IO36-Pad29)*%
X155850000Y-82550000D03*
%TO.P,ESP32-S3,30,IO37_30*%
%TO.N,unconnected-(U1-IO37-Pad30)*%
X155850000Y-81280000D03*
%TO.P,ESP32-S3,31,IO38_31*%
%TO.N,unconnected-(U1-IO38-Pad31)*%
X155850000Y-80010000D03*
%TO.P,ESP32-S3,32,IO39_32*%
%TO.N,unconnected-(U1-IO39-Pad32)*%
X155850000Y-78740000D03*
%TO.P,ESP32-S3,33,IO40_33*%
%TO.N,unconnected-(U1-IO40-Pad33)*%
X155850000Y-77470000D03*
%TO.P,ESP32-S3,34,IO41_34*%
%TO.N,unconnected-(U1-IO41-Pad34)*%
X155850000Y-76200000D03*
%TO.P,ESP32-S3,35,IO42_35*%
%TO.N,unconnected-(U1-IO42-Pad35)*%
X155850000Y-74930000D03*
%TO.P,ESP32-S3,36,RXD0_36*%
%TO.N,unconnected-(U1-RXD0-Pad36)*%
X155850000Y-73660000D03*
%TO.P,ESP32-S3,37,TXD0_37*%
%TO.N,unconnected-(U1-TXD0-Pad37)*%
X155850000Y-72390000D03*
%TO.P,ESP32-S3,38,IO2_38*%
%TO.N,unconnected-(U1-IO2-Pad38)*%
X155850000Y-71120000D03*
%TO.P,ESP32-S3,39,IO1_39*%
%TO.N,unconnected-(U1-IO1-Pad39)*%
X155850000Y-69850000D03*
%TO.P,ESP32-S3,40,GND_40*%
%TO.N,GND*%
X155850000Y-68580000D03*
D34*
%TO.P,ESP32-S3,41,GND_41*%
X144200000Y-75600000D03*
X144200000Y-77000000D03*
X144900000Y-74900000D03*
X144900000Y-76300000D03*
X144900000Y-77700000D03*
X145600000Y-75600000D03*
D35*
X145600000Y-76300000D03*
D34*
X145600000Y-77000000D03*
X146300000Y-74900000D03*
X146300000Y-76300000D03*
X146300000Y-77700000D03*
X147000000Y-75600000D03*
X147000000Y-77000000D03*
%TD*%
D29*
%TO.P,R9,1*%
%TO.N,+BATT*%
X157250000Y-103175000D03*
%TO.P,R9,2*%
%TO.N,Net-(D2-A)*%
X157250000Y-104825000D03*
%TD*%
D36*
%TO.P,R2,1*%
%TO.N,Net-(J1-CC2)*%
X151250000Y-118075000D03*
%TO.P,R2,2*%
%TO.N,GND*%
X151250000Y-116425000D03*
%TD*%
D29*
%TO.P,R10,1*%
%TO.N,+BATT*%
X159750000Y-103175000D03*
%TO.P,R10,2*%
%TO.N,Net-(D3-A)*%
X159750000Y-104825000D03*
%TD*%
D37*
%TO.P,ESD Protection,1,I/O_1_1*%
%TO.N,unconnected-(U6-I{slash}O_1-Pad1)*%
X146250000Y-117400000D03*
%TO.P,ESD Protection,2,I/O_2_2*%
%TO.N,+5V*%
X146750000Y-117400000D03*
D38*
%TO.P,ESD Protection,3,GND_3*%
%TO.N,GND*%
X147250000Y-117400000D03*
D37*
%TO.P,ESD Protection,4,I/O_4_4*%
%TO.N,/D-*%
X147750000Y-117400000D03*
%TO.P,ESD Protection,5,I/O_5_5*%
%TO.N,/D+*%
X148250000Y-117400000D03*
%TO.P,ESD Protection,6,6_6*%
X148250000Y-116600000D03*
%TO.P,ESD Protection,7,7_7*%
%TO.N,/D-*%
X147750000Y-116600000D03*
D38*
%TO.P,ESD Protection,8,GND__1_8*%
%TO.N,GND*%
X147250000Y-116600000D03*
D37*
%TO.P,ESD Protection,9,9_9*%
%TO.N,+5V*%
X146750000Y-116600000D03*
%TO.P,ESD Protection,10,10_10*%
%TO.N,unconnected-(U6-Pad10)*%
X146250000Y-116600000D03*
%TD*%
D20*
%TO.P,C11,1*%
%TO.N,GND*%
X154725000Y-97750000D03*
%TO.P,C11,2*%
%TO.N,+BATT*%
X156275000Y-97750000D03*
%TD*%
D39*
%TO.N,+3V3*%
X137500000Y-114250000D03*
X160250000Y-89250000D03*
X157000000Y-89250000D03*
X138500000Y-115500000D03*
X159500000Y-95500000D03*
X159500000Y-94750000D03*
X158500000Y-99000000D03*
X157250000Y-116500000D03*
X136750000Y-71750000D03*
X158250000Y-89250000D03*
X160500000Y-94000000D03*
X145250000Y-91750000D03*
X158000000Y-93750000D03*
X146500000Y-92000000D03*
X159250000Y-89250000D03*
X134500000Y-97250000D03*
X134500000Y-71000000D03*
X157000000Y-114250000D03*
X134500000Y-100500000D03*
%TO.N,GND*%
X143250000Y-95750000D03*
X146250000Y-68000000D03*
X143500000Y-101750000D03*
X151750000Y-76000000D03*
X153250000Y-81000000D03*
X158000000Y-86750000D03*
X149750000Y-72000000D03*
X146250000Y-108000000D03*
X150250000Y-76000000D03*
X138250000Y-121750000D03*
X153250000Y-97750000D03*
X146250000Y-80500000D03*
X155500000Y-104500000D03*
X140250000Y-95500000D03*
X152250000Y-107000000D03*
X141000000Y-74250000D03*
X142750000Y-80500000D03*
X135500000Y-100500000D03*
X151750000Y-70250000D03*
X150250000Y-78250000D03*
X145750000Y-97500000D03*
X154250000Y-117500000D03*
X142750000Y-70250000D03*
X142750000Y-76250000D03*
X152750000Y-100000000D03*
X161000000Y-99000000D03*
X141000000Y-76250000D03*
X149000000Y-101750000D03*
X151750000Y-72000000D03*
X149000000Y-111500000D03*
X154250000Y-68500000D03*
X146250000Y-105250000D03*
X152000000Y-96250000D03*
X146250000Y-70250000D03*
X149750000Y-70250000D03*
X155500000Y-123250000D03*
X146250000Y-101750000D03*
X143500000Y-92000000D03*
X142750000Y-72000000D03*
X143500000Y-122500000D03*
X152750000Y-125500000D03*
X150500000Y-122500000D03*
X151000000Y-108000000D03*
X134500000Y-108000000D03*
X141000000Y-68000000D03*
X133250000Y-117750000D03*
X138750000Y-116750000D03*
X148500000Y-82500000D03*
X144500000Y-82500000D03*
X144500000Y-84500000D03*
X148000000Y-70250000D03*
X159750000Y-121750000D03*
X139250000Y-92000000D03*
X150250000Y-74250000D03*
X147045732Y-94454268D03*
X151750000Y-74250000D03*
X140000000Y-105250000D03*
X146250000Y-73500000D03*
X149000000Y-96750000D03*
X141000000Y-80500000D03*
X156000000Y-112500000D03*
X141000000Y-82500000D03*
X146250000Y-72000000D03*
X153000000Y-84250000D03*
X152250000Y-98000000D03*
X149750000Y-68000000D03*
X141000000Y-125500000D03*
X134500000Y-112500000D03*
X141000000Y-78500000D03*
X159250000Y-70000000D03*
X143000000Y-119750000D03*
X141673800Y-90500000D03*
X145500000Y-124500000D03*
X134500000Y-105250000D03*
X150500000Y-126750000D03*
X144500000Y-73500000D03*
X160500000Y-87000000D03*
X160750000Y-113250000D03*
X144750000Y-110750000D03*
X153500000Y-92500000D03*
X151750000Y-78250000D03*
X149750000Y-116750000D03*
X149000000Y-95000000D03*
X148500000Y-76000000D03*
X150750000Y-84250000D03*
X144500000Y-79250000D03*
X153750000Y-95500000D03*
X153500000Y-70250000D03*
X141250000Y-121250000D03*
X133750000Y-68750000D03*
X153500000Y-72000000D03*
X144500000Y-70250000D03*
X153500000Y-78250000D03*
X143500000Y-105250000D03*
X148250000Y-79250000D03*
X144250000Y-116750000D03*
X160250000Y-112500000D03*
X133000000Y-76750000D03*
X146250000Y-109500000D03*
X148000000Y-72000000D03*
X148500000Y-74250000D03*
X151000000Y-119750000D03*
X149000000Y-105250000D03*
X153500000Y-68000000D03*
X133000000Y-80500000D03*
X157000000Y-118500000D03*
X133000000Y-84250000D03*
X146250000Y-79250000D03*
X148500000Y-78250000D03*
X133000000Y-95750000D03*
X144500000Y-72000000D03*
X147250000Y-80500000D03*
X135500000Y-118250000D03*
X133000000Y-88250000D03*
X154250000Y-126500000D03*
X143250000Y-108000000D03*
X144500000Y-68000000D03*
X146250000Y-81500000D03*
X143000000Y-112250000D03*
X159250000Y-73500000D03*
X152000000Y-105500000D03*
X140000000Y-101750000D03*
X133500000Y-126500000D03*
X153500000Y-74250000D03*
X141000000Y-70250000D03*
X141000000Y-84500000D03*
X142750000Y-82500000D03*
X142750000Y-74250000D03*
X143500000Y-126750000D03*
X142750000Y-68000000D03*
X152750000Y-119250000D03*
X133750000Y-73250000D03*
X157750000Y-68500000D03*
X153500000Y-76000000D03*
X148000000Y-68000000D03*
X142750000Y-78500000D03*
X134500000Y-121750000D03*
X144500000Y-80500000D03*
X139500000Y-110750000D03*
X159250000Y-76250000D03*
X142750000Y-84500000D03*
X138750000Y-112500000D03*
X151750000Y-68000000D03*
X147250000Y-115500000D03*
X140000000Y-68750000D03*
X150652400Y-98000000D03*
X143500000Y-88750000D03*
X148750000Y-124500000D03*
X133000000Y-92000000D03*
X147250000Y-79250000D03*
X149250000Y-81000000D03*
X141000000Y-72000000D03*
X158250000Y-97250000D03*
X156000000Y-109250000D03*
%TO.N,+5V*%
X144750000Y-119500000D03*
X150250000Y-119250000D03*
X153500000Y-111750000D03*
X152500000Y-111000000D03*
X145250000Y-117500000D03*
X144500000Y-118750000D03*
X149500000Y-119500000D03*
X146250000Y-118500000D03*
X146000000Y-115500000D03*
X146000000Y-114500000D03*
%TO.N,Net-(U1-IO0)*%
X135750000Y-114250000D03*
X155500000Y-86000000D03*
%TO.N,Net-(U1-EN)*%
X137250000Y-70750000D03*
X158500000Y-114250000D03*
%TO.N,/SCL*%
X147750000Y-85000000D03*
X157500000Y-82250000D03*
%TO.N,/SDA*%
X157500000Y-79750000D03*
X146500000Y-85000000D03*
%TO.N,/RF_SW1*%
X144500000Y-87750000D03*
X143250000Y-97750000D03*
%TO.N,/RESET*%
X138000000Y-97500000D03*
X140000000Y-88000000D03*
%TO.N,/NSS*%
X136750000Y-82750000D03*
X136750000Y-97500000D03*
%TO.N,/DIO1*%
X142250000Y-88000000D03*
X142000000Y-111000000D03*
%TD*%
%TO.N,+3V3*%
D40*
X159500000Y-95500000D02*
X159500000Y-94750000D01*
X156250000Y-94612500D02*
X158137500Y-94612500D01*
X158250000Y-94725000D02*
X158250000Y-94000000D01*
X134525000Y-71000000D02*
X135525000Y-72000000D01*
X157000000Y-115175000D02*
X156675000Y-115500000D01*
X134500000Y-97250000D02*
X134500000Y-98860000D01*
D41*
X135525000Y-72000000D02*
X135525000Y-69750000D01*
D40*
X136750000Y-71750000D02*
X135775000Y-71750000D01*
X134500000Y-71000000D02*
X134525000Y-71000000D01*
X157250000Y-116075000D02*
X156675000Y-115500000D01*
X158500000Y-99000000D02*
X157425000Y-99000000D01*
X159500000Y-94750000D02*
X158275000Y-94750000D01*
X159500000Y-95500000D02*
X159025000Y-95500000D01*
X146500000Y-92000000D02*
X146500000Y-90770000D01*
D41*
X138350000Y-69850000D02*
X135625000Y-69850000D01*
D40*
X134500000Y-100500000D02*
X134500000Y-99140000D01*
X134500000Y-98860000D02*
X134360000Y-99000000D01*
X135775000Y-71750000D02*
X135525000Y-72000000D01*
X159750000Y-94750000D02*
X160500000Y-94000000D01*
X157250000Y-116500000D02*
X157250000Y-116075000D01*
X157000000Y-114250000D02*
X157000000Y-115175000D01*
X134500000Y-99140000D02*
X134360000Y-99000000D01*
D42*
X135625000Y-69850000D02*
X135525000Y-69750000D01*
D40*
X145250000Y-91750000D02*
X145250000Y-90980000D01*
X158275000Y-94750000D02*
X158250000Y-94725000D01*
X159650000Y-93325000D02*
X158250000Y-94725000D01*
X138500000Y-115500000D02*
X137325000Y-115500000D01*
X159025000Y-95500000D02*
X158250000Y-94725000D01*
D43*
X157250000Y-99175000D02*
X157250000Y-99000000D01*
D40*
X159500000Y-94750000D02*
X159750000Y-94750000D01*
X145250000Y-90980000D02*
X145980000Y-90250000D01*
X157425000Y-99000000D02*
X157250000Y-99175000D01*
X159650000Y-92500000D02*
X159650000Y-93325000D01*
X137500000Y-114250000D02*
X137500000Y-115325000D01*
X158250000Y-94000000D02*
X158000000Y-93750000D01*
X146500000Y-90770000D02*
X145980000Y-90250000D01*
X137500000Y-115325000D02*
X137325000Y-115500000D01*
D43*
X158137500Y-94612500D02*
X158250000Y-94725000D01*
%TO.N,Net-(U5-FB)*%
X158000000Y-92500000D02*
X157250000Y-92500000D01*
X155600000Y-94150000D02*
X156000000Y-93750000D01*
X157000000Y-93750000D02*
X157250000Y-93500000D01*
X155600000Y-94612500D02*
X155600000Y-94150000D01*
X157250000Y-92500000D02*
X156400000Y-92500000D01*
X156000000Y-93750000D02*
X157000000Y-93750000D01*
X157250000Y-93500000D02*
X157250000Y-92500000D01*
%TO.N,Net-(D3-K)*%
X154250000Y-105872600D02*
X154250000Y-106515000D01*
X159750000Y-108662500D02*
X159162500Y-108662500D01*
X156829438Y-107750000D02*
X156000000Y-106920562D01*
X159162500Y-108662500D02*
X158250000Y-107750000D01*
X158250000Y-107750000D02*
X156829438Y-107750000D01*
X156000000Y-106062500D02*
X155437500Y-105500000D01*
X154622600Y-105500000D02*
X154250000Y-105872600D01*
X155437500Y-105500000D02*
X154622600Y-105500000D01*
X156000000Y-106920562D02*
X156000000Y-106062500D01*
%TO.N,Net-(D3-A)*%
X159750000Y-106912500D02*
X159750000Y-104825000D01*
%TO.N,Net-(D2-K)*%
X157250000Y-108662500D02*
X155227500Y-108662500D01*
X155227500Y-108662500D02*
X155050000Y-108485000D01*
%TO.N,Net-(D2-A)*%
X157250000Y-104825000D02*
X157250000Y-106912500D01*
%TO.N,GND*%
D40*
X143500000Y-90190000D02*
X143440000Y-90250000D01*
X135630000Y-99000000D02*
X135630000Y-100370000D01*
X155770000Y-68500000D02*
X155850000Y-68580000D01*
X143500000Y-88750000D02*
X143500000Y-90190000D01*
X155025000Y-110750000D02*
X155025000Y-111525000D01*
X152000000Y-104525000D02*
X151975000Y-104500000D01*
D43*
X154250000Y-109127400D02*
X154372600Y-109250000D01*
D40*
X158250000Y-97250000D02*
X158250000Y-96275000D01*
X152265000Y-100000000D02*
X151500000Y-99235000D01*
X161000000Y-99000000D02*
X159875000Y-99000000D01*
X160255000Y-113745000D02*
X160750000Y-113250000D01*
X155930000Y-68500000D02*
X155850000Y-68580000D01*
X142680000Y-121680000D02*
X142680000Y-121320000D01*
X154250000Y-117500000D02*
X154250000Y-117750000D01*
X133750000Y-72225000D02*
X133975000Y-72000000D01*
X154250000Y-68500000D02*
X155770000Y-68500000D01*
X142680000Y-125500000D02*
X142680000Y-125930000D01*
D43*
X154250000Y-108485000D02*
X154250000Y-109127400D01*
D40*
X151320000Y-120070000D02*
X151000000Y-119750000D01*
X142750000Y-116425000D02*
X143925000Y-116425000D01*
X134000000Y-118750000D02*
X134250000Y-118750000D01*
X143382600Y-121162400D02*
X143800000Y-120745000D01*
X152250000Y-107000000D02*
X152750000Y-107500000D01*
X133500000Y-126500000D02*
X134250000Y-125750000D01*
X143500000Y-90310000D02*
X143440000Y-90250000D01*
X143500000Y-92000000D02*
X143500000Y-90310000D01*
X143925000Y-116425000D02*
X144250000Y-116750000D01*
X143800000Y-120550000D02*
X143000000Y-119750000D01*
X151320000Y-121320000D02*
X151320000Y-125500000D01*
X147250000Y-117400000D02*
X147250000Y-115500000D01*
X152250000Y-98000000D02*
X152250000Y-98485000D01*
X133250000Y-118000000D02*
X134000000Y-118750000D01*
X155250000Y-125500000D02*
X154250000Y-126500000D01*
X158000000Y-86750000D02*
X158690000Y-86750000D01*
D43*
X154650000Y-106515000D02*
X154650000Y-107100000D01*
D40*
X133250000Y-117750000D02*
X133250000Y-118000000D01*
X152250000Y-98485000D02*
X151500000Y-99235000D01*
X159875000Y-99000000D02*
X159750000Y-99125000D01*
X143500000Y-122500000D02*
X142680000Y-121680000D01*
X150617400Y-122382600D02*
X150500000Y-122500000D01*
X152000000Y-105500000D02*
X152000000Y-104525000D01*
X135500000Y-118250000D02*
X134750000Y-118250000D01*
X159560000Y-87000000D02*
X159250000Y-87310000D01*
X142680000Y-120070000D02*
X143000000Y-119750000D01*
X153250000Y-97750000D02*
X154725000Y-97750000D01*
X155025000Y-111525000D02*
X156000000Y-112500000D01*
X150617400Y-121162400D02*
X150617400Y-122382600D01*
X150200000Y-120745000D02*
X150617400Y-121162400D01*
X160255000Y-113970000D02*
X160255000Y-113745000D01*
X154950000Y-94612500D02*
X154637500Y-94612500D01*
X134750000Y-118250000D02*
X134250000Y-118750000D01*
X133750000Y-69525000D02*
X133975000Y-69750000D01*
X151250000Y-116425000D02*
X150075000Y-116425000D01*
X142680000Y-125930000D02*
X143500000Y-126750000D01*
X154250000Y-117750000D02*
X155250000Y-118750000D01*
X151320000Y-125930000D02*
X150500000Y-126750000D01*
X135630000Y-100370000D02*
X135500000Y-100500000D01*
X139500000Y-109460000D02*
X139440000Y-109400000D01*
X160500000Y-87000000D02*
X159560000Y-87000000D01*
X151320000Y-121680000D02*
X151320000Y-121320000D01*
X154750000Y-92500000D02*
X153500000Y-92500000D01*
X133750000Y-68750000D02*
X133750000Y-69525000D01*
X143382600Y-122382600D02*
X143382600Y-121162400D01*
X139500000Y-110750000D02*
X139500000Y-109460000D01*
D43*
X154650000Y-107100000D02*
X154250000Y-107500000D01*
D40*
X141673800Y-90500000D02*
X143190000Y-90500000D01*
D43*
X154372600Y-109250000D02*
X156000000Y-109250000D01*
D40*
X150500000Y-122500000D02*
X151320000Y-121680000D01*
X150075000Y-116425000D02*
X149750000Y-116750000D01*
X138520000Y-68750000D02*
X138350000Y-68580000D01*
X155250000Y-125250000D02*
X155250000Y-125500000D01*
X150652400Y-98387400D02*
X151500000Y-99235000D01*
X157750000Y-68500000D02*
X155930000Y-68500000D01*
X159250000Y-112500000D02*
X160250000Y-112500000D01*
X143190000Y-90500000D02*
X143440000Y-90250000D01*
X150652400Y-98000000D02*
X150652400Y-98387400D01*
X152750000Y-100000000D02*
X152265000Y-100000000D01*
X158690000Y-86750000D02*
X159250000Y-87310000D01*
X142680000Y-121320000D02*
X142680000Y-120070000D01*
X151320000Y-125500000D02*
X151320000Y-125930000D01*
X143800000Y-120745000D02*
X143800000Y-120550000D01*
X142680000Y-121320000D02*
X142680000Y-125500000D01*
X150200000Y-120550000D02*
X151000000Y-119750000D01*
X143500000Y-122500000D02*
X143382600Y-122382600D01*
X154637500Y-94612500D02*
X153750000Y-95500000D01*
X140000000Y-68750000D02*
X138520000Y-68750000D01*
X155600000Y-95500000D02*
X153750000Y-95500000D01*
X150200000Y-120745000D02*
X150200000Y-120550000D01*
X151320000Y-121320000D02*
X151320000Y-120070000D01*
X133750000Y-73250000D02*
X133750000Y-72225000D01*
X134250000Y-125750000D02*
X134250000Y-125250000D01*
X152750000Y-107500000D02*
X154250000Y-107500000D01*
%TO.N,+5V*%
D42*
X153475000Y-110750000D02*
X153440000Y-110715000D01*
D43*
X146748800Y-118001200D02*
X146748800Y-117750000D01*
D40*
X153500000Y-111750000D02*
X153500000Y-110775000D01*
X153500000Y-110775000D02*
X153475000Y-110750000D01*
D43*
X146499400Y-117999400D02*
X146748800Y-117750000D01*
X146250000Y-118500000D02*
X145250000Y-117500000D01*
X146250000Y-118248800D02*
X146499400Y-117999400D01*
X146000000Y-115500000D02*
X146000000Y-114500000D01*
D40*
X150250000Y-119250000D02*
X149750000Y-119250000D01*
D42*
X153440000Y-110715000D02*
X153440000Y-108485000D01*
D43*
X146250000Y-118500000D02*
X146250000Y-118248800D01*
D40*
X152500000Y-111000000D02*
X153225000Y-111000000D01*
X149400000Y-119600000D02*
X149500000Y-119500000D01*
D43*
X146000000Y-115500000D02*
X146748800Y-116248800D01*
D40*
X153225000Y-111000000D02*
X153475000Y-110750000D01*
X144600000Y-120745000D02*
X144600000Y-119650000D01*
X144500000Y-118750000D02*
X144500000Y-119250000D01*
X144500000Y-119250000D02*
X144750000Y-119500000D01*
X149400000Y-120745000D02*
X149400000Y-119600000D01*
X149750000Y-119250000D02*
X149500000Y-119500000D01*
X144600000Y-119650000D02*
X144750000Y-119500000D01*
D43*
X146748800Y-118001200D02*
X146748800Y-117400000D01*
X146250000Y-118500000D02*
X146748800Y-118001200D01*
X146748800Y-116248800D02*
X146748800Y-116600000D01*
X146748800Y-117750000D02*
X146748800Y-116601200D01*
%TO.N,Net-(U1-IO0)*%
D40*
X156010000Y-85490000D02*
X156010000Y-85250000D01*
X156010000Y-85250000D02*
X155850000Y-85090000D01*
X135675000Y-114325000D02*
X135750000Y-114250000D01*
X139750000Y-119750000D02*
X138750000Y-118750000D01*
X135675000Y-115500000D02*
X135675000Y-114325000D01*
X155500000Y-86000000D02*
X156010000Y-85490000D01*
X138750000Y-118750000D02*
X135675000Y-115675000D01*
X135675000Y-115675000D02*
X135675000Y-115500000D01*
X139750000Y-124250000D02*
X139750000Y-119750000D01*
X138750000Y-125250000D02*
X139750000Y-124250000D01*
%TO.N,+BATT*%
X156275000Y-97750000D02*
X156275000Y-96412500D01*
X154950000Y-96387500D02*
X154950000Y-96574999D01*
X153525000Y-104500000D02*
X153525000Y-103800000D01*
X155525000Y-101775000D02*
X151500000Y-101775000D01*
D42*
X153525000Y-104500000D02*
X153440000Y-104585000D01*
D40*
X153525000Y-103800000D02*
X151500000Y-101775000D01*
X157250000Y-103175000D02*
X156925000Y-103175000D01*
X154950000Y-96574999D02*
X156125001Y-97750000D01*
X153500000Y-104475000D02*
X153525000Y-104500000D01*
X156275000Y-96412500D02*
X156250000Y-96387500D01*
X157250000Y-103175000D02*
X159750000Y-103175000D01*
D44*
X153440000Y-104585000D02*
X153440000Y-106515000D01*
D40*
X156125001Y-97750000D02*
X156275000Y-97750000D01*
X151500000Y-101775000D02*
X152725000Y-101775000D01*
X156275000Y-98225000D02*
X156275000Y-97750000D01*
X152725000Y-101775000D02*
X156275000Y-98225000D01*
X156925000Y-103175000D02*
X155525000Y-101775000D01*
%TO.N,Net-(U1-EN)*%
X160750000Y-124250000D02*
X160750000Y-119750000D01*
X160255000Y-115520000D02*
X158345000Y-115520000D01*
X158325000Y-115500000D02*
X158325000Y-114425000D01*
X159750000Y-118750000D02*
X158325000Y-117325000D01*
X158345000Y-115520000D02*
X158325000Y-115500000D01*
X158325000Y-114425000D02*
X158500000Y-114250000D01*
X160750000Y-119750000D02*
X159750000Y-118750000D01*
X159750000Y-125250000D02*
X160750000Y-124250000D01*
X137250000Y-70750000D02*
X137980000Y-70750000D01*
X137980000Y-70750000D02*
X138350000Y-71120000D01*
X158325000Y-117325000D02*
X158325000Y-115500000D01*
%TO.N,Net-(D1-A)*%
D43*
X159750000Y-100875000D02*
X157300000Y-100875000D01*
X157300000Y-100875000D02*
X157250000Y-100825000D01*
%TO.N,Net-(U4-ISET)*%
X156500000Y-111400000D02*
X156500000Y-110500000D01*
X156500000Y-110500000D02*
X155826200Y-109826200D01*
X154250000Y-109750000D02*
X153850000Y-109350000D01*
X157600000Y-112500000D02*
X156500000Y-111400000D01*
X153850000Y-109350000D02*
X153850000Y-108485000D01*
X155826200Y-109826200D02*
X155761330Y-109826200D01*
X155685130Y-109750000D02*
X154250000Y-109750000D01*
X155761330Y-109826200D02*
X155685130Y-109750000D01*
%TO.N,/SCL*%
X152750000Y-88500000D02*
X152500000Y-88250000D01*
X148750000Y-91750000D02*
X152500000Y-91750000D01*
D42*
X157520000Y-82230000D02*
X157500000Y-82250000D01*
D43*
X152500000Y-91750000D02*
X152750000Y-91500000D01*
X148742600Y-88250000D02*
X147735000Y-87242400D01*
X148520000Y-91520000D02*
X148750000Y-91750000D01*
D42*
X147735000Y-86870000D02*
X147735000Y-86340000D01*
X147735000Y-86340000D02*
X147735000Y-85015000D01*
D43*
X148520000Y-90250000D02*
X148520000Y-91520000D01*
D42*
X147735000Y-85015000D02*
X147750000Y-85000000D01*
X159250000Y-82230000D02*
X157520000Y-82230000D01*
D43*
X152750000Y-91500000D02*
X152750000Y-88500000D01*
X147735000Y-87242400D02*
X147735000Y-86340000D01*
X152500000Y-88250000D02*
X148742600Y-88250000D01*
%TO.N,/SDA*%
X147000000Y-88750000D02*
X146750000Y-88750000D01*
X146465000Y-86340000D02*
X146465000Y-85035000D01*
X151060000Y-90250000D02*
X149560000Y-88750000D01*
X146750000Y-88750000D02*
X146465000Y-88465000D01*
X146465000Y-88465000D02*
X146465000Y-86340000D01*
X159238670Y-80076200D02*
X159437435Y-79877435D01*
D40*
X157560000Y-79690000D02*
X157500000Y-79750000D01*
D43*
X146465000Y-85035000D02*
X146500000Y-85000000D01*
D40*
X159250000Y-79690000D02*
X157560000Y-79690000D01*
D43*
X149560000Y-88750000D02*
X147000000Y-88750000D01*
%TO.N,Net-(J1-CC1)*%
X142750000Y-118075000D02*
X144825000Y-118075000D01*
X144825000Y-118075000D02*
X145750000Y-119000000D01*
X145750000Y-119000000D02*
X145750000Y-120745000D01*
%TO.N,/D+*%
D45*
X136000000Y-92000000D02*
X138313310Y-94313310D01*
X136000000Y-84764020D02*
X136000000Y-92000000D01*
X138313310Y-94313310D02*
X146077330Y-94313310D01*
X147686690Y-119819189D02*
X147686690Y-119077330D01*
D42*
X147500000Y-122000000D02*
X147750000Y-121750000D01*
D45*
X147750000Y-119882499D02*
X147686690Y-119819189D01*
X148250000Y-115969013D02*
X148250000Y-116600000D01*
X148205270Y-115895687D02*
X148190972Y-115909985D01*
X138350000Y-85090000D02*
X137224999Y-85090000D01*
X148205271Y-115104314D02*
X148205270Y-115895687D01*
X148190972Y-115909985D02*
X148250000Y-115969013D01*
D42*
X146750000Y-120745000D02*
X146750000Y-121750000D01*
D45*
X148186690Y-115085733D02*
X148205271Y-115104314D01*
X147750000Y-120745000D02*
X147750000Y-119882499D01*
X137224999Y-85090000D02*
X136776689Y-84641690D01*
X147686690Y-119077330D02*
X148250000Y-118514020D01*
X146077330Y-94313310D02*
X148186690Y-96422670D01*
X148250000Y-118514020D02*
X148250000Y-117400000D01*
D42*
X146750000Y-121750000D02*
X147000000Y-122000000D01*
X147000000Y-122000000D02*
X147500000Y-122000000D01*
D45*
X136776689Y-84641690D02*
X136122330Y-84641690D01*
D42*
X147750000Y-121750000D02*
X147750000Y-120745000D01*
D45*
X136122330Y-84641690D02*
X136000000Y-84764020D01*
X148250000Y-117400000D02*
X148250000Y-116600000D01*
X148186690Y-96422670D02*
X148186690Y-115085733D01*
%TO.N,/D-*%
X137224999Y-83820000D02*
X138350000Y-83820000D01*
X147813310Y-115235867D02*
X147813310Y-96577330D01*
X135970870Y-84271510D02*
X135967670Y-84268310D01*
D42*
X146250000Y-119985980D02*
X147313310Y-118922670D01*
D45*
X147250000Y-120745000D02*
X147250000Y-119882499D01*
X138159976Y-94683490D02*
X135629820Y-92153334D01*
X147813310Y-115764133D02*
X147835090Y-115742353D01*
X145922670Y-94686690D02*
X138186690Y-94686690D01*
X147813310Y-115905703D02*
X147813310Y-115764133D01*
D42*
X146250000Y-120745000D02*
X146250000Y-119985980D01*
D45*
X135967670Y-84268310D02*
X136776689Y-84268310D01*
X147250000Y-119882499D02*
X147313310Y-119819189D01*
X147760090Y-118475890D02*
X147760090Y-115958923D01*
X138183491Y-94683491D02*
X138159976Y-94683490D01*
X147313310Y-119819189D02*
X147313310Y-118922670D01*
X147835090Y-115742353D02*
X147835090Y-115257647D01*
X138186690Y-94686690D02*
X138183491Y-94683491D01*
X135629820Y-84610686D02*
X135968996Y-84271510D01*
X147760090Y-115958923D02*
X147813310Y-115905703D01*
X135968996Y-84271510D02*
X135970870Y-84271510D01*
X135629820Y-92153334D02*
X135629820Y-84610686D01*
X147835090Y-115257647D02*
X147813310Y-115235867D01*
X147813310Y-96577330D02*
X145922670Y-94686690D01*
X147313310Y-118922670D02*
X147760090Y-118475890D01*
X136776689Y-84268310D02*
X137224999Y-83820000D01*
%TO.N,Net-(J1-CC2)*%
D43*
X149925000Y-118075000D02*
X148750000Y-119250000D01*
X151250000Y-118075000D02*
X149925000Y-118075000D01*
X148750000Y-119250000D02*
X148750000Y-120745000D01*
%TO.N,/RF_SW1*%
X143250000Y-99000000D02*
X143250000Y-97750000D01*
X143925000Y-87175000D02*
X143925000Y-86340000D01*
X144500000Y-87750000D02*
X143925000Y-87175000D01*
%TO.N,/MISO*%
X141980000Y-99000000D02*
X141980000Y-97855000D01*
X140875000Y-96750000D02*
X139489059Y-96750000D01*
X139489059Y-96750000D02*
X135265330Y-92526271D01*
X135265330Y-92526271D02*
X135265330Y-78382270D01*
X135265330Y-78382270D02*
X137447600Y-76200000D01*
X137447600Y-76200000D02*
X138350000Y-76200000D01*
X141980000Y-97855000D02*
X140875000Y-96750000D01*
%TO.N,/MOSI*%
X134912930Y-77464670D02*
X137447600Y-74930000D01*
X140710000Y-98469309D02*
X134912930Y-92672239D01*
X134912930Y-92672239D02*
X134912930Y-77464670D01*
X137447600Y-74930000D02*
X138350000Y-74930000D01*
X140710000Y-99000000D02*
X140710000Y-98469309D01*
%TO.N,/SCK*%
X134560530Y-76439470D02*
X137340000Y-73660000D01*
X139440000Y-97697677D02*
X134560530Y-92818207D01*
X134560530Y-92818207D02*
X134560530Y-76439470D01*
X139440000Y-99000000D02*
X139440000Y-97697677D01*
X137340000Y-73660000D02*
X138350000Y-73660000D01*
%TO.N,/RESET*%
X140000000Y-88000000D02*
X140115000Y-87885000D01*
X138170000Y-97670000D02*
X138000000Y-97500000D01*
X140115000Y-87885000D02*
X140115000Y-86340000D01*
X138170000Y-99000000D02*
X138170000Y-97670000D01*
%TO.N,/NSS*%
X136750000Y-82750000D02*
X138150000Y-82750000D01*
X138150000Y-82750000D02*
X138350000Y-82550000D01*
X136900000Y-99000000D02*
X136900000Y-97650000D01*
X136900000Y-97650000D02*
X136750000Y-97500000D01*
%TO.N,/BUSY*%
X140710000Y-111540000D02*
X140500000Y-111750000D01*
X133750000Y-76251632D02*
X137611632Y-72390000D01*
X140710000Y-109400000D02*
X140710000Y-111540000D01*
X140500000Y-111750000D02*
X135000000Y-111750000D01*
X133750000Y-110500000D02*
X133750000Y-76251632D01*
X137611632Y-72390000D02*
X138350000Y-72390000D01*
X135000000Y-111750000D02*
X133750000Y-110500000D01*
%TO.N,/DIO1*%
X141980000Y-110980000D02*
X142000000Y-111000000D01*
X142250000Y-86745000D02*
X142655000Y-86340000D01*
X142250000Y-88000000D02*
X142250000Y-86745000D01*
X141980000Y-109400000D02*
X141980000Y-110980000D01*
%TD*%
M02*
